0 Bench
0 Name: bench.ldr
0 Author: Brickworks

1 71 160 -8 -60 1 0 0 0 1 0 0 0 1 3027.dat
1 0 260 -16 -60 1 0 0 0 1 0 0 0 1 18674.dat
1 71 300 -16 -70 1 0 0 0 1 0 0 0 1 3069b.dat
1 71 210 -16 -70 1 0 0 0 1 0 0 0 1 63864.dat
1 71 100 -16 -70 1 0 0 0 1 0 0 0 1 6636.dat
1 71 10 -16 -70 1 0 0 0 1 0 0 0 1 3070b.dat
1 71 300 -16 -50 1 0 0 0 1 0 0 0 1 3069b.dat
1 71 210 -16 -50 1 0 0 0 1 0 0 0 1 63864.dat
1 71 100 -16 -50 1 0 0 0 1 0 0 0 1 6636.dat
1 71 10 -16 -50 1 0 0 0 1 0 0 0 1 3070b.dat
1 71 310 -16 -30 1 0 0 0 1 0 0 0 1 3070b.dat
1 71 240 -16 -30 1 0 0 0 1 0 0 0 1 6636.dat
1 71 100 -16 -30 1 0 0 0 1 0 0 0 1 6636.dat
1 71 10 -16 -30 1 0 0 0 1 0 0 0 1 3070b.dat
1 71 240 -16 -90 1 0 0 0 1 0 0 0 1 4162.dat
1 71 80 -16 -90 1 0 0 0 1 0 0 0 1 4162.dat
1 72 240 -16 -110 1 0 0 0 1 0 0 0 1 4162.dat
1 72 80 -16 -110 1 0 0 0 1 0 0 0 1 4162.dat
1 72 240 -16 -10 1 0 0 0 1 0 0 0 1 4162.dat
1 72 80 -16 -10 1 0 0 0 1 0 0 0 1 4162.dat
1 0 30 -32 -50 0 0 -1 0 1 0 1 0 0 3622.dat
1 0 170 -32 -50 0 0 -1 0 1 0 1 0 0 3622.dat
1 0 260 -40 -60 1 0 0 0 1 0 0 0 1 3062b.dat
1 70 100 -40 -70 1 0 0 0 1 0 0 0 1 3460.dat
1 70 100 -40 -40 1 0 0 0 1 0 0 0 1 3034.dat
1 70 100 -48 -30 1 0 0 0 1 0 0 0 1 6636.dat
1 70 100 -48 -50 1 0 0 0 1 0 0 0 1 4162.dat
1 70 100 -48 -70 1 0 0 0 1 0 0 0 1 6636.dat
1 0 30 -64 -30 1 0 0 0 1 0 0 0 1 3005.dat
1 0 170 -64 -30 1 0 0 0 1 0 0 0 1 3005.dat
1 0 30 -64 -70 1 0 0 0 1 0 0 0 1 3005.dat
1 0 170 -64 -70 1 0 0 0 1 0 0 0 1 3005.dat
1 0 260 -64 -60 1 0 0 0 1 0 0 0 1 3062b.dat
1 70 30 -72 -40 0 0 -1 0 1 0 1 0 0 3069b.dat
1 70 170 -72 -40 0 0 -1 0 1 0 1 0 0 3069b.dat
1 70 100 -88 -70 1 0 0 0 1 0 0 0 1 3008.dat
1 0 260 -88 -60 1 0 0 0 1 0 0 0 1 3062b.dat
1 70 100 -96 -70 1 0 0 0 1 0 0 0 1 4162.dat
1 0 260 -112 -60 1 0 0 0 1 0 0 0 1 3062b.dat
1 0 260 -136 -60 1 0 0 0 1 0 0 0 1 3062b.dat
1 0 260 -144 -60 1 0 0 0 1 0 0 0 1 3022.dat
1 46 260 -168 -60 1 0 0 0 1 0 0 0 1 3941.dat
1 0 260 -192 -60 1 0 0 0 1 0 0 0 1 98100.dat
1 0 260 -200 -60 1 0 0 0 1 0 0 0 1 6141.dat
0
