0 Boat
0 Name: boat.ldr
0 Author: Brickworks

1 272 190 -24 -30 0 0 -1 0 1 0 1 0 0 3622.dat
1 272 210 -24 -30 1 0 0 0 1 0 0 0 1 3005.dat
1 272 140 -24 -50 1 0 0 0 1 0 0 0 1 3010.dat
1 272 60 -24 -20 1 0 0 0 1 0 0 0 1 3001.dat
1 272 140 -24 -20 1 0 0 0 1 0 0 0 1 3001.dat
1 272 60 -24 -50 1 0 0 0 1 0 0 0 1 3010.dat
1 15 120 -48 -20 1 0 0 0 1 0 0 0 1 3001.dat
1 15 180 -48 -20 1 0 0 0 1 0 0 0 1 3003.dat
1 15 40 -48 -50 1 0 0 0 1 0 0 0 1 3010.dat
1 15 120 -48 -50 1 0 0 0 1 0 0 0 1 3010.dat
1 15 180 -48 -50 1 0 0 0 1 0 0 0 1 3004.dat
1 15 210 -48 -30 0 0 -1 0 1 0 1 0 0 3040b.dat
1 15 40 -48 -20 1 0 0 0 1 0 0 0 1 3001.dat
1 15 10 -56 -30 0 0 -1 0 1 0 1 0 0 3623.dat
1 15 60 -56 -20 1 0 0 0 1 0 0 0 1 3020.dat
1 15 140 -56 -20 1 0 0 0 1 0 0 0 1 3020.dat
1 15 190 -56 -20 0 0 -1 0 1 0 1 0 0 3023b.dat
1 15 60 -56 -50 1 0 0 0 1 0 0 0 1 3710.dat
1 15 140 -56 -50 1 0 0 0 1 0 0 0 1 3710.dat
1 15 190 -56 -50 1 0 0 0 1 0 0 0 1 3024.dat
1 15 210 -56 -30 1 0 0 0 1 0 0 0 1 3024.dat
1 70 40 -64 -30 1 0 0 0 1 0 0 0 1 3069b.dat
1 272 140 -64 -50 1 0 0 0 1 0 0 0 1 2431.dat
1 272 60 -64 -50 1 0 0 0 1 0 0 0 1 2431.dat
1 272 140 -64 -10 1 0 0 0 1 0 0 0 1 2431.dat
1 272 60 -64 -10 1 0 0 0 1 0 0 0 1 2431.dat
1 272 10 -64 -30 0 0 -1 0 1 0 1 0 0 63864.dat
1 272 190 -64 -10 1 0 0 0 1 0 0 0 1 3070b.dat
1 272 190 -64 -50 1 0 0 0 1 0 0 0 1 3070b.dat
1 15 90 -80 -30 0 0 1 0 1 0 -1 0 0 3040b.dat
1 15 130 -80 -30 1 0 0 0 1 0 0 0 1 3622.dat
1 70 170 -80 -30 1 0 0 0 1 0 0 0 1 3062b.dat
1 15 200 -80 -30 1 0 0 0 1 0 0 0 1 3004.dat
1 15 110 -104 -30 0 0 1 0 1 0 -1 0 0 3040b.dat
1 15 140 -104 -30 1 0 0 0 1 0 0 0 1 3004.dat
1 70 170 -104 -30 1 0 0 0 1 0 0 0 1 3062b.dat
1 15 190 -104 -30 0 0 -1 0 1 0 1 0 0 3040b.dat
1 15 130 -128 -30 0 0 1 0 1 0 -1 0 0 3040b.dat
1 15 150 -128 -30 1 0 0 0 1 0 0 0 1 3005.dat
1 70 170 -128 -30 1 0 0 0 1 0 0 0 1 3062b.dat
1 15 190 -128 -30 0 0 -1 0 1 0 1 0 0 3040b.dat
1 70 170 -152 -30 1 0 0 0 1 0 0 0 1 3062b.dat
1 15 150 -152 -30 0 0 1 0 1 0 -1 0 0 3040b.dat
1 70 170 -176 -30 1 0 0 0 1 0 0 0 1 3062b.dat
1 15 150 -176 -30 1 0 0 0 1 0 0 0 1 3005.dat
1 70 170 -200 -30 1 0 0 0 1 0 0 0 1 3062b.dat
1 15 150 -200 -30 1 0 0 0 1 0 0 0 1 3005.dat
1 15 160 -208 -30 1 0 0 0 1 0 0 0 1 3023b.dat
1 4 170 -216 -30 1 0 0 0 1 0 0 0 1 6141.dat
0
