0 FILE castle.ldr
0 Castle
0 Name: castle.ldr
0 Author: Brickworks
0 // Designed by the assistant from: a medieval castle with a gatehouse, four corner towers and a long curtain wall between them

1 16 0 0 0 1 0 0 0 1 0 0 0 1 gatehouse.ldr
1 16 0 0 0 1 0 0 0 1 0 0 0 1 front_left_tower.ldr
1 16 0 0 0 1 0 0 0 1 0 0 0 1 front_curtain_walls.ldr
1 16 0 0 0 1 0 0 0 1 0 0 0 1 courtyard.ldr
1 16 0 0 0 1 0 0 0 1 0 0 0 1 left_curtain_wall.ldr
1 16 0 0 0 1 0 0 0 1 0 0 0 1 front_right_tower.ldr
1 16 0 0 0 1 0 0 0 1 0 0 0 1 right_curtain_wall.ldr
1 16 0 0 0 1 0 0 0 1 0 0 0 1 back_right_tower.ldr
1 16 0 0 0 1 0 0 0 1 0 0 0 1 back_curtain_wall.ldr
1 16 0 0 0 1 0 0 0 1 0 0 0 1 back_left_tower.ldr
1 71 180 -4 -440 1 0 0 0 1 0 0 0 1 4186.dat
0 STEP
1 2 40 -16 -440 0 0 -1 0 1 0 1 0 0 3795.dat
1 2 70 -16 -380 0 0 -1 0 1 0 1 0 0 3710.dat
1 2 70 -16 -460 0 0 -1 0 1 0 1 0 0 3710.dat
0 STEP
1 2 -20 -16 -360 0 0 -1 0 1 0 1 0 0 3032.dat
0 STEP
1 2 -240 -16 0 1 0 0 0 1 0 0 0 1 3032.dat
1 2 -120 -16 0 1 0 0 0 1 0 0 0 1 3032.dat
1 2 -120 -16 -100 1 0 0 0 1 0 0 0 1 3032.dat
1 2 -120 -16 -180 1 0 0 0 1 0 0 0 1 3032.dat
1 2 -120 -16 -260 1 0 0 0 1 0 0 0 1 3032.dat
1 2 -120 -16 -340 1 0 0 0 1 0 0 0 1 3032.dat
1 2 -180 -16 -50 1 0 0 0 1 0 0 0 1 3710.dat
1 2 -100 -16 -50 1 0 0 0 1 0 0 0 1 3710.dat
0 STEP
1 2 -240 -16 -340 1 0 0 0 1 0 0 0 1 3032.dat
1 2 -240 -16 -260 1 0 0 0 1 0 0 0 1 3032.dat
1 2 -240 -16 -420 1 0 0 0 1 0 0 0 1 3032.dat
1 2 -260 -16 -50 1 0 0 0 1 0 0 0 1 3710.dat
1 2 -240 -16 -500 1 0 0 0 1 0 0 0 1 3032.dat
1 2 -240 -16 -180 1 0 0 0 1 0 0 0 1 3032.dat
1 2 -240 -16 -100 1 0 0 0 1 0 0 0 1 3032.dat
1 2 -240 -16 -580 1 0 0 0 1 0 0 0 1 3032.dat
0 STEP
1 2 -100 -16 -910 1 0 0 0 1 0 0 0 1 3710.dat
1 2 -240 -16 -660 1 0 0 0 1 0 0 0 1 3032.dat
1 2 -180 -16 -910 1 0 0 0 1 0 0 0 1 3710.dat
1 2 -260 -16 -910 1 0 0 0 1 0 0 0 1 3710.dat
1 2 -120 -16 -880 1 0 0 0 1 0 0 0 1 3795.dat
1 2 -240 -16 -740 1 0 0 0 1 0 0 0 1 3032.dat
1 2 -240 -16 -820 1 0 0 0 1 0 0 0 1 3032.dat
1 2 -240 -16 -880 1 0 0 0 1 0 0 0 1 3795.dat
0 STEP
1 2 -20 -16 -840 0 0 -1 0 1 0 1 0 0 3032.dat
1 2 -20 -16 -910 1 0 0 0 1 0 0 0 1 3710.dat
0 STEP
1 2 -120 -16 -820 1 0 0 0 1 0 0 0 1 3032.dat
1 2 -120 -16 -420 1 0 0 0 1 0 0 0 1 3032.dat
1 2 -120 -16 -500 1 0 0 0 1 0 0 0 1 3032.dat
1 2 -120 -16 -740 1 0 0 0 1 0 0 0 1 3032.dat
1 2 -120 -16 -580 1 0 0 0 1 0 0 0 1 3032.dat
1 2 -120 -16 -660 1 0 0 0 1 0 0 0 1 3032.dat
0 STEP
1 2 -20 -16 -480 0 0 -1 0 1 0 1 0 0 3032.dat
0 STEP
1 2 40 -16 -560 0 0 -1 0 1 0 1 0 0 3795.dat
1 2 40 -16 -660 0 0 -1 0 1 0 1 0 0 3020.dat
1 2 -20 -16 -600 0 0 -1 0 1 0 1 0 0 3032.dat
1 2 70 -16 -540 0 0 -1 0 1 0 1 0 0 3710.dat
1 2 70 -16 -620 0 0 -1 0 1 0 1 0 0 3710.dat
1 2 70 -16 -680 0 0 -1 0 1 0 1 0 0 3023b.dat
1 4 50 -24 -630 1 0 0 0 1 0 0 0 1 24866.dat
1 14 30 -24 -550 1 0 0 0 1 0 0 0 1 24866.dat
0 STEP
1 2 -20 -16 -720 0 0 -1 0 1 0 1 0 0 3032.dat
0 STEP
1 2 140 -16 -910 1 0 0 0 1 0 0 0 1 3710.dat
1 2 220 -16 -910 1 0 0 0 1 0 0 0 1 3710.dat
1 2 300 -16 -910 1 0 0 0 1 0 0 0 1 3710.dat
1 2 380 -16 -910 1 0 0 0 1 0 0 0 1 3710.dat
1 2 300 -16 -850 1 0 0 0 1 0 0 0 1 3710.dat
1 2 60 -16 -910 1 0 0 0 1 0 0 0 1 3710.dat
1 2 380 -16 -850 1 0 0 0 1 0 0 0 1 3710.dat
1 2 320 -16 -880 1 0 0 0 1 0 0 0 1 3795.dat
0 STEP
1 2 460 -16 -850 1 0 0 0 1 0 0 0 1 3710.dat
1 2 540 -16 -850 1 0 0 0 1 0 0 0 1 3710.dat
1 2 620 -16 -910 1 0 0 0 1 0 0 0 1 3710.dat
1 2 540 -16 -910 1 0 0 0 1 0 0 0 1 3710.dat
1 2 460 -16 -910 1 0 0 0 1 0 0 0 1 3710.dat
1 2 560 -16 -880 1 0 0 0 1 0 0 0 1 3795.dat
1 2 440 -16 -880 1 0 0 0 1 0 0 0 1 3795.dat
1 2 620 -16 -850 1 0 0 0 1 0 0 0 1 3710.dat
0 STEP
1 2 480 -16 0 1 0 0 0 1 0 0 0 1 3032.dat
1 2 460 -16 -100 1 0 0 0 1 0 0 0 1 3031.dat
1 2 460 -16 -150 1 0 0 0 1 0 0 0 1 3710.dat
1 2 460 -16 -50 1 0 0 0 1 0 0 0 1 3710.dat
0 STEP
1 2 360 -16 0 1 0 0 0 1 0 0 0 1 3032.dat
1 2 240 -16 0 1 0 0 0 1 0 0 0 1 3032.dat
1 2 220 -16 -50 1 0 0 0 1 0 0 0 1 3710.dat
1 2 300 -16 -50 1 0 0 0 1 0 0 0 1 3710.dat
1 2 240 -16 -100 1 0 0 0 1 0 0 0 1 3032.dat
1 2 360 -16 -100 1 0 0 0 1 0 0 0 1 3032.dat
1 2 300 -16 -150 1 0 0 0 1 0 0 0 1 3710.dat
1 2 380 -16 -50 1 0 0 0 1 0 0 0 1 3710.dat
0 STEP
1 2 380 -16 -150 1 0 0 0 1 0 0 0 1 3710.dat
1 72 410 -64 -150 -1 0 0 0 1 0 0 0 -1 60481a.dat
0 STEP
1 2 140 -16 -50 1 0 0 0 1 0 0 0 1 3710.dat
1 2 60 -16 -50 1 0 0 0 1 0 0 0 1 3710.dat
1 2 80 -16 -80 1 0 0 0 1 0 0 0 1 3795.dat
1 2 160 -16 -80 1 0 0 0 1 0 0 0 1 3022.dat
1 2 120 -16 0 1 0 0 0 1 0 0 0 1 3032.dat
0 STEP
1 2 0 -16 0 1 0 0 0 1 0 0 0 1 3032.dat
1 2 -20 -16 -50 1 0 0 0 1 0 0 0 1 3710.dat
0 STEP
1 2 -20 -16 -120 0 0 -1 0 1 0 1 0 0 3032.dat
0 STEP
1 2 -20 -16 -240 0 0 -1 0 1 0 1 0 0 3032.dat
0 STEP
1 70 -150 -40 -170 1 0 0 0 1 0 0 0 1 3062b.dat
1 70 -150 -64 -170 1 0 0 0 1 0 0 0 1 3062b.dat
1 288 -152 -72 -168 1 0 0 0 1 0 0 0 1 2417.dat
1 288 -152 -80 -168 0 0 -1 0 1 0 1 0 0 2417.dat
1 2 -154 -88 -150 1 0 0 0 1 0 0 0 1 2423.dat
0 STEP
1 70 -110 -40 -510 1 0 0 0 1 0 0 0 1 3062b.dat
1 70 -110 -64 -510 1 0 0 0 1 0 0 0 1 3062b.dat
1 288 -112 -72 -508 1 0 0 0 1 0 0 0 1 2417.dat
1 288 -112 -80 -508 0 0 -1 0 1 0 1 0 0 2417.dat
1 2 -114 -88 -490 1 0 0 0 1 0 0 0 1 2423.dat
0 STEP
1 72 70 -40 -480 0 0 -1 0 1 0 1 0 0 30414.dat
1 72 70 -48 -470 0 0 -1 0 1 0 1 0 0 63864.dat
0 STEP
1 70 -190 -40 -750 1 0 0 0 1 0 0 0 1 3062b.dat
1 70 -190 -64 -750 1 0 0 0 1 0 0 0 1 3062b.dat
1 288 -192 -72 -748 1 0 0 0 1 0 0 0 1 2417.dat
1 288 -192 -80 -748 0 0 -1 0 1 0 1 0 0 2417.dat
1 2 -194 -88 -730 1 0 0 0 1 0 0 0 1 2423.dat
0 STEP
1 72 270 -64 -150 -1 0 0 0 1 0 0 0 -1 60481a.dat
0 STEP
1 297 100 -380 -872 1 0 0 0 0 -1 0 1 0 14769.dat
0 STEP
1 320 12 -412 -780 0 1 0 -1 0 0 0 0 1 14769.dat
0 STEP
1 2 1290 -16 -380 0 0 -1 0 1 0 1 0 0 3710.dat
1 2 1290 -16 -460 0 0 -1 0 1 0 1 0 0 3710.dat
0 STEP
1 2 1290 -16 -540 0 0 -1 0 1 0 1 0 0 3710.dat
1 2 1290 -16 -620 0 0 -1 0 1 0 1 0 0 3710.dat
1 2 1290 -16 -680 0 0 -1 0 1 0 1 0 0 3023b.dat
1 2 1360 -16 -340 1 0 0 0 1 0 0 0 1 3032.dat
1 2 1360 -16 -580 1 0 0 0 1 0 0 0 1 3032.dat
1 2 1360 -16 -500 1 0 0 0 1 0 0 0 1 3032.dat
1 2 1360 -16 -420 1 0 0 0 1 0 0 0 1 3032.dat
1 2 1360 -16 -660 1 0 0 0 1 0 0 0 1 3032.dat
0 STEP
1 2 1480 -16 -100 1 0 0 0 1 0 0 0 1 3032.dat
1 2 1480 -16 -180 1 0 0 0 1 0 0 0 1 3032.dat
1 2 1480 -16 -260 1 0 0 0 1 0 0 0 1 3032.dat
1 2 1480 -16 -340 1 0 0 0 1 0 0 0 1 3032.dat
1 2 1480 -16 -420 1 0 0 0 1 0 0 0 1 3032.dat
1 2 1480 -16 -500 1 0 0 0 1 0 0 0 1 3032.dat
1 2 1480 -16 -50 1 0 0 0 1 0 0 0 1 3710.dat
1 2 1500 -16 0 1 0 0 0 1 0 0 0 1 3032.dat
0 STEP
1 2 1610 -16 -50 1 0 0 0 1 0 0 0 1 3024.dat
1 2 1610 -16 0 0 0 -1 0 1 0 1 0 0 3710.dat
1 2 1560 -16 -50 1 0 0 0 1 0 0 0 1 3710.dat
1 2 1580 -16 0 0 0 -1 0 1 0 1 0 0 3020.dat
0 STEP
1 2 1580 -16 -120 0 0 -1 0 1 0 1 0 0 3032.dat
0 STEP
1 2 1580 -16 -240 0 0 -1 0 1 0 1 0 0 3032.dat
0 STEP
1 2 1580 -16 -360 0 0 -1 0 1 0 1 0 0 3032.dat
0 STEP
1 2 1580 -16 -480 0 0 -1 0 1 0 1 0 0 3032.dat
0 STEP
1 2 1580 -16 -600 0 0 -1 0 1 0 1 0 0 3032.dat
0 STEP
1 2 1420 -16 -910 1 0 0 0 1 0 0 0 1 3710.dat
1 2 1340 -16 -910 1 0 0 0 1 0 0 0 1 3710.dat
1 2 1480 -16 -880 1 0 0 0 1 0 0 0 1 3795.dat
1 2 1500 -16 -910 1 0 0 0 1 0 0 0 1 3710.dat
1 2 1480 -16 -820 1 0 0 0 1 0 0 0 1 3032.dat
1 2 1480 -16 -740 1 0 0 0 1 0 0 0 1 3032.dat
1 2 1480 -16 -660 1 0 0 0 1 0 0 0 1 3032.dat
1 2 1480 -16 -580 1 0 0 0 1 0 0 0 1 3032.dat
0 STEP
1 2 1020 -16 -910 1 0 0 0 1 0 0 0 1 3710.dat
1 2 1100 -16 -910 1 0 0 0 1 0 0 0 1 3710.dat
1 2 1180 -16 -910 1 0 0 0 1 0 0 0 1 3710.dat
1 2 1260 -16 -910 1 0 0 0 1 0 0 0 1 3710.dat
1 2 1100 -16 -850 1 0 0 0 1 0 0 0 1 3710.dat
1 2 1020 -16 -850 1 0 0 0 1 0 0 0 1 3710.dat
1 2 1160 -16 -880 1 0 0 0 1 0 0 0 1 3795.dat
1 2 1040 -16 -880 1 0 0 0 1 0 0 0 1 3795.dat
0 STEP
1 2 780 -16 -910 1 0 0 0 1 0 0 0 1 3710.dat
1 2 920 -16 -880 1 0 0 0 1 0 0 0 1 3795.dat
1 2 860 -16 -910 1 0 0 0 1 0 0 0 1 3710.dat
1 2 940 -16 -910 1 0 0 0 1 0 0 0 1 3710.dat
1 2 780 -16 -850 1 0 0 0 1 0 0 0 1 3710.dat
1 2 860 -16 -850 1 0 0 0 1 0 0 0 1 3710.dat
1 2 940 -16 -850 1 0 0 0 1 0 0 0 1 3710.dat
1 2 800 -16 -880 1 0 0 0 1 0 0 0 1 3795.dat
0 STEP
1 2 680 -16 -880 1 0 0 0 1 0 0 0 1 3795.dat
1 2 700 -16 -910 1 0 0 0 1 0 0 0 1 3710.dat
1 2 700 -16 -850 1 0 0 0 1 0 0 0 1 3710.dat
0 STEP
1 2 1100 -16 -150 1 0 0 0 1 0 0 0 1 3710.dat
1 2 1020 -16 -150 1 0 0 0 1 0 0 0 1 3710.dat
1 2 940 -16 -150 1 0 0 0 1 0 0 0 1 3710.dat
1 2 1100 -16 -100 1 0 0 0 1 0 0 0 1 3031.dat
1 2 1000 -16 -100 1 0 0 0 1 0 0 0 1 3032.dat
1 2 1080 -16 -50 1 0 0 0 1 0 0 0 1 3710.dat
1 2 1000 -16 -50 1 0 0 0 1 0 0 0 1 3710.dat
1 2 1020 -16 0 1 0 0 0 1 0 0 0 1 3032.dat
0 STEP
1 2 920 -16 -50 1 0 0 0 1 0 0 0 1 3710.dat
1 2 900 -16 0 1 0 0 0 1 0 0 0 1 3032.dat
0 STEP
1 2 1400 -16 -50 1 0 0 0 1 0 0 0 1 3710.dat
1 2 1320 -16 -50 1 0 0 0 1 0 0 0 1 3710.dat
1 2 1280 -16 -80 1 0 0 0 1 0 0 0 1 3022.dat
1 2 1200 -16 -80 1 0 0 0 1 0 0 0 1 3795.dat
1 2 1240 -16 -50 1 0 0 0 1 0 0 0 1 3710.dat
1 2 1160 -16 -50 1 0 0 0 1 0 0 0 1 3710.dat
1 2 1360 -16 -100 1 0 0 0 1 0 0 0 1 3032.dat
1 2 1140 -16 0 1 0 0 0 1 0 0 0 1 3032.dat
0 STEP
1 2 1380 -16 0 1 0 0 0 1 0 0 0 1 3032.dat
0 STEP
1 2 1260 -16 0 1 0 0 0 1 0 0 0 1 3032.dat
0 STEP
1 2 1580 -16 -720 0 0 -1 0 1 0 1 0 0 3032.dat
0 STEP
1 2 1580 -16 -910 1 0 0 0 1 0 0 0 1 3710.dat
1 2 1580 -16 -840 0 0 -1 0 1 0 1 0 0 3032.dat
0 STEP
1 70 1430 -40 -770 1 0 0 0 1 0 0 0 1 3062b.dat
1 70 1430 -64 -770 1 0 0 0 1 0 0 0 1 3062b.dat
1 288 1428 -72 -768 1 0 0 0 1 0 0 0 1 2417.dat
1 288 1428 -80 -768 0 0 -1 0 1 0 1 0 0 2417.dat
1 2 1426 -88 -750 1 0 0 0 1 0 0 0 1 2423.dat
0 STEP
1 70 1490 -40 -530 1 0 0 0 1 0 0 0 1 3062b.dat
1 70 1490 -64 -530 1 0 0 0 1 0 0 0 1 3062b.dat
1 288 1488 -72 -528 1 0 0 0 1 0 0 0 1 2417.dat
1 288 1488 -80 -528 0 0 -1 0 1 0 1 0 0 2417.dat
1 2 1486 -88 -510 1 0 0 0 1 0 0 0 1 2423.dat
0 STEP
1 70 1450 -40 -210 1 0 0 0 1 0 0 0 1 3062b.dat
1 70 1450 -64 -210 1 0 0 0 1 0 0 0 1 3062b.dat
1 288 1448 -72 -208 1 0 0 0 1 0 0 0 1 2417.dat
1 288 1448 -80 -208 0 0 -1 0 1 0 1 0 0 2417.dat
1 2 1446 -88 -190 1 0 0 0 1 0 0 0 1 2423.dat
0 STEP
1 72 1050 -64 -150 -1 0 0 0 1 0 0 0 -1 60481a.dat
0 STEP
1 72 910 -64 -150 -1 0 0 0 1 0 0 0 -1 60481a.dat
0 STEP
1 4 50 -24 -330 1 0 0 0 1 0 0 0 1 24866.dat
0 STEP
1 71 690 -232 -850 0 0 -1 0 1 0 1 0 0 2462.dat
1 71 630 -232 -850 1 0 0 0 1 0 0 0 1 2462.dat
1 71 690 -256 -850 0 0 -1 0 1 0 1 0 0 2462.dat
1 71 630 -256 -850 1 0 0 0 1 0 0 0 1 2462.dat
1 0 628 -264 -848 1 0 0 0 1 0 0 0 1 3957b.dat
0
0 NOFILE
0 FILE gatehouse.ldr
0 gatehouse
0 Name: gatehouse.ldr
0 Author: Brickworks

1 71 1140 -4 -440 1 0 0 0 1 0 0 0 1 4186.dat
0 STEP
1 2 880 -16 -100 1 0 0 0 1 0 0 0 1 3032.dat
0 STEP
1 28 880 -16 -220 1 0 0 0 1 0 0 0 1 3795.dat
0 STEP
1 28 660 -16 -300 1 0 0 0 1 0 0 0 1 3032.dat
0 STEP
1 19 660 -16 -130 1 0 0 0 1 0 0 0 1 6636.dat
1 19 660 -16 -110 1 0 0 0 1 0 0 0 1 6636.dat
1 19 660 -16 -90 1 0 0 0 1 0 0 0 1 6636.dat
1 19 660 -16 -50 1 0 0 0 1 0 0 0 1 6636.dat
1 19 660 -16 -30 1 0 0 0 1 0 0 0 1 6636.dat
1 72 590 -32 -140 0 0 -1 0 1 0 1 0 0 3008.dat
1 72 560 -32 -160 0 0 -1 0 1 0 1 0 0 3006.dat
1 72 520 -32 -160 0 0 -1 0 1 0 1 0 0 3006.dat
0 STEP
1 2 540 -16 -50 1 0 0 0 1 0 0 0 1 3710.dat
1 2 560 -16 0 0 0 -1 0 1 0 1 0 0 3020.dat
1 2 590 -16 0 0 0 -1 0 1 0 1 0 0 3710.dat
1 2 590 -16 -50 1 0 0 0 1 0 0 0 1 3024.dat
1 19 660 -16 30 1 0 0 0 1 0 0 0 1 6636.dat
1 19 660 -16 10 1 0 0 0 1 0 0 0 1 6636.dat
1 19 660 -16 -10 1 0 0 0 1 0 0 0 1 6636.dat
1 72 590 -40 -50 -1 0 0 0 1 0 0 0 -1 3040b.dat
0 STEP
1 71 660 -176 -70 1 0 0 0 1 0 0 0 1 40066.dat
0 STEP
1 19 660 -16 -230 1 0 0 0 1 0 0 0 1 6636.dat
1 19 660 -16 -210 1 0 0 0 1 0 0 0 1 6636.dat
1 19 660 -16 -190 1 0 0 0 1 0 0 0 1 6636.dat
1 19 660 -16 -170 1 0 0 0 1 0 0 0 1 6636.dat
1 19 660 -16 -150 1 0 0 0 1 0 0 0 1 6636.dat
1 72 590 -32 -240 0 0 -1 0 1 0 1 0 0 3004.dat
1 71 590 -56 -240 0 0 -1 0 1 0 1 0 0 3004.dat
1 71 590 -80 -240 0 0 -1 0 1 0 1 0 0 3004.dat
0 STEP
1 71 590 -104 -240 0 0 -1 0 1 0 1 0 0 3004.dat
1 71 590 -128 -240 0 0 -1 0 1 0 1 0 0 3004.dat
1 71 590 -152 -240 0 0 -1 0 1 0 1 0 0 3004.dat
1 71 590 -176 -240 0 0 -1 0 1 0 1 0 0 3004.dat
1 71 660 -176 -250 1 0 0 0 1 0 0 0 1 40066.dat
1 71 590 -184 -240 0 0 -1 0 1 0 1 0 0 3023b.dat
1 71 660 -184 -250 1 0 0 0 1 0 0 0 1 3666.dat
0 STEP
1 2 860 -16 -150 1 0 0 0 1 0 0 0 1 3710.dat
1 72 740 -32 -160 0 0 -1 0 1 0 1 0 0 3006.dat
1 72 780 -32 -160 0 0 -1 0 1 0 1 0 0 3006.dat
1 72 810 -32 -140 0 0 -1 0 1 0 1 0 0 3008.dat
1 72 920 -32 -180 1 0 0 0 1 0 0 0 1 3006.dat
1 71 920 -56 -180 1 0 0 0 1 0 0 0 1 3006.dat
1 71 920 -80 -180 1 0 0 0 1 0 0 0 1 3006.dat
1 71 920 -104 -180 1 0 0 0 1 0 0 0 1 3006.dat
0 STEP
1 28 860 -16 -250 1 0 0 0 1 0 0 0 1 3710.dat
1 28 780 -16 -300 1 0 0 0 1 0 0 0 1 3032.dat
1 72 810 -32 -240 0 0 -1 0 1 0 1 0 0 3004.dat
1 71 810 -56 -240 0 0 -1 0 1 0 1 0 0 3004.dat
1 71 810 -80 -240 0 0 -1 0 1 0 1 0 0 3004.dat
1 71 810 -104 -240 0 0 -1 0 1 0 1 0 0 3004.dat
1 71 810 -128 -240 0 0 -1 0 1 0 1 0 0 3004.dat
1 71 810 -152 -240 0 0 -1 0 1 0 1 0 0 3004.dat
0 STEP
1 2 760 -16 -50 1 0 0 0 1 0 0 0 1 3710.dat
1 2 840 -16 -50 1 0 0 0 1 0 0 0 1 3710.dat
1 2 780 -16 0 1 0 0 0 1 0 0 0 1 3032.dat
1 72 810 -40 -50 -1 0 0 0 1 0 0 0 -1 3040b.dat
1 72 790 -40 -50 -1 0 0 0 1 0 0 0 -1 3040b.dat
1 72 770 -40 -50 -1 0 0 0 1 0 0 0 -1 3040b.dat
1 72 750 -40 -50 -1 0 0 0 1 0 0 0 -1 3040b.dat
1 72 730 -40 -50 -1 0 0 0 1 0 0 0 -1 3040b.dat
0 STEP
1 72 510 -40 -50 -1 0 0 0 1 0 0 0 -1 3040b.dat
1 72 570 -40 -50 -1 0 0 0 1 0 0 0 -1 3040b.dat
1 72 530 -40 -50 -1 0 0 0 1 0 0 0 -1 3040b.dat
1 72 550 -40 -50 -1 0 0 0 1 0 0 0 -1 3040b.dat
0 STEP
1 71 590 -56 -140 0 0 -1 0 1 0 1 0 0 3008.dat
1 71 560 -56 -160 0 0 -1 0 1 0 1 0 0 3006.dat
1 71 520 -56 -160 0 0 -1 0 1 0 1 0 0 3006.dat
1 71 590 -80 -140 0 0 -1 0 1 0 1 0 0 3008.dat
1 71 560 -80 -160 0 0 -1 0 1 0 1 0 0 3006.dat
1 71 520 -80 -160 0 0 -1 0 1 0 1 0 0 3006.dat
1 71 520 -104 -160 0 0 -1 0 1 0 1 0 0 3006.dat
1 0 560 -104 -160 0 0 -1 0 1 0 1 0 0 3007.dat
0 STEP
1 71 740 -56 -160 0 0 -1 0 1 0 1 0 0 3006.dat
1 71 780 -56 -160 0 0 -1 0 1 0 1 0 0 3006.dat
1 71 810 -56 -140 0 0 -1 0 1 0 1 0 0 3008.dat
1 71 740 -80 -160 0 0 -1 0 1 0 1 0 0 3006.dat
1 71 780 -80 -160 0 0 -1 0 1 0 1 0 0 3006.dat
1 71 810 -80 -140 0 0 -1 0 1 0 1 0 0 3008.dat
1 71 740 -104 -160 0 0 -1 0 1 0 1 0 0 3006.dat
1 0 780 -104 -160 0 0 -1 0 1 0 1 0 0 3007.dat
0 STEP
1 0 730 -64 -50 1 0 0 0 1 0 0 0 1 3062b.dat
1 47 730 -88 -50 1 0 0 0 1 0 0 0 1 3062b.dat
1 71 790 -104 -70 1 0 0 0 1 0 0 0 1 3005.dat
1 71 810 -104 -140 0 0 -1 0 1 0 1 0 0 3008.dat
1 0 780 -128 -160 0 0 -1 0 1 0 1 0 0 3007.dat
1 71 740 -128 -160 0 0 -1 0 1 0 1 0 0 3006.dat
1 71 810 -128 -140 0 0 -1 0 1 0 1 0 0 3008.dat
1 71 740 -152 -160 0 0 -1 0 1 0 1 0 0 3006.dat
0 STEP
1 0 590 -64 -50 1 0 0 0 1 0 0 0 1 3062b.dat
1 47 590 -88 -50 1 0 0 0 1 0 0 0 1 3062b.dat
1 71 590 -104 -140 0 0 -1 0 1 0 1 0 0 3008.dat
1 71 570 -104 -70 1 0 0 0 1 0 0 0 1 3005.dat
1 0 560 -128 -160 0 0 -1 0 1 0 1 0 0 3007.dat
1 71 520 -128 -160 0 0 -1 0 1 0 1 0 0 3006.dat
1 71 590 -128 -140 0 0 -1 0 1 0 1 0 0 3008.dat
1 71 520 -152 -160 0 0 -1 0 1 0 1 0 0 3006.dat
0 STEP
1 71 560 -104 -250 1 0 0 0 1 0 0 0 1 3004.dat
1 71 560 -128 -250 1 0 0 0 1 0 0 0 1 3004.dat
0 STEP
1 71 780 -104 -250 1 0 0 0 1 0 0 0 1 3004.dat
1 71 780 -128 -250 1 0 0 0 1 0 0 0 1 3004.dat
1 71 810 -176 -240 0 0 -1 0 1 0 1 0 0 3004.dat
1 71 810 -184 -240 0 0 -1 0 1 0 1 0 0 3023b.dat
0 STEP
1 0 730 -112 -50 1 0 0 0 1 0 0 0 1 59900.dat
1 71 790 -128 -70 1 0 0 0 1 0 0 0 1 3005.dat
1 71 780 -152 -160 0 0 -1 0 1 0 1 0 0 3006.dat
1 71 810 -152 -140 0 0 -1 0 1 0 1 0 0 3008.dat
1 71 780 -176 -160 0 0 -1 0 1 0 1 0 0 3006.dat
1 71 740 -176 -160 0 0 -1 0 1 0 1 0 0 3006.dat
1 71 810 -176 -140 0 0 -1 0 1 0 1 0 0 3008.dat
1 71 760 -184 -120 0 0 -1 0 1 0 1 0 0 3032.dat
0 STEP
1 0 590 -112 -50 1 0 0 0 1 0 0 0 1 59900.dat
1 71 570 -128 -70 1 0 0 0 1 0 0 0 1 3005.dat
1 71 590 -152 -140 0 0 -1 0 1 0 1 0 0 3008.dat
1 71 560 -152 -160 0 0 -1 0 1 0 1 0 0 3006.dat
1 71 590 -176 -140 0 0 -1 0 1 0 1 0 0 3008.dat
1 71 560 -176 -160 0 0 -1 0 1 0 1 0 0 3006.dat
1 71 520 -176 -160 0 0 -1 0 1 0 1 0 0 3006.dat
1 71 540 -184 -120 0 0 -1 0 1 0 1 0 0 3032.dat
0 STEP
1 71 920 -128 -180 1 0 0 0 1 0 0 0 1 3006.dat
1 71 920 -152 -180 1 0 0 0 1 0 0 0 1 3006.dat
1 71 920 -176 -180 1 0 0 0 1 0 0 0 1 3006.dat
1 71 760 -184 -220 1 0 0 0 1 0 0 0 1 3031.dat
1 71 810 -184 -180 0 0 -1 0 1 0 1 0 0 3710.dat
1 72 780 -192 -220 1 0 0 0 1 0 0 0 1 3031.dat
1 71 920 -200 -180 1 0 0 0 1 0 0 0 1 3006.dat
1 72 860 -208 -190 1 0 0 0 1 0 0 0 1 2431.dat
0 STEP
1 71 810 -184 -100 0 0 -1 0 1 0 1 0 0 3710.dat
1 72 780 -192 -120 0 0 -1 0 1 0 1 0 0 3032.dat
1 71 800 -216 -160 0 0 -1 0 1 0 1 0 0 3007.dat
1 71 760 -216 -160 0 0 -1 0 1 0 1 0 0 3007.dat
1 71 840 -224 -170 1 0 0 0 1 0 0 0 1 3004.dat
1 71 760 -240 -160 0 0 -1 0 1 0 1 0 0 3007.dat
1 71 800 -240 -160 0 0 -1 0 1 0 1 0 0 3007.dat
1 71 760 -264 -160 0 0 -1 0 1 0 1 0 0 3007.dat
0 STEP
1 71 660 -184 -70 1 0 0 0 1 0 0 0 1 3666.dat
1 71 540 -184 -220 1 0 0 0 1 0 0 0 1 3031.dat
1 71 590 -184 -100 0 0 -1 0 1 0 1 0 0 3710.dat
1 71 590 -184 -180 0 0 -1 0 1 0 1 0 0 3710.dat
1 72 560 -192 -100 1 0 0 0 1 0 0 0 1 3032.dat
1 72 560 -192 -180 1 0 0 0 1 0 0 0 1 3032.dat
1 72 560 -192 -240 1 0 0 0 1 0 0 0 1 3795.dat
0 STEP
1 72 680 -192 -240 1 0 0 0 1 0 0 0 1 3795.dat
1 72 680 -192 -180 1 0 0 0 1 0 0 0 1 3032.dat
1 72 680 -192 -100 1 0 0 0 1 0 0 0 1 3032.dat
1 71 740 -216 -250 1 0 0 0 1 0 0 0 1 3008.dat
1 71 800 -240 -250 1 0 0 0 1 0 0 0 1 3004.dat
1 71 690 -240 -250 1 0 0 0 1 0 0 0 1 3005.dat
1 71 720 -240 -250 1 0 0 0 1 0 0 0 1 3004.dat
1 71 770 -240 -250 1 0 0 0 1 0 0 0 1 3005.dat
0 STEP
1 71 720 -216 -160 0 0 -1 0 1 0 1 0 0 3007.dat
1 72 840 -232 -170 1 0 0 0 1 0 0 0 1 3069b.dat
1 71 720 -240 -160 0 0 -1 0 1 0 1 0 0 3007.dat
1 71 800 -264 -160 0 0 -1 0 1 0 1 0 0 3007.dat
1 71 720 -264 -160 0 0 -1 0 1 0 1 0 0 3007.dat
1 71 800 -288 -160 0 0 -1 0 1 0 1 0 0 3007.dat
1 71 760 -288 -160 0 0 -1 0 1 0 1 0 0 3007.dat
1 71 720 -288 -160 0 0 -1 0 1 0 1 0 0 3007.dat
0 STEP
1 71 740 -216 -70 1 0 0 0 1 0 0 0 1 3008.dat
1 71 710 -240 -70 1 0 0 0 1 0 0 0 1 3622.dat
1 71 800 -240 -70 1 0 0 0 1 0 0 0 1 3004.dat
1 71 760 -264 -70 1 0 0 0 1 0 0 0 1 90195.dat
1 71 800 -264 -70 1 0 0 0 1 0 0 0 1 3004.dat
0 STEP
1 71 580 -216 -70 1 0 0 0 1 0 0 0 1 3008.dat
1 71 580 -216 -250 1 0 0 0 1 0 0 0 1 3008.dat
1 71 600 -216 -220 1 0 0 0 1 0 0 0 1 3006.dat
1 71 600 -216 -100 1 0 0 0 1 0 0 0 1 3006.dat
1 71 600 -216 -140 1 0 0 0 1 0 0 0 1 3006.dat
1 71 600 -216 -180 1 0 0 0 1 0 0 0 1 3006.dat
1 71 600 -240 -250 1 0 0 0 1 0 0 0 1 3004.dat
1 71 600 -240 -220 1 0 0 0 1 0 0 0 1 3006.dat
0 STEP
1 71 600 -240 -100 1 0 0 0 1 0 0 0 1 3006.dat
1 71 600 -240 -140 1 0 0 0 1 0 0 0 1 3006.dat
1 71 600 -240 -180 1 0 0 0 1 0 0 0 1 3006.dat
1 71 610 -240 -70 1 0 0 0 1 0 0 0 1 3622.dat
1 71 520 -240 -70 1 0 0 0 1 0 0 0 1 3004.dat
1 71 520 -264 -70 1 0 0 0 1 0 0 0 1 3004.dat
1 71 560 -264 -70 1 0 0 0 1 0 0 0 1 90195.dat
0 STEP
1 71 550 -240 -250 1 0 0 0 1 0 0 0 1 3005.dat
1 71 520 -240 -250 1 0 0 0 1 0 0 0 1 3004.dat
1 71 630 -240 -250 1 0 0 0 1 0 0 0 1 3005.dat
1 71 660 -264 -70 1 0 0 0 1 0 0 0 1 90195.dat
1 71 610 -264 -70 1 0 0 0 1 0 0 0 1 3622.dat
1 71 600 -264 -180 1 0 0 0 1 0 0 0 1 3006.dat
1 71 600 -264 -140 1 0 0 0 1 0 0 0 1 3006.dat
1 71 600 -264 -100 1 0 0 0 1 0 0 0 1 3006.dat
0 STEP
1 71 610 -264 -250 1 0 0 0 1 0 0 0 1 3005.dat
1 72 570 -264 -250 1 0 0 0 1 0 0 0 1 4490.dat
1 71 520 -264 -250 1 0 0 0 1 0 0 0 1 3004.dat
1 72 660 -264 -250 1 0 0 0 1 0 0 0 1 3659.dat
1 71 710 -264 -250 1 0 0 0 1 0 0 0 1 3005.dat
1 71 600 -264 -220 1 0 0 0 1 0 0 0 1 3006.dat
1 72 750 -264 -250 1 0 0 0 1 0 0 0 1 4490.dat
1 71 800 -264 -250 1 0 0 0 1 0 0 0 1 3004.dat
0 STEP
1 71 710 -264 -70 1 0 0 0 1 0 0 0 1 3622.dat
1 71 600 -288 -100 1 0 0 0 1 0 0 0 1 3006.dat
1 71 600 -288 -140 1 0 0 0 1 0 0 0 1 3006.dat
1 71 600 -288 -180 1 0 0 0 1 0 0 0 1 3006.dat
1 71 660 -288 -70 1 0 0 0 1 0 0 0 1 3010.dat
1 71 600 -288 -220 1 0 0 0 1 0 0 0 1 3006.dat
1 71 580 -288 -250 1 0 0 0 1 0 0 0 1 3008.dat
1 72 560 -296 -240 1 0 0 0 1 0 0 0 1 3795.dat
0 STEP
1 71 560 -288 -70 1 0 0 0 1 0 0 0 1 3009.dat
1 72 560 -296 -180 1 0 0 0 1 0 0 0 1 3032.dat
1 72 560 -296 -100 1 0 0 0 1 0 0 0 1 3032.dat
1 72 560 -304 -180 1 0 0 0 1 0 0 0 1 3068b.dat
1 72 510 -304 -120 0 0 -1 0 1 0 1 0 0 3069b.dat
1 72 530 -304 -160 0 0 -1 0 1 0 1 0 0 6636.dat
1 71 520 -320 -80 1 0 0 0 1 0 0 0 1 3003.dat
1 71 510 -320 -160 0 0 -1 0 1 0 1 0 0 3004.dat
0 STEP
1 71 760 -288 -70 1 0 0 0 1 0 0 0 1 3009.dat
1 72 780 -296 -120 0 0 -1 0 1 0 1 0 0 3032.dat
1 72 810 -304 -120 0 0 -1 0 1 0 1 0 0 3069b.dat
1 72 760 -304 -100 1 0 0 0 1 0 0 0 1 3068b.dat
1 72 760 -304 -140 1 0 0 0 1 0 0 0 1 3068b.dat
1 72 770 -304 -70 1 0 0 0 1 0 0 0 1 3070b.dat
1 71 800 -320 -80 1 0 0 0 1 0 0 0 1 3003.dat
1 71 810 -320 -160 0 0 -1 0 1 0 1 0 0 3004.dat
0 STEP
1 71 740 -288 -250 1 0 0 0 1 0 0 0 1 3008.dat
1 72 780 -296 -220 1 0 0 0 1 0 0 0 1 3031.dat
1 72 810 -304 -200 0 0 -1 0 1 0 1 0 0 3069b.dat
1 72 790 -304 -160 0 0 -1 0 1 0 1 0 0 6636.dat
1 72 760 -304 -220 1 0 0 0 1 0 0 0 1 3068b.dat
1 72 760 -304 -180 1 0 0 0 1 0 0 0 1 3068b.dat
1 72 770 -304 -250 1 0 0 0 1 0 0 0 1 3070b.dat
1 71 800 -320 -240 1 0 0 0 1 0 0 0 1 3003.dat
0 STEP
1 72 680 -296 -180 1 0 0 0 1 0 0 0 1 3032.dat
1 72 680 -296 -240 1 0 0 0 1 0 0 0 1 3795.dat
1 72 720 -304 -220 1 0 0 0 1 0 0 0 1 3068b.dat
1 72 680 -304 -220 1 0 0 0 1 0 0 0 1 3068b.dat
1 72 720 -304 -180 1 0 0 0 1 0 0 0 1 3068b.dat
1 72 700 -304 -250 1 0 0 0 1 0 0 0 1 3069b.dat
1 72 680 -304 -180 1 0 0 0 1 0 0 0 1 3068b.dat
1 71 740 -320 -250 1 0 0 0 1 0 0 0 1 3004.dat
0 STEP
1 72 680 -296 -100 1 0 0 0 1 0 0 0 1 3032.dat
1 72 690 -304 -140 0 0 -1 0 1 0 1 0 0 3069b.dat
1 72 720 -304 -140 1 0 0 0 1 0 0 0 1 3068b.dat
1 72 700 -304 -70 1 0 0 0 1 0 0 0 1 3069b.dat
1 72 720 -304 -100 1 0 0 0 1 0 0 0 1 3068b.dat
1 72 680 -304 -100 1 0 0 0 1 0 0 0 1 3068b.dat
1 71 740 -320 -70 1 0 0 0 1 0 0 0 1 3004.dat
1 72 660 -320 -140 1 0 0 0 1 0 0 0 1 3941.dat
0 STEP
1 72 620 -304 -70 1 0 0 0 1 0 0 0 1 3069b.dat
1 72 600 -304 -100 1 0 0 0 1 0 0 0 1 3068b.dat
1 72 640 -304 -100 1 0 0 0 1 0 0 0 1 3068b.dat
1 72 550 -304 -70 1 0 0 0 1 0 0 0 1 3070b.dat
1 72 600 -304 -140 1 0 0 0 1 0 0 0 1 3068b.dat
1 72 630 -304 -140 0 0 -1 0 1 0 1 0 0 3069b.dat
1 71 660 -320 -70 1 0 0 0 1 0 0 0 1 3004.dat
1 71 580 -320 -70 1 0 0 0 1 0 0 0 1 3004.dat
0 STEP
1 70 600 -304 -220 1 0 0 0 1 0 0 0 1 3022.dat
1 72 560 -304 -100 1 0 0 0 1 0 0 0 1 3068b.dat
1 72 560 -304 -140 1 0 0 0 1 0 0 0 1 3068b.dat
1 72 640 -304 -220 1 0 0 0 1 0 0 0 1 3068b.dat
1 72 600 -304 -180 1 0 0 0 1 0 0 0 1 3068b.dat
1 72 640 -304 -180 1 0 0 0 1 0 0 0 1 3068b.dat
1 72 620 -304 -250 1 0 0 0 1 0 0 0 1 3069b.dat
1 71 580 -320 -250 1 0 0 0 1 0 0 0 1 3004.dat
0 STEP
1 72 550 -304 -250 1 0 0 0 1 0 0 0 1 3070b.dat
1 72 510 -304 -200 0 0 -1 0 1 0 1 0 0 3069b.dat
1 72 560 -304 -220 1 0 0 0 1 0 0 0 1 3068b.dat
1 71 520 -320 -240 1 0 0 0 1 0 0 0 1 3003.dat
1 72 510 -328 -160 0 0 -1 0 1 0 1 0 0 3069b.dat
0 STEP
1 0 600 -312 -210 1 0 0 0 1 0 0 0 1 2540.dat
1 71 660 -320 -250 1 0 0 0 1 0 0 0 1 3004.dat
1 72 580 -328 -250 1 0 0 0 1 0 0 0 1 3069b.dat
1 71 520 -344 -240 1 0 0 0 1 0 0 0 1 3003.dat
1 72 520 -392 -240 1 0 0 0 1 0 0 0 1 3688.dat
1 297 520 -416 -240 1 0 0 0 1 0 0 0 1 59900.dat
0 STEP
1 72 660 -328 -250 1 0 0 0 1 0 0 0 1 3069b.dat
1 72 740 -328 -250 1 0 0 0 1 0 0 0 1 3069b.dat
1 71 800 -344 -240 1 0 0 0 1 0 0 0 1 3003.dat
1 72 800 -392 -240 1 0 0 0 1 0 0 0 1 3688.dat
1 297 800 -416 -240 1 0 0 0 1 0 0 0 1 59900.dat
0 STEP
1 72 810 -328 -160 0 0 -1 0 1 0 1 0 0 3069b.dat
0 STEP
1 72 660 -328 -70 1 0 0 0 1 0 0 0 1 3069b.dat
1 72 740 -328 -70 1 0 0 0 1 0 0 0 1 3069b.dat
1 0 660 -328 -140 1 0 0 0 1 0 0 0 1 4032a.dat
1 36 650 -336 -130 1 0 0 0 1 0 0 0 1 6141.dat
1 36 670 -336 -130 1 0 0 0 1 0 0 0 1 6141.dat
1 36 650 -336 -150 1 0 0 0 1 0 0 0 1 6141.dat
1 36 670 -336 -150 1 0 0 0 1 0 0 0 1 6141.dat
1 71 800 -344 -80 1 0 0 0 1 0 0 0 1 3003.dat
0 STEP
1 72 580 -328 -70 1 0 0 0 1 0 0 0 1 3069b.dat
1 71 520 -344 -80 1 0 0 0 1 0 0 0 1 3003.dat
1 72 520 -392 -80 1 0 0 0 1 0 0 0 1 3688.dat
1 297 520 -416 -80 1 0 0 0 1 0 0 0 1 59900.dat
0 STEP
1 72 800 -392 -80 1 0 0 0 1 0 0 0 1 3688.dat
1 297 800 -416 -80 1 0 0 0 1 0 0 0 1 59900.dat
0
0 NOFILE
0 FILE front_left_tower.ldr
0 front-left tower
0 Name: front_left_tower.ldr
0 Author: Brickworks

1 2 40 -16 -320 0 0 -1 0 1 0 1 0 0 3795.dat
0 STEP
1 2 70 -16 -300 0 0 -1 0 1 0 1 0 0 3710.dat
1 72 100 -32 -360 0 0 -1 0 1 0 1 0 0 3006.dat
1 71 100 -56 -360 0 0 -1 0 1 0 1 0 0 3006.dat
1 71 100 -80 -360 0 0 -1 0 1 0 1 0 0 3006.dat
1 71 100 -104 -360 0 0 -1 0 1 0 1 0 0 3006.dat
1 71 100 -128 -360 0 0 -1 0 1 0 1 0 0 3006.dat
1 71 100 -152 -360 0 0 -1 0 1 0 1 0 0 3006.dat
1 71 100 -176 -360 0 0 -1 0 1 0 1 0 0 3006.dat
0 STEP
1 28 240 -16 -220 1 0 0 0 1 0 0 0 1 3795.dat
1 28 180 -16 -300 1 0 0 0 1 0 0 0 1 3032.dat
1 28 220 -16 -250 1 0 0 0 1 0 0 0 1 3710.dat
1 2 220 -16 -150 1 0 0 0 1 0 0 0 1 3710.dat
1 72 280 -32 -180 1 0 0 0 1 0 0 0 1 3006.dat
1 71 280 -56 -180 1 0 0 0 1 0 0 0 1 3006.dat
1 71 280 -80 -180 1 0 0 0 1 0 0 0 1 3006.dat
1 71 280 -104 -180 1 0 0 0 1 0 0 0 1 3006.dat
0 STEP
1 72 180 -32 -260 -1 0 0 0 1 0 0 0 -1 48092.dat
1 72 100 -32 -180 0 0 1 0 1 0 -1 0 0 48092.dat
1 72 160 -56 -230 1 0 0 0 1 0 0 0 1 3678b.dat
1 71 100 -56 -180 0 0 1 0 1 0 -1 0 0 48092.dat
1 71 180 -56 -260 -1 0 0 0 1 0 0 0 -1 48092.dat
1 71 100 -80 -180 0 0 1 0 1 0 -1 0 0 48092.dat
1 71 180 -80 -260 -1 0 0 0 1 0 0 0 -1 48092.dat
1 71 100 -104 -180 0 0 1 0 1 0 -1 0 0 48092.dat
0 STEP
1 72 20 -32 -100 1 0 0 0 1 0 0 0 1 48092.dat
1 71 20 -56 -100 1 0 0 0 1 0 0 0 1 48092.dat
1 72 40 -56 -130 -1 0 0 0 1 0 0 0 -1 3678b.dat
1 71 20 -80 -100 1 0 0 0 1 0 0 0 1 48092.dat
1 71 20 -104 -100 1 0 0 0 1 0 0 0 1 48092.dat
1 71 20 -128 -100 1 0 0 0 1 0 0 0 1 48092.dat
1 71 20 -152 -100 1 0 0 0 1 0 0 0 1 48092.dat
1 71 20 -176 -100 1 0 0 0 1 0 0 0 1 48092.dat
0 STEP
1 72 100 -32 -180 0 0 -1 0 1 0 1 0 0 48092.dat
1 71 100 -56 -180 0 0 -1 0 1 0 1 0 0 48092.dat
1 71 100 -80 -180 0 0 -1 0 1 0 1 0 0 48092.dat
1 71 100 -104 -180 0 0 -1 0 1 0 1 0 0 48092.dat
1 71 100 -128 -180 0 0 -1 0 1 0 1 0 0 48092.dat
1 71 100 -152 -180 0 0 -1 0 1 0 1 0 0 48092.dat
1 71 100 -176 -180 0 0 -1 0 1 0 1 0 0 48092.dat
0 STEP
1 71 180 -104 -260 -1 0 0 0 1 0 0 0 -1 48092.dat
1 71 180 -128 -260 -1 0 0 0 1 0 0 0 -1 48092.dat
1 71 100 -128 -180 0 0 1 0 1 0 -1 0 0 48092.dat
1 71 180 -152 -260 -1 0 0 0 1 0 0 0 -1 48092.dat
1 71 100 -152 -180 0 0 1 0 1 0 -1 0 0 48092.dat
1 71 100 -176 -180 0 0 1 0 1 0 -1 0 0 48092.dat
1 71 180 -176 -260 -1 0 0 0 1 0 0 0 -1 48092.dat
0 STEP
1 71 280 -128 -180 1 0 0 0 1 0 0 0 1 3006.dat
1 71 280 -152 -180 1 0 0 0 1 0 0 0 1 3006.dat
1 71 280 -176 -180 1 0 0 0 1 0 0 0 1 3006.dat
1 71 280 -200 -180 1 0 0 0 1 0 0 0 1 3006.dat
0 STEP
1 71 20 -320 -100 1 0 0 0 1 0 0 0 1 30562.dat
1 71 100 -320 -180 0 0 -1 0 1 0 1 0 0 30562.dat
1 71 180 -320 -260 -1 0 0 0 1 0 0 0 -1 30562.dat
1 71 100 -320 -180 0 0 1 0 1 0 -1 0 0 30562.dat
0 STEP
1 71 100 -200 -360 0 0 -1 0 1 0 1 0 0 3006.dat
1 72 110 -208 -300 0 0 -1 0 1 0 1 0 0 2431.dat
1 72 90 -208 -280 0 0 -1 0 1 0 1 0 0 3069b.dat
0 STEP
1 72 200 -208 -170 1 0 0 0 1 0 0 0 1 3069b.dat
1 72 200 -208 -190 1 0 0 0 1 0 0 0 1 3069b.dat
0 STEP
1 72 100 -344 -180 0 0 -1 0 1 0 1 0 0 48092.dat
1 72 20 -344 -100 1 0 0 0 1 0 0 0 1 48092.dat
1 71 100 -368 -180 0 0 -1 0 1 0 1 0 0 48092.dat
1 71 20 -368 -100 1 0 0 0 1 0 0 0 1 48092.dat
1 71 100 -392 -110 1 0 0 0 1 0 0 0 1 3004.dat
1 71 150 -392 -130 1 0 0 0 1 0 0 0 1 3005.dat
1 72 100 -400 -110 1 0 0 0 1 0 0 0 1 3069b.dat
1 72 150 -400 -130 1 0 0 0 1 0 0 0 1 3070b.dat
0 STEP
1 72 100 -344 -180 0 0 1 0 1 0 -1 0 0 48092.dat
1 72 180 -344 -260 -1 0 0 0 1 0 0 0 -1 48092.dat
1 71 180 -368 -260 -1 0 0 0 1 0 0 0 -1 48092.dat
1 71 100 -368 -180 0 0 1 0 1 0 -1 0 0 48092.dat
1 72 100 -376 -180 1 0 0 0 1 0 0 0 1 60474.dat
1 71 50 -392 -230 1 0 0 0 1 0 0 0 1 3005.dat
1 71 100 -392 -250 1 0 0 0 1 0 0 0 1 3004.dat
1 71 30 -392 -180 0 0 -1 0 1 0 1 0 0 3004.dat
0 STEP
1 72 70 -376 -190 0 0 1 0 1 0 -1 0 0 54200.dat
1 72 130 -376 -180 0 0 -1 0 1 0 1 0 0 85984.dat
1 72 100 -384 -210 1 0 0 0 1 0 0 0 1 15573.dat
1 297 100 -392 -210 1 0 0 0 1 0 0 0 1 85861.dat
1 71 170 -392 -180 0 0 -1 0 1 0 1 0 0 3004.dat
1 72 100 -400 -180 1 0 0 0 1 0 0 0 1 98100.dat
1 72 100 -400 -150 1 0 0 0 1 0 0 0 1 3937.dat
1 70 70 -400 -170 0 0 1 0 1 0 -1 0 0 4070.dat
0 STEP
1 72 100 -400 -250 1 0 0 0 1 0 0 0 1 3069b.dat
1 72 30 -400 -180 0 0 -1 0 1 0 1 0 0 3069b.dat
1 72 50 -400 -230 1 0 0 0 1 0 0 0 1 3070b.dat
0 STEP
1 72 170 -400 -180 0 0 -1 0 1 0 1 0 0 3069b.dat
0 STEP
1 70 100 -520 -180 1 0 0 0 1 0 0 0 1 2453a.dat
1 297 100 -544 -180 1 0 0 0 1 0 0 0 1 59900.dat
0
0 NOFILE
0 FILE front_curtain_walls.ldr
0 front curtain walls
0 Name: front_curtain_walls.ldr
0 Author: Brickworks

1 72 360 -208 -170 1 0 0 0 1 0 0 0 1 3069b.dat
1 72 280 -208 -170 1 0 0 0 1 0 0 0 1 3069b.dat
1 71 320 -224 -170 1 0 0 0 1 0 0 0 1 3004.dat
1 71 240 -224 -170 1 0 0 0 1 0 0 0 1 3004.dat
1 72 240 -232 -170 1 0 0 0 1 0 0 0 1 3069b.dat
1 72 320 -232 -170 1 0 0 0 1 0 0 0 1 3069b.dat
0 STEP
1 28 360 -16 -220 1 0 0 0 1 0 0 0 1 3795.dat
0 STEP
1 28 460 -16 -220 1 0 0 0 1 0 0 0 1 3020.dat
1 72 440 -32 -180 1 0 0 0 1 0 0 0 1 2456.dat
1 71 440 -56 -180 1 0 0 0 1 0 0 0 1 2456.dat
1 71 440 -80 -180 1 0 0 0 1 0 0 0 1 2456.dat
1 71 440 -104 -180 1 0 0 0 1 0 0 0 1 2456.dat
1 71 440 -128 -180 1 0 0 0 1 0 0 0 1 2456.dat
1 71 440 -152 -180 1 0 0 0 1 0 0 0 1 2456.dat
1 71 440 -176 -180 1 0 0 0 1 0 0 0 1 2456.dat
0 STEP
1 28 1000 -16 -220 1 0 0 0 1 0 0 0 1 3795.dat
0 STEP
1 28 1100 -16 -220 1 0 0 0 1 0 0 0 1 3020.dat
1 72 1080 -32 -180 1 0 0 0 1 0 0 0 1 2456.dat
1 71 1080 -56 -180 1 0 0 0 1 0 0 0 1 2456.dat
1 71 1040 -64 -210 1 0 0 0 1 0 0 0 1 15254.dat
1 71 1080 -80 -180 1 0 0 0 1 0 0 0 1 2456.dat
1 71 1080 -104 -180 1 0 0 0 1 0 0 0 1 2456.dat
1 71 1080 -128 -180 1 0 0 0 1 0 0 0 1 2456.dat
1 71 1080 -152 -180 1 0 0 0 1 0 0 0 1 2456.dat
0 STEP
1 71 1080 -176 -180 1 0 0 0 1 0 0 0 1 2456.dat
1 71 1080 -200 -180 1 0 0 0 1 0 0 0 1 2456.dat
1 72 1100 -208 -190 1 0 0 0 1 0 0 0 1 2431.dat
1 72 1040 -208 -170 1 0 0 0 1 0 0 0 1 3069b.dat
1 72 1120 -208 -170 1 0 0 0 1 0 0 0 1 3069b.dat
1 71 1080 -224 -170 1 0 0 0 1 0 0 0 1 3004.dat
1 72 1080 -232 -170 1 0 0 0 1 0 0 0 1 3069b.dat
0 STEP
1 71 440 -200 -180 1 0 0 0 1 0 0 0 1 2456.dat
1 72 440 -208 -170 1 0 0 0 1 0 0 0 1 3069b.dat
1 72 460 -208 -190 1 0 0 0 1 0 0 0 1 2431.dat
1 71 480 -224 -170 1 0 0 0 1 0 0 0 1 3004.dat
1 71 400 -224 -170 1 0 0 0 1 0 0 0 1 3004.dat
1 72 400 -232 -170 1 0 0 0 1 0 0 0 1 3069b.dat
1 72 480 -232 -170 1 0 0 0 1 0 0 0 1 3069b.dat
0 STEP
1 70 320 -208 -190 1 0 0 0 1 0 0 0 1 4477.dat
0 STEP
1 71 920 -64 -210 1 0 0 0 1 0 0 0 1 15254.dat
1 70 960 -72 -220 1 0 0 0 1 0 0 0 1 3832.dat
0 STEP
1 72 940 -208 -190 1 0 0 0 1 0 0 0 1 2431.dat
1 72 1020 -208 -190 1 0 0 0 1 0 0 0 1 2431.dat
1 72 880 -208 -170 1 0 0 0 1 0 0 0 1 3069b.dat
1 72 960 -208 -170 1 0 0 0 1 0 0 0 1 3069b.dat
1 71 1000 -224 -170 1 0 0 0 1 0 0 0 1 3004.dat
1 71 920 -224 -170 1 0 0 0 1 0 0 0 1 3004.dat
1 72 1000 -232 -170 1 0 0 0 1 0 0 0 1 3069b.dat
1 72 920 -232 -170 1 0 0 0 1 0 0 0 1 3069b.dat
0
0 NOFILE
0 FILE courtyard.ldr
0 courtyard
0 Name: courtyard.ldr
0 Author: Brickworks

1 28 900 -16 -620 1 0 0 0 1 0 0 0 1 3032.dat
1 28 900 -16 -540 1 0 0 0 1 0 0 0 1 3032.dat
1 28 900 -16 -460 1 0 0 0 1 0 0 0 1 3032.dat
1 28 900 -16 -380 1 0 0 0 1 0 0 0 1 3032.dat
1 28 900 -16 -300 1 0 0 0 1 0 0 0 1 3032.dat
1 28 900 -16 -680 1 0 0 0 1 0 0 0 1 3795.dat
1 28 840 -16 -720 1 0 0 0 1 0 0 0 1 3795.dat
1 28 940 -16 -250 1 0 0 0 1 0 0 0 1 3710.dat
0 STEP
1 28 720 -16 -720 1 0 0 0 1 0 0 0 1 3795.dat
1 28 600 -16 -720 1 0 0 0 1 0 0 0 1 3795.dat
1 28 480 -16 -720 1 0 0 0 1 0 0 0 1 3795.dat
1 28 540 -16 -750 1 0 0 0 1 0 0 0 1 3710.dat
1 28 620 -16 -750 1 0 0 0 1 0 0 0 1 3710.dat
1 28 700 -16 -750 1 0 0 0 1 0 0 0 1 3710.dat
1 28 780 -16 -750 1 0 0 0 1 0 0 0 1 3710.dat
1 28 860 -16 -750 1 0 0 0 1 0 0 0 1 3710.dat
0 STEP
1 28 300 -16 -620 1 0 0 0 1 0 0 0 1 3032.dat
1 28 380 -16 -750 1 0 0 0 1 0 0 0 1 3710.dat
1 28 460 -16 -750 1 0 0 0 1 0 0 0 1 3710.dat
1 28 300 -16 -750 1 0 0 0 1 0 0 0 1 3710.dat
1 28 300 -16 -680 1 0 0 0 1 0 0 0 1 3795.dat
1 28 300 -16 -460 1 0 0 0 1 0 0 0 1 3032.dat
1 28 300 -16 -540 1 0 0 0 1 0 0 0 1 3032.dat
1 28 360 -16 -720 1 0 0 0 1 0 0 0 1 3795.dat
0 STEP
1 28 300 -16 -300 1 0 0 0 1 0 0 0 1 3032.dat
1 28 420 -16 -300 1 0 0 0 1 0 0 0 1 3032.dat
1 28 300 -16 -380 1 0 0 0 1 0 0 0 1 3032.dat
1 28 300 -16 -250 1 0 0 0 1 0 0 0 1 3710.dat
1 28 380 -16 -250 1 0 0 0 1 0 0 0 1 3710.dat
1 28 460 -16 -250 1 0 0 0 1 0 0 0 1 3710.dat
0 STEP
1 28 540 -16 -680 1 0 0 0 1 0 0 0 1 3795.dat
1 28 540 -16 -300 1 0 0 0 1 0 0 0 1 3032.dat
1 28 540 -16 -380 1 0 0 0 1 0 0 0 1 3032.dat
1 28 540 -16 -460 1 0 0 0 1 0 0 0 1 3032.dat
1 28 540 -16 -540 1 0 0 0 1 0 0 0 1 3032.dat
1 28 540 -16 -620 1 0 0 0 1 0 0 0 1 3032.dat
1 19 540 -40 -730 1 0 0 0 1 0 0 0 1 3009.dat
0 STEP
1 28 420 -16 -460 1 0 0 0 1 0 0 0 1 3032.dat
1 28 420 -16 -380 1 0 0 0 1 0 0 0 1 3032.dat
1 28 420 -16 -680 1 0 0 0 1 0 0 0 1 3795.dat
1 28 420 -16 -540 1 0 0 0 1 0 0 0 1 3032.dat
1 28 420 -16 -620 1 0 0 0 1 0 0 0 1 3032.dat
0 STEP
1 28 660 -16 -460 1 0 0 0 1 0 0 0 1 3032.dat
1 28 660 -16 -380 1 0 0 0 1 0 0 0 1 3032.dat
1 28 660 -16 -680 1 0 0 0 1 0 0 0 1 3795.dat
1 28 660 -16 -540 1 0 0 0 1 0 0 0 1 3032.dat
1 28 660 -16 -620 1 0 0 0 1 0 0 0 1 3032.dat
1 70 680 -56 -720 1 0 0 0 1 0 0 0 1 2489.dat
1 70 640 -56 -720 1 0 0 0 1 0 0 0 1 2489.dat
1 70 640 -56 -680 1 0 0 0 1 0 0 0 1 2489.dat
0 STEP
1 28 780 -16 -460 1 0 0 0 1 0 0 0 1 3032.dat
1 28 780 -16 -380 1 0 0 0 1 0 0 0 1 3032.dat
1 28 780 -16 -680 1 0 0 0 1 0 0 0 1 3795.dat
1 28 780 -16 -620 1 0 0 0 1 0 0 0 1 3032.dat
1 28 780 -16 -540 1 0 0 0 1 0 0 0 1 3032.dat
1 70 720 -56 -400 1 0 0 0 1 0 0 0 1 2489.dat
1 70 760 -56 -400 1 0 0 0 1 0 0 0 1 2489.dat
1 70 690 -136 -420 0 0 -1 0 1 0 1 0 0 2454a.dat
0 STEP
1 28 1140 -16 -380 1 0 0 0 1 0 0 0 1 3032.dat
1 28 1140 -16 -460 1 0 0 0 1 0 0 0 1 3032.dat
1 28 1020 -16 -300 1 0 0 0 1 0 0 0 1 3032.dat
1 28 1020 -16 -380 1 0 0 0 1 0 0 0 1 3032.dat
1 28 1140 -16 -300 1 0 0 0 1 0 0 0 1 3032.dat
1 28 1140 -16 -540 1 0 0 0 1 0 0 0 1 3032.dat
1 28 1020 -16 -250 1 0 0 0 1 0 0 0 1 3710.dat
1 28 1100 -16 -250 1 0 0 0 1 0 0 0 1 3710.dat
0 STEP
1 28 960 -16 -720 1 0 0 0 1 0 0 0 1 3795.dat
1 28 1080 -16 -720 1 0 0 0 1 0 0 0 1 3795.dat
1 28 1140 -16 -680 1 0 0 0 1 0 0 0 1 3795.dat
1 28 1140 -16 -620 1 0 0 0 1 0 0 0 1 3032.dat
1 28 1100 -16 -750 1 0 0 0 1 0 0 0 1 3710.dat
1 28 1020 -16 -750 1 0 0 0 1 0 0 0 1 3710.dat
1 28 940 -16 -750 1 0 0 0 1 0 0 0 1 3710.dat
0 STEP
1 28 1020 -16 -680 1 0 0 0 1 0 0 0 1 3795.dat
1 28 1020 -16 -620 1 0 0 0 1 0 0 0 1 3032.dat
1 28 1020 -16 -540 1 0 0 0 1 0 0 0 1 3032.dat
1 28 1020 -16 -460 1 0 0 0 1 0 0 0 1 3032.dat
0 STEP
1 0 1110 -40 -570 1 0 0 0 1 0 0 0 1 3005.dat
1 70 1110 -40 -630 1 0 0 0 1 0 0 0 1 3005.dat
1 70 1170 -40 -630 1 0 0 0 1 0 0 0 1 3005.dat
1 72 1160 -40 -520 1 0 0 0 1 0 0 0 1 3003.dat
1 0 1120 -48 -570 1 0 0 0 1 0 0 0 1 35480.dat
1 70 1140 -48 -630 1 0 0 0 1 0 0 0 1 41740.dat
1 0 1160 -64 -520 1 0 0 0 1 0 0 0 1 92947.dat
1 70 1130 -88 -670 1 0 0 0 1 0 0 0 1 14716.dat
0 STEP
1 72 1040 -40 -740 1 0 0 0 1 0 0 0 1 3007.dat
1 72 1090 -64 -740 1 0 0 0 1 0 0 0 1 3002.dat
1 72 1020 -64 -740 1 0 0 0 1 0 0 0 1 3001.dat
1 72 1060 -88 -740 1 0 0 0 1 0 0 0 1 2456.dat
1 72 1040 -112 -740 1 0 0 0 1 0 0 0 1 3003.dat
1 72 1090 -112 -740 1 0 0 0 1 0 0 0 1 3002.dat
1 72 1080 -136 -740 1 0 0 0 1 0 0 0 1 3001.dat
1 72 1090 -160 -740 1 0 0 0 1 0 0 0 1 3002.dat
0 STEP
1 1 840 -24 -480 1 0 0 0 1 0 0 0 1 3068b.dat
1 72 870 -40 -480 0 0 -1 0 1 0 1 0 0 3004.dat
1 72 810 -40 -480 0 0 -1 0 1 0 1 0 0 3004.dat
1 72 840 -40 -510 1 0 0 0 1 0 0 0 1 3010.dat
1 72 840 -40 -450 1 0 0 0 1 0 0 0 1 3010.dat
1 72 870 -64 -480 0 0 -1 0 1 0 1 0 0 3010.dat
1 72 840 -64 -450 1 0 0 0 1 0 0 0 1 3004.dat
1 70 790 -136 -420 0 0 -1 0 1 0 1 0 0 2454a.dat
0 STEP
1 70 790 -136 -370 1 0 0 0 1 0 0 0 1 2453a.dat
0 STEP
1 70 690 -136 -370 1 0 0 0 1 0 0 0 1 2453a.dat
0 STEP
1 19 590 -24 -480 0 0 -1 0 1 0 1 0 0 22385.dat
0 STEP
1 72 630 -40 -610 1 0 0 0 1 0 0 0 1 6541.dat
1 70 590 -40 -590 1 0 0 0 1 0 0 0 1 3005.dat
1 19 540 -40 -590 1 0 0 0 1 0 0 0 1 3010.dat
1 19 490 -40 -590 1 0 0 0 1 0 0 0 1 3005.dat
1 19 590 -40 -660 0 0 -1 0 1 0 1 0 0 3009.dat
1 19 590 -64 -660 0 0 -1 0 1 0 1 0 0 3009.dat
1 70 590 -64 -590 1 0 0 0 1 0 0 0 1 3005.dat
1 72 630 -64 -610 1 0 0 0 1 0 0 0 1 6541.dat
0 STEP
1 19 480 -24 -548 -1 0 0 0 1 0 0 0 -1 22385.dat
1 70 330 -40 -590 1 0 0 0 1 0 0 0 1 3005.dat
1 19 430 -40 -590 1 0 0 0 1 0 0 0 1 3005.dat
1 19 330 -40 -660 0 0 -1 0 1 0 1 0 0 3009.dat
1 19 380 -40 -590 1 0 0 0 1 0 0 0 1 3010.dat
1 70 330 -64 -590 1 0 0 0 1 0 0 0 1 3005.dat
1 19 330 -64 -660 0 0 -1 0 1 0 1 0 0 3009.dat
1 19 380 -64 -590 1 0 0 0 1 0 0 0 1 3010.dat
0 STEP
1 19 400 -40 -730 1 0 0 0 1 0 0 0 1 3008.dat
1 19 380 -64 -730 1 0 0 0 1 0 0 0 1 3009.dat
0 STEP
1 70 190 -40 -310 1 0 0 0 1 0 0 0 1 3005.dat
1 70 190 -64 -310 1 0 0 0 1 0 0 0 1 3005.dat
1 70 190 -88 -310 1 0 0 0 1 0 0 0 1 3005.dat
1 70 190 -112 -310 1 0 0 0 1 0 0 0 1 3005.dat
0 STEP
1 72 270 -40 -230 1 0 0 0 1 0 0 0 1 3665b.dat
1 72 310 -40 -230 1 0 0 0 1 0 0 0 1 3665b.dat
1 70 290 -48 -230 1 0 0 0 1 0 0 0 1 34103.dat
0 STEP
1 19 430 -64 -590 1 0 0 0 1 0 0 0 1 3005.dat
1 19 540 -64 -590 1 0 0 0 1 0 0 0 1 3010.dat
1 19 490 -64 -590 1 0 0 0 1 0 0 0 1 3005.dat
1 19 520 -88 -590 1 0 0 0 1 0 0 0 1 3004.dat
1 19 430 -88 -590 1 0 0 0 1 0 0 0 1 3005.dat
1 19 490 -88 -590 1 0 0 0 1 0 0 0 1 3005.dat
1 19 400 -88 -590 1 0 0 0 1 0 0 0 1 3004.dat
1 70 360 -128 -590 1 0 0 0 1 0 0 0 1 30044.dat
0 STEP
1 19 520 -64 -730 1 0 0 0 1 0 0 0 1 3008.dat
1 19 540 -88 -730 1 0 0 0 1 0 0 0 1 3009.dat
0 STEP
1 72 840 -64 -510 1 0 0 0 1 0 0 0 1 3004.dat
1 72 810 -64 -480 0 0 -1 0 1 0 1 0 0 3010.dat
1 70 870 -88 -470 1 0 0 0 1 0 0 0 1 3005.dat
1 70 810 -88 -470 1 0 0 0 1 0 0 0 1 3005.dat
1 70 810 -112 -470 1 0 0 0 1 0 0 0 1 3005.dat
1 70 870 -112 -470 1 0 0 0 1 0 0 0 1 3005.dat
1 70 840 -120 -480 1 0 0 0 1 0 0 0 1 3020.dat
1 320 840 -144 -470 -1 0 0 0 1 0 0 0 -1 3037.dat
0 STEP
1 72 1130 -56 -630 1 0 0 0 1 0 0 0 1 20482.dat
0 STEP
1 70 590 -88 -590 1 0 0 0 1 0 0 0 1 3005.dat
1 19 590 -88 -660 0 0 -1 0 1 0 1 0 0 3009.dat
1 19 400 -112 -590 1 0 0 0 1 0 0 0 1 3004.dat
1 19 430 -112 -590 1 0 0 0 1 0 0 0 1 3005.dat
1 19 520 -112 -590 1 0 0 0 1 0 0 0 1 3004.dat
1 70 590 -112 -590 1 0 0 0 1 0 0 0 1 3005.dat
1 19 490 -112 -590 1 0 0 0 1 0 0 0 1 3005.dat
1 70 560 -128 -590 1 0 0 0 1 0 0 0 1 30044.dat
0 STEP
1 70 330 -88 -590 1 0 0 0 1 0 0 0 1 3005.dat
1 19 330 -88 -660 0 0 -1 0 1 0 1 0 0 3009.dat
1 70 330 -112 -590 1 0 0 0 1 0 0 0 1 3005.dat
1 19 330 -112 -660 0 0 -1 0 1 0 1 0 0 3009.dat
1 70 330 -136 -590 1 0 0 0 1 0 0 0 1 3005.dat
1 19 400 -136 -590 1 0 0 0 1 0 0 0 1 3004.dat
1 19 520 -136 -590 1 0 0 0 1 0 0 0 1 3004.dat
1 70 460 -160 -590 1 0 0 0 1 0 0 0 1 6182.dat
0 STEP
1 19 400 -88 -730 1 0 0 0 1 0 0 0 1 3008.dat
1 19 380 -112 -730 1 0 0 0 1 0 0 0 1 3009.dat
0 STEP
1 19 520 -112 -730 1 0 0 0 1 0 0 0 1 3008.dat
1 19 540 -136 -730 1 0 0 0 1 0 0 0 1 3009.dat
0 STEP
1 19 590 -112 -660 0 0 -1 0 1 0 1 0 0 3009.dat
1 19 590 -136 -660 0 0 -1 0 1 0 1 0 0 3009.dat
1 70 590 -136 -590 1 0 0 0 1 0 0 0 1 3005.dat
1 19 560 -136 -590 1 0 0 0 1 0 0 0 1 3023b.dat
1 19 540 -160 -590 1 0 0 0 1 0 0 0 1 3010.dat
1 70 590 -160 -590 1 0 0 0 1 0 0 0 1 3005.dat
1 19 590 -160 -660 0 0 -1 0 1 0 1 0 0 3009.dat
0 STEP
1 19 400 -136 -730 1 0 0 0 1 0 0 0 1 3008.dat
1 19 380 -160 -730 1 0 0 0 1 0 0 0 1 3009.dat
0 STEP
1 19 360 -136 -590 1 0 0 0 1 0 0 0 1 3023b.dat
1 19 330 -136 -660 0 0 -1 0 1 0 1 0 0 3009.dat
1 19 380 -160 -590 1 0 0 0 1 0 0 0 1 3010.dat
1 19 330 -160 -660 0 0 -1 0 1 0 1 0 0 3009.dat
1 70 330 -160 -590 1 0 0 0 1 0 0 0 1 3005.dat
1 70 420 -168 -660 0 0 -1 0 1 0 1 0 0 3034.dat
1 70 380 -168 -660 0 0 -1 0 1 0 1 0 0 3034.dat
1 70 340 -168 -660 0 0 -1 0 1 0 1 0 0 3034.dat
0 STEP
1 320 840 -144 -490 1 0 0 0 1 0 0 0 1 3037.dat
0 STEP
1 70 740 -144 -400 1 0 0 0 1 0 0 0 1 3035.dat
1 15 770 -168 -410 -1 0 0 0 1 0 0 0 -1 4286.dat
1 4 750 -168 -410 -1 0 0 0 1 0 0 0 -1 4286.dat
1 15 730 -168 -410 -1 0 0 0 1 0 0 0 -1 4286.dat
1 4 790 -168 -410 -1 0 0 0 1 0 0 0 -1 4286.dat
1 4 710 -168 -410 -1 0 0 0 1 0 0 0 -1 4286.dat
1 15 690 -168 -410 -1 0 0 0 1 0 0 0 -1 4286.dat
1 4 670 -168 -410 -1 0 0 0 1 0 0 0 -1 4286.dat
0 STEP
1 19 520 -160 -730 1 0 0 0 1 0 0 0 1 3008.dat
1 70 500 -168 -660 0 0 -1 0 1 0 1 0 0 3034.dat
1 70 540 -168 -660 0 0 -1 0 1 0 1 0 0 3034.dat
1 70 580 -168 -660 0 0 -1 0 1 0 1 0 0 3034.dat
1 70 460 -168 -660 0 0 -1 0 1 0 1 0 0 3034.dat
1 19 500 -192 -660 0 0 -1 0 1 0 1 0 0 3001.dat
1 19 580 -192 -660 0 0 -1 0 1 0 1 0 0 3001.dat
1 19 540 -192 -660 0 0 -1 0 1 0 1 0 0 3001.dat
0 STEP
1 70 740 -152 -430 1 0 0 0 1 0 0 0 1 4162.dat
0 STEP
1 15 810 -168 -410 -1 0 0 0 1 0 0 0 -1 4286.dat
0 STEP
1 72 1100 -184 -740 1 0 0 0 1 0 0 0 1 3003.dat
1 72 1110 -208 -740 0 0 -1 0 1 0 1 0 0 3004.dat
0 STEP
1 19 340 -192 -660 0 0 -1 0 1 0 1 0 0 3001.dat
1 19 380 -192 -660 0 0 -1 0 1 0 1 0 0 3001.dat
1 320 360 -192 -610 -1 0 0 0 1 0 0 0 -1 3037.dat
1 320 440 -192 -610 -1 0 0 0 1 0 0 0 -1 3037.dat
1 320 440 -192 -710 1 0 0 0 1 0 0 0 1 3037.dat
1 320 520 -192 -710 1 0 0 0 1 0 0 0 1 3037.dat
1 320 580 -192 -710 1 0 0 0 1 0 0 0 1 3039.dat
1 19 420 -192 -660 0 0 -1 0 1 0 1 0 0 3001.dat
0 STEP
1 320 360 -192 -710 1 0 0 0 1 0 0 0 1 3037.dat
1 19 460 -192 -660 0 0 -1 0 1 0 1 0 0 3001.dat
1 320 440 -216 -650 -1 0 0 0 1 0 0 0 -1 3037.dat
1 320 360 -216 -670 1 0 0 0 1 0 0 0 1 3037.dat
1 320 440 -216 -670 1 0 0 0 1 0 0 0 1 3037.dat
0 STEP
1 320 520 -192 -610 -1 0 0 0 1 0 0 0 -1 3037.dat
1 320 580 -192 -610 -1 0 0 0 1 0 0 0 -1 3039.dat
1 320 520 -216 -650 -1 0 0 0 1 0 0 0 -1 3037.dat
1 320 580 -216 -650 -1 0 0 0 1 0 0 0 -1 3039.dat
1 320 520 -216 -670 1 0 0 0 1 0 0 0 1 3037.dat
1 320 580 -216 -670 1 0 0 0 1 0 0 0 1 3039.dat
1 320 460 -240 -660 1 0 0 0 1 0 0 0 1 3043.dat
1 320 500 -240 -660 1 0 0 0 1 0 0 0 1 3043.dat
0 STEP
1 320 360 -216 -650 -1 0 0 0 1 0 0 0 -1 3037.dat
1 320 340 -240 -660 1 0 0 0 1 0 0 0 1 3043.dat
1 320 380 -240 -660 1 0 0 0 1 0 0 0 1 3043.dat
1 320 420 -240 -660 1 0 0 0 1 0 0 0 1 3043.dat
0 STEP
1 320 580 -240 -660 1 0 0 0 1 0 0 0 1 3043.dat
1 320 540 -240 -660 1 0 0 0 1 0 0 0 1 3043.dat
0 STEP
1 19 640 -24 -310 1 0 0 0 1 0 0 0 1 22385.dat
0 STEP
1 19 170 -24 -340 1 0 0 0 1 0 0 0 1 3021.dat
1 19 170 -32 -340 1 0 0 0 1 0 0 0 1 11477.dat
1 19 150 -32 -340 1 0 0 0 1 0 0 0 1 11477.dat
1 19 170 -32 -340 1 0 0 0 1 0 0 0 1 3021.dat
1 70 190 -40 -410 1 0 0 0 1 0 0 0 1 3005.dat
0 STEP
1 70 190 -64 -410 1 0 0 0 1 0 0 0 1 3005.dat
1 70 190 -88 -410 1 0 0 0 1 0 0 0 1 3005.dat
1 70 190 -112 -410 1 0 0 0 1 0 0 0 1 3005.dat
0 STEP
1 320 180 -128 -340 0 0 -1 0 1 0 1 0 0 87079.dat
0
0 NOFILE
0 FILE left_curtain_wall.ldr
0 left curtain wall
0 Name: left_curtain_wall.ldr
0 Author: Brickworks

1 28 180 -16 -380 1 0 0 0 1 0 0 0 1 3032.dat
0 STEP
1 28 180 -16 -680 1 0 0 0 1 0 0 0 1 3795.dat
1 28 180 -16 -460 1 0 0 0 1 0 0 0 1 3032.dat
1 28 180 -16 -540 1 0 0 0 1 0 0 0 1 3032.dat
1 28 180 -16 -620 1 0 0 0 1 0 0 0 1 3032.dat
1 70 130 -40 -410 1 0 0 0 1 0 0 0 1 3005.dat
0 STEP
1 72 100 -32 -680 1 0 0 0 1 0 0 0 1 3003.dat
1 71 100 -56 -680 1 0 0 0 1 0 0 0 1 3003.dat
1 71 100 -80 -680 1 0 0 0 1 0 0 0 1 3003.dat
1 71 100 -104 -680 1 0 0 0 1 0 0 0 1 3003.dat
1 71 100 -128 -680 1 0 0 0 1 0 0 0 1 3003.dat
1 71 100 -152 -680 1 0 0 0 1 0 0 0 1 3003.dat
1 71 100 -176 -680 1 0 0 0 1 0 0 0 1 3003.dat
1 71 100 -200 -680 1 0 0 0 1 0 0 0 1 3003.dat
0 STEP
1 72 100 -32 -560 0 0 -1 0 1 0 1 0 0 3006.dat
1 71 100 -56 -560 0 0 -1 0 1 0 1 0 0 3006.dat
1 71 100 -80 -560 0 0 -1 0 1 0 1 0 0 3006.dat
1 71 100 -104 -560 0 0 -1 0 1 0 1 0 0 3006.dat
1 71 100 -128 -560 0 0 -1 0 1 0 1 0 0 3006.dat
1 71 100 -152 -560 0 0 -1 0 1 0 1 0 0 3006.dat
1 71 100 -176 -560 0 0 -1 0 1 0 1 0 0 3006.dat
1 71 100 -200 -560 0 0 -1 0 1 0 1 0 0 3006.dat
0 STEP
1 70 130 -40 -310 1 0 0 0 1 0 0 0 1 3005.dat
1 70 130 -64 -310 1 0 0 0 1 0 0 0 1 3005.dat
1 70 130 -88 -310 1 0 0 0 1 0 0 0 1 3005.dat
1 70 130 -112 -310 1 0 0 0 1 0 0 0 1 3005.dat
0 STEP
1 70 130 -64 -410 1 0 0 0 1 0 0 0 1 3005.dat
1 70 130 -88 -410 1 0 0 0 1 0 0 0 1 3005.dat
1 70 130 -112 -410 1 0 0 0 1 0 0 0 1 3005.dat
1 70 160 -120 -360 0 0 -1 0 1 0 1 0 0 3032.dat
1 320 140 -128 -340 0 0 -1 0 1 0 1 0 0 87079.dat
1 320 160 -128 -400 1 0 0 0 1 0 0 0 1 87079.dat
0 STEP
1 72 90 -208 -520 0 0 -1 0 1 0 1 0 0 3069b.dat
1 72 90 -208 -440 0 0 -1 0 1 0 1 0 0 3069b.dat
1 72 90 -208 -360 0 0 -1 0 1 0 1 0 0 3069b.dat
1 72 110 -208 -380 0 0 -1 0 1 0 1 0 0 2431.dat
1 70 110 -208 -500 0 0 -1 0 1 0 1 0 0 3460.dat
1 71 90 -224 -480 0 0 -1 0 1 0 1 0 0 3004.dat
1 71 90 -224 -400 0 0 -1 0 1 0 1 0 0 3004.dat
1 71 90 -224 -320 0 0 -1 0 1 0 1 0 0 3004.dat
0 STEP
1 72 110 -208 -680 0 0 -1 0 1 0 1 0 0 32028.dat
1 72 110 -208 -620 0 0 -1 0 1 0 1 0 0 2431.dat
1 72 90 -208 -600 0 0 -1 0 1 0 1 0 0 3069b.dat
1 72 90 -208 -680 0 0 -1 0 1 0 1 0 0 3069b.dat
1 71 90 -224 -560 0 0 -1 0 1 0 1 0 0 3004.dat
1 71 90 -224 -640 0 0 -1 0 1 0 1 0 0 3004.dat
1 72 90 -232 -640 0 0 -1 0 1 0 1 0 0 3069b.dat
1 72 90 -232 -560 0 0 -1 0 1 0 1 0 0 3069b.dat
0 STEP
1 72 90 -232 -400 0 0 -1 0 1 0 1 0 0 3069b.dat
1 72 90 -232 -320 0 0 -1 0 1 0 1 0 0 3069b.dat
1 72 90 -232 -480 0 0 -1 0 1 0 1 0 0 3069b.dat
0
0 NOFILE
0 FILE front_right_tower.ldr
0 front-right tower
0 Name: front_right_tower.ldr
0 Author: Brickworks

1 72 1140 -32 -100 1 0 0 0 1 0 0 0 1 48092.dat
1 72 1220 -32 -180 0 0 -1 0 1 0 1 0 0 48092.dat
1 72 1150 -32 -130 1 0 0 0 1 0 0 0 1 2357.dat
1 71 1140 -56 -100 1 0 0 0 1 0 0 0 1 48092.dat
1 71 1220 -56 -180 0 0 -1 0 1 0 1 0 0 48092.dat
1 71 1220 -80 -180 0 0 -1 0 1 0 1 0 0 48092.dat
1 71 1140 -80 -100 1 0 0 0 1 0 0 0 1 48092.dat
1 71 1220 -104 -180 0 0 -1 0 1 0 1 0 0 48092.dat
0 STEP
1 2 1290 -16 -300 0 0 -1 0 1 0 1 0 0 3710.dat
1 2 1260 -16 -320 0 0 -1 0 1 0 1 0 0 3795.dat
1 72 1290 -32 -230 -1 0 0 0 1 0 0 0 -1 2357.dat
1 72 1300 -32 -260 -1 0 0 0 1 0 0 0 -1 48092.dat
1 72 1220 -32 -360 0 0 -1 0 1 0 1 0 0 3006.dat
1 71 1220 -56 -360 0 0 -1 0 1 0 1 0 0 3006.dat
1 71 1220 -80 -360 0 0 -1 0 1 0 1 0 0 3006.dat
1 71 1220 -104 -360 0 0 -1 0 1 0 1 0 0 3006.dat
0 STEP
1 72 1220 -32 -180 0 0 1 0 1 0 -1 0 0 48092.dat
1 71 1300 -56 -260 -1 0 0 0 1 0 0 0 -1 48092.dat
1 71 1220 -56 -180 0 0 1 0 1 0 -1 0 0 48092.dat
1 71 1300 -80 -260 -1 0 0 0 1 0 0 0 -1 48092.dat
1 71 1220 -80 -180 0 0 1 0 1 0 -1 0 0 48092.dat
1 71 1300 -104 -260 -1 0 0 0 1 0 0 0 -1 48092.dat
1 71 1220 -104 -180 0 0 1 0 1 0 -1 0 0 48092.dat
1 71 1300 -128 -260 -1 0 0 0 1 0 0 0 -1 48092.dat
0 STEP
1 2 1360 -16 -180 1 0 0 0 1 0 0 0 1 3032.dat
1 2 1360 -16 -260 1 0 0 0 1 0 0 0 1 3032.dat
0 STEP
1 71 1140 -104 -100 1 0 0 0 1 0 0 0 1 48092.dat
1 71 1220 -128 -180 0 0 -1 0 1 0 1 0 0 48092.dat
1 71 1140 -128 -100 1 0 0 0 1 0 0 0 1 48092.dat
1 71 1140 -152 -100 1 0 0 0 1 0 0 0 1 48092.dat
1 71 1220 -152 -180 0 0 -1 0 1 0 1 0 0 48092.dat
1 71 1140 -176 -100 1 0 0 0 1 0 0 0 1 48092.dat
1 71 1220 -176 -180 0 0 -1 0 1 0 1 0 0 48092.dat
1 71 1220 -200 -180 0 0 -1 0 1 0 1 0 0 48092.dat
0 STEP
1 71 1220 -128 -180 0 0 1 0 1 0 -1 0 0 48092.dat
1 71 1300 -152 -260 -1 0 0 0 1 0 0 0 -1 48092.dat
1 71 1220 -152 -180 0 0 1 0 1 0 -1 0 0 48092.dat
1 71 1300 -176 -260 -1 0 0 0 1 0 0 0 -1 48092.dat
1 71 1220 -176 -180 0 0 1 0 1 0 -1 0 0 48092.dat
1 71 1300 -200 -260 -1 0 0 0 1 0 0 0 -1 48092.dat
1 71 1220 -200 -180 0 0 1 0 1 0 -1 0 0 48092.dat
1 71 1300 -224 -260 -1 0 0 0 1 0 0 0 -1 48092.dat
0 STEP
1 71 1220 -128 -360 0 0 -1 0 1 0 1 0 0 3006.dat
1 71 1220 -152 -360 0 0 -1 0 1 0 1 0 0 3006.dat
1 71 1220 -176 -360 0 0 -1 0 1 0 1 0 0 3006.dat
1 71 1220 -200 -360 0 0 -1 0 1 0 1 0 0 3006.dat
1 72 1210 -208 -300 0 0 -1 0 1 0 1 0 0 2431.dat
1 72 1230 -208 -280 0 0 -1 0 1 0 1 0 0 3069b.dat
1 71 1220 -224 -180 0 0 1 0 1 0 -1 0 0 48092.dat
1 71 1220 -248 -180 0 0 1 0 1 0 -1 0 0 48092.dat
0 STEP
1 71 1140 -200 -100 1 0 0 0 1 0 0 0 1 48092.dat
1 71 1140 -224 -100 1 0 0 0 1 0 0 0 1 48092.dat
1 71 1220 -224 -180 0 0 -1 0 1 0 1 0 0 48092.dat
1 71 1220 -248 -180 0 0 -1 0 1 0 1 0 0 48092.dat
1 71 1140 -248 -100 1 0 0 0 1 0 0 0 1 48092.dat
1 71 1220 -272 -180 0 0 -1 0 1 0 1 0 0 48092.dat
1 71 1140 -272 -100 1 0 0 0 1 0 0 0 1 48092.dat
1 71 1220 -296 -180 0 0 -1 0 1 0 1 0 0 48092.dat
0 STEP
1 71 1300 -248 -260 -1 0 0 0 1 0 0 0 -1 48092.dat
1 71 1220 -272 -180 0 0 1 0 1 0 -1 0 0 48092.dat
1 71 1300 -272 -260 -1 0 0 0 1 0 0 0 -1 48092.dat
1 71 1220 -296 -180 0 0 1 0 1 0 -1 0 0 48092.dat
1 71 1300 -296 -260 -1 0 0 0 1 0 0 0 -1 48092.dat
1 71 1220 -320 -180 0 0 1 0 1 0 -1 0 0 48092.dat
1 71 1300 -320 -260 -1 0 0 0 1 0 0 0 -1 48092.dat
1 72 1220 -344 -180 0 0 1 0 1 0 -1 0 0 48092.dat
0 STEP
1 71 1140 -296 -100 1 0 0 0 1 0 0 0 1 48092.dat
1 71 1220 -320 -180 0 0 -1 0 1 0 1 0 0 48092.dat
1 71 1140 -320 -100 1 0 0 0 1 0 0 0 1 48092.dat
1 72 1140 -344 -100 1 0 0 0 1 0 0 0 1 48092.dat
1 72 1220 -344 -180 0 0 -1 0 1 0 1 0 0 48092.dat
1 71 1140 -368 -100 1 0 0 0 1 0 0 0 1 48092.dat
1 71 1220 -368 -180 0 0 -1 0 1 0 1 0 0 48092.dat
1 71 1220 -416 -110 1 0 0 0 1 0 0 0 1 3245c.dat
0 STEP
1 72 1300 -344 -260 -1 0 0 0 1 0 0 0 -1 48092.dat
1 71 1220 -368 -180 0 0 1 0 1 0 -1 0 0 48092.dat
1 71 1300 -368 -260 -1 0 0 0 1 0 0 0 -1 48092.dat
1 72 1220 -376 -180 1 0 0 0 1 0 0 0 1 11213.dat
1 71 1220 -392 -250 1 0 0 0 1 0 0 0 1 3700.dat
1 71 1150 -392 -180 0 0 -1 0 1 0 1 0 0 3700.dat
1 71 1290 -392 -180 0 0 -1 0 1 0 1 0 0 3004.dat
1 320 1220 -424 -180 1 0 0 0 1 0 0 0 1 3943b.dat
0 STEP
1 72 1150 -400 -180 0 0 -1 0 1 0 1 0 0 3069b.dat
0 STEP
1 72 1220 -400 -250 1 0 0 0 1 0 0 0 1 3069b.dat
0 STEP
1 72 1290 -400 -180 0 0 -1 0 1 0 1 0 0 3069b.dat
0 STEP
1 297 1210 -424 -110 1 0 0 0 1 0 0 0 1 98138.dat
1 297 1230 -424 -110 1 0 0 0 1 0 0 0 1 98138.dat
1 320 1220 -472 -180 1 0 0 0 1 0 0 0 1 3942c.dat
1 297 1220 -496 -180 1 0 0 0 1 0 0 0 1 59900.dat
0
0 NOFILE
0 FILE right_curtain_wall.ldr
0 right curtain wall
0 Name: right_curtain_wall.ldr
0 Author: Brickworks

1 72 1230 -208 -360 0 0 -1 0 1 0 1 0 0 3069b.dat
1 72 1210 -208 -380 0 0 -1 0 1 0 1 0 0 2431.dat
1 72 1230 -208 -440 0 0 -1 0 1 0 1 0 0 3069b.dat
1 71 1230 -224 -320 0 0 -1 0 1 0 1 0 0 3004.dat
1 71 1230 -224 -400 0 0 -1 0 1 0 1 0 0 3004.dat
1 72 1230 -232 -400 0 0 -1 0 1 0 1 0 0 3069b.dat
1 72 1230 -232 -320 0 0 -1 0 1 0 1 0 0 3069b.dat
0 STEP
1 2 1260 -16 -440 0 0 -1 0 1 0 1 0 0 3795.dat
1 72 1260 -40 -470 1 0 0 0 1 0 0 0 1 3004.dat
1 72 1250 -112 -470 0 0 -1 0 1 0 1 0 0 4460b.dat
0 STEP
1 2 1260 -16 -660 0 0 -1 0 1 0 1 0 0 3020.dat
1 2 1260 -16 -560 0 0 -1 0 1 0 1 0 0 3795.dat
1 72 1220 -32 -560 0 0 -1 0 1 0 1 0 0 3006.dat
1 72 1220 -32 -680 1 0 0 0 1 0 0 0 1 3003.dat
1 72 1260 -40 -590 1 0 0 0 1 0 0 0 1 3004.dat
1 71 1220 -56 -680 1 0 0 0 1 0 0 0 1 3003.dat
1 71 1220 -80 -680 1 0 0 0 1 0 0 0 1 3003.dat
1 71 1220 -104 -680 1 0 0 0 1 0 0 0 1 3003.dat
0 STEP
1 72 1260 -40 -350 1 0 0 0 1 0 0 0 1 3004.dat
1 72 1250 -112 -350 0 0 -1 0 1 0 1 0 0 4460b.dat
0 STEP
1 71 1220 -56 -560 0 0 -1 0 1 0 1 0 0 3006.dat
1 71 1220 -80 -560 0 0 -1 0 1 0 1 0 0 3006.dat
1 71 1220 -104 -560 0 0 -1 0 1 0 1 0 0 3006.dat
1 72 1250 -112 -590 0 0 -1 0 1 0 1 0 0 4460b.dat
1 71 1220 -128 -560 0 0 -1 0 1 0 1 0 0 3006.dat
1 71 1220 -152 -560 0 0 -1 0 1 0 1 0 0 3006.dat
1 71 1220 -176 -560 0 0 -1 0 1 0 1 0 0 3006.dat
1 71 1220 -200 -560 0 0 -1 0 1 0 1 0 0 3006.dat
0 STEP
1 71 1220 -128 -680 1 0 0 0 1 0 0 0 1 3003.dat
1 71 1220 -152 -680 1 0 0 0 1 0 0 0 1 3003.dat
1 71 1220 -176 -680 1 0 0 0 1 0 0 0 1 3003.dat
1 71 1220 -200 -680 1 0 0 0 1 0 0 0 1 3003.dat
1 72 1210 -208 -620 0 0 -1 0 1 0 1 0 0 2431.dat
1 72 1230 -208 -680 0 0 -1 0 1 0 1 0 0 3069b.dat
1 72 1210 -208 -680 0 0 -1 0 1 0 1 0 0 2412b.dat
1 71 1230 -224 -640 0 0 -1 0 1 0 1 0 0 3004.dat
0 STEP
1 72 1210 -208 -460 0 0 -1 0 1 0 1 0 0 2431.dat
1 72 1210 -208 -540 0 0 -1 0 1 0 1 0 0 2431.dat
1 72 1230 -208 -600 0 0 -1 0 1 0 1 0 0 3069b.dat
1 72 1230 -208 -520 0 0 -1 0 1 0 1 0 0 3069b.dat
1 71 1230 -224 -560 0 0 -1 0 1 0 1 0 0 3004.dat
1 71 1230 -224 -480 0 0 -1 0 1 0 1 0 0 3004.dat
1 72 1230 -232 -490 0 0 -1 0 1 0 1 0 0 25269.dat
1 72 1230 -232 -470 1 0 0 0 1 0 0 0 1 25269.dat
0 STEP
1 72 1230 -232 -640 0 0 -1 0 1 0 1 0 0 3069b.dat
1 72 1230 -232 -560 0 0 -1 0 1 0 1 0 0 3069b.dat
0
0 NOFILE
0 FILE back_right_tower.ldr
0 back-right tower
0 Name: back_right_tower.ldr
0 Author: Brickworks

1 28 1150 -16 -730 1 0 0 0 1 0 0 0 1 2420.dat
1 72 1140 -32 -700 1 0 0 0 1 0 0 0 1 48092.dat
1 72 1220 -32 -780 0 0 -1 0 1 0 1 0 0 48092.dat
1 71 1220 -56 -780 0 0 -1 0 1 0 1 0 0 48092.dat
1 71 1140 -56 -700 1 0 0 0 1 0 0 0 1 48092.dat
1 71 1140 -80 -700 1 0 0 0 1 0 0 0 1 48092.dat
1 71 1220 -80 -780 0 0 -1 0 1 0 1 0 0 48092.dat
1 71 1140 -104 -700 1 0 0 0 1 0 0 0 1 48092.dat
0 STEP
1 28 1290 -16 -830 -1 0 0 0 1 0 0 0 -1 2420.dat
1 2 1260 -16 -880 1 0 0 0 1 0 0 0 1 3020.dat
1 72 1220 -32 -780 0 0 1 0 1 0 -1 0 0 48092.dat
1 72 1300 -32 -860 -1 0 0 0 1 0 0 0 -1 48092.dat
1 71 1220 -56 -780 0 0 1 0 1 0 -1 0 0 48092.dat
1 71 1300 -56 -860 -1 0 0 0 1 0 0 0 -1 48092.dat
1 71 1220 -80 -780 0 0 1 0 1 0 -1 0 0 48092.dat
1 71 1300 -80 -860 -1 0 0 0 1 0 0 0 -1 48092.dat
0 STEP
1 2 1360 -16 -880 1 0 0 0 1 0 0 0 1 3795.dat
1 2 1360 -16 -820 1 0 0 0 1 0 0 0 1 3032.dat
0 STEP
1 2 1360 -16 -740 1 0 0 0 1 0 0 0 1 3032.dat
0 STEP
1 71 1220 -104 -780 0 0 -1 0 1 0 1 0 0 48092.dat
1 71 1140 -128 -700 1 0 0 0 1 0 0 0 1 48092.dat
1 71 1220 -128 -780 0 0 -1 0 1 0 1 0 0 48092.dat
1 71 1140 -152 -700 1 0 0 0 1 0 0 0 1 48092.dat
1 71 1220 -152 -780 0 0 -1 0 1 0 1 0 0 48092.dat
1 71 1140 -176 -700 1 0 0 0 1 0 0 0 1 48092.dat
1 71 1220 -176 -780 0 0 -1 0 1 0 1 0 0 48092.dat
1 71 1140 -200 -700 1 0 0 0 1 0 0 0 1 48092.dat
0 STEP
1 71 1300 -104 -860 -1 0 0 0 1 0 0 0 -1 48092.dat
1 71 1220 -104 -780 0 0 1 0 1 0 -1 0 0 48092.dat
1 71 1300 -128 -860 -1 0 0 0 1 0 0 0 -1 48092.dat
1 71 1220 -128 -780 0 0 1 0 1 0 -1 0 0 48092.dat
1 71 1300 -152 -860 -1 0 0 0 1 0 0 0 -1 48092.dat
1 71 1220 -152 -780 0 0 1 0 1 0 -1 0 0 48092.dat
1 71 1220 -176 -780 0 0 1 0 1 0 -1 0 0 48092.dat
1 71 1300 -176 -860 -1 0 0 0 1 0 0 0 -1 48092.dat
0 STEP
1 71 1220 -200 -780 0 0 1 0 1 0 -1 0 0 48092.dat
1 71 1300 -200 -860 -1 0 0 0 1 0 0 0 -1 48092.dat
1 71 1300 -224 -860 -1 0 0 0 1 0 0 0 -1 48092.dat
1 71 1220 -224 -780 0 0 1 0 1 0 -1 0 0 48092.dat
1 71 1300 -248 -860 -1 0 0 0 1 0 0 0 -1 48092.dat
1 71 1220 -248 -780 0 0 1 0 1 0 -1 0 0 48092.dat
1 71 1300 -272 -860 -1 0 0 0 1 0 0 0 -1 48092.dat
1 71 1220 -272 -780 0 0 1 0 1 0 -1 0 0 48092.dat
0 STEP
1 71 1220 -200 -780 0 0 -1 0 1 0 1 0 0 48092.dat
1 71 1220 -224 -780 0 0 -1 0 1 0 1 0 0 48092.dat
1 71 1140 -224 -700 1 0 0 0 1 0 0 0 1 48092.dat
1 71 1220 -248 -780 0 0 -1 0 1 0 1 0 0 48092.dat
1 71 1140 -248 -700 1 0 0 0 1 0 0 0 1 48092.dat
1 71 1140 -272 -700 1 0 0 0 1 0 0 0 1 48092.dat
1 71 1220 -272 -780 0 0 -1 0 1 0 1 0 0 48092.dat
1 71 1140 -296 -700 1 0 0 0 1 0 0 0 1 48092.dat
0 STEP
1 71 1220 -296 -780 0 0 -1 0 1 0 1 0 0 48092.dat
1 71 1140 -320 -700 1 0 0 0 1 0 0 0 1 48092.dat
1 71 1220 -320 -780 0 0 -1 0 1 0 1 0 0 48092.dat
1 72 1140 -344 -700 1 0 0 0 1 0 0 0 1 48092.dat
1 72 1220 -344 -780 0 0 -1 0 1 0 1 0 0 48092.dat
1 71 1140 -368 -700 1 0 0 0 1 0 0 0 1 48092.dat
1 71 1220 -368 -780 0 0 -1 0 1 0 1 0 0 48092.dat
1 71 1220 -392 -710 1 0 0 0 1 0 0 0 1 3004.dat
0 STEP
1 71 1300 -296 -860 -1 0 0 0 1 0 0 0 -1 48092.dat
1 71 1220 -296 -780 0 0 1 0 1 0 -1 0 0 48092.dat
1 71 1300 -320 -860 -1 0 0 0 1 0 0 0 -1 48092.dat
1 71 1220 -320 -780 0 0 1 0 1 0 -1 0 0 48092.dat
1 72 1300 -344 -860 -1 0 0 0 1 0 0 0 -1 48092.dat
1 72 1220 -344 -780 0 0 1 0 1 0 -1 0 0 48092.dat
1 71 1220 -368 -780 0 0 1 0 1 0 -1 0 0 48092.dat
1 71 1300 -368 -860 -1 0 0 0 1 0 0 0 -1 48092.dat
0 STEP
1 70 1220 -376 -780 1 0 0 0 1 0 0 0 1 3031.dat
1 72 1250 -384 -770 0 0 -1 0 1 0 1 0 0 3623.dat
1 72 1210 -384 -760 1 0 0 0 1 0 0 0 1 26603.dat
1 71 1220 -392 -850 1 0 0 0 1 0 0 0 1 3004.dat
1 71 1150 -392 -780 0 0 -1 0 1 0 1 0 0 3004.dat
1 71 1290 -392 -780 0 0 -1 0 1 0 1 0 0 3004.dat
1 71 1270 -392 -730 1 0 0 0 1 0 0 0 1 3005.dat
1 71 1170 -392 -830 1 0 0 0 1 0 0 0 1 3005.dat
0 STEP
1 36 1250 -390 -770 1 0 0 0 1 0 0 0 1 30153.dat
1 72 1220 -400 -710 1 0 0 0 1 0 0 0 1 3069b.dat
1 70 1220 -400 -810 1 0 0 0 1 0 0 0 1 3633.dat
1 72 1270 -400 -730 1 0 0 0 1 0 0 0 1 3070b.dat
1 297 1250 -424 -750 1 0 0 0 1 0 0 0 1 2343.dat
1 0 1248 -424 -788 1 0 0 0 1 0 0 0 1 64644.dat
0 STEP
1 72 1220 -400 -850 1 0 0 0 1 0 0 0 1 3069b.dat
1 72 1150 -400 -780 0 0 -1 0 1 0 1 0 0 3069b.dat
1 72 1170 -400 -830 1 0 0 0 1 0 0 0 1 3070b.dat
0 STEP
1 72 1290 -400 -780 0 0 -1 0 1 0 1 0 0 3069b.dat
0
0 NOFILE
0 FILE back_curtain_wall.ldr
0 back curtain wall
0 Name: back_curtain_wall.ldr
0 Author: Brickworks

1 2 1080 -16 -820 1 0 0 0 1 0 0 0 1 3795.dat
1 72 1060 -32 -780 1 0 0 0 1 0 0 0 1 3007.dat
1 71 1060 -56 -780 1 0 0 0 1 0 0 0 1 3007.dat
1 71 1060 -80 -780 1 0 0 0 1 0 0 0 1 3007.dat
1 71 1060 -104 -780 1 0 0 0 1 0 0 0 1 3007.dat
1 71 1060 -128 -780 1 0 0 0 1 0 0 0 1 3007.dat
1 71 1060 -152 -780 1 0 0 0 1 0 0 0 1 3007.dat
1 71 1060 -176 -780 1 0 0 0 1 0 0 0 1 3007.dat
0 STEP
1 2 960 -16 -820 1 0 0 0 1 0 0 0 1 3795.dat
0 STEP
1 2 840 -16 -820 1 0 0 0 1 0 0 0 1 3795.dat
1 72 880 -32 -780 1 0 0 0 1 0 0 0 1 3006.dat
1 71 880 -56 -780 1 0 0 0 1 0 0 0 1 3006.dat
1 71 880 -80 -780 1 0 0 0 1 0 0 0 1 3006.dat
1 71 880 -104 -780 1 0 0 0 1 0 0 0 1 3006.dat
1 71 880 -128 -780 1 0 0 0 1 0 0 0 1 3006.dat
1 71 880 -152 -780 1 0 0 0 1 0 0 0 1 3006.dat
1 71 880 -176 -780 1 0 0 0 1 0 0 0 1 3006.dat
0 STEP
1 2 720 -16 -820 1 0 0 0 1 0 0 0 1 3795.dat
1 72 680 -32 -780 1 0 0 0 1 0 0 0 1 3006.dat
1 71 680 -56 -780 1 0 0 0 1 0 0 0 1 3006.dat
1 71 680 -80 -780 1 0 0 0 1 0 0 0 1 3006.dat
1 71 680 -104 -780 1 0 0 0 1 0 0 0 1 3006.dat
1 71 680 -128 -780 1 0 0 0 1 0 0 0 1 3006.dat
1 71 680 -152 -780 1 0 0 0 1 0 0 0 1 3006.dat
1 71 680 -176 -780 1 0 0 0 1 0 0 0 1 3006.dat
0 STEP
1 2 600 -16 -820 1 0 0 0 1 0 0 0 1 3795.dat
0 STEP
1 2 480 -16 -820 1 0 0 0 1 0 0 0 1 3795.dat
1 72 480 -32 -780 1 0 0 0 1 0 0 0 1 3006.dat
1 71 480 -56 -780 1 0 0 0 1 0 0 0 1 3006.dat
1 71 480 -80 -780 1 0 0 0 1 0 0 0 1 3006.dat
1 71 480 -104 -780 1 0 0 0 1 0 0 0 1 3006.dat
1 71 480 -128 -780 1 0 0 0 1 0 0 0 1 3006.dat
1 71 480 -152 -780 1 0 0 0 1 0 0 0 1 3006.dat
1 71 480 -176 -780 1 0 0 0 1 0 0 0 1 3006.dat
0 STEP
1 2 360 -16 -820 1 0 0 0 1 0 0 0 1 3795.dat
0 STEP
1 71 480 -200 -780 1 0 0 0 1 0 0 0 1 3006.dat
1 72 460 -208 -770 1 0 0 0 1 0 0 0 1 2431.dat
1 72 420 -208 -790 1 0 0 0 1 0 0 0 1 3069b.dat
1 72 500 -208 -790 1 0 0 0 1 0 0 0 1 3069b.dat
1 71 460 -224 -790 1 0 0 0 1 0 0 0 1 3004.dat
1 72 460 -232 -790 1 0 0 0 1 0 0 0 1 3069b.dat
0 STEP
1 71 680 -200 -780 1 0 0 0 1 0 0 0 1 3006.dat
1 72 660 -208 -820 1 0 0 0 1 0 0 0 1 3958.dat
1 72 590 -208 -770 1 0 0 0 1 0 0 0 1 3070b.dat
1 72 540 -208 -770 1 0 0 0 1 0 0 0 1 2431.dat
1 72 580 -208 -790 1 0 0 0 1 0 0 0 1 3069b.dat
1 71 540 -224 -790 1 0 0 0 1 0 0 0 1 3004.dat
1 71 610 -232 -800 0 0 -1 0 1 0 1 0 0 3004.dat
1 72 540 -232 -790 1 0 0 0 1 0 0 0 1 3069b.dat
0 STEP
1 71 880 -200 -780 1 0 0 0 1 0 0 0 1 3006.dat
1 72 900 -208 -790 1 0 0 0 1 0 0 0 1 3069b.dat
1 72 820 -208 -790 1 0 0 0 1 0 0 0 1 3069b.dat
1 72 740 -208 -790 1 0 0 0 1 0 0 0 1 3069b.dat
1 72 780 -208 -770 1 0 0 0 1 0 0 0 1 2431.dat
1 72 860 -208 -770 1 0 0 0 1 0 0 0 1 2431.dat
1 71 780 -224 -790 1 0 0 0 1 0 0 0 1 3004.dat
1 71 860 -224 -790 1 0 0 0 1 0 0 0 1 3004.dat
0 STEP
1 71 1060 -200 -780 1 0 0 0 1 0 0 0 1 3007.dat
1 72 1060 -208 -770 1 0 0 0 1 0 0 0 1 4162.dat
1 72 940 -208 -770 1 0 0 0 1 0 0 0 1 2431.dat
1 72 1060 -208 -790 1 0 0 0 1 0 0 0 1 3069b.dat
1 72 980 -208 -790 1 0 0 0 1 0 0 0 1 3069b.dat
1 71 1020 -224 -790 1 0 0 0 1 0 0 0 1 98283.dat
1 71 940 -224 -790 1 0 0 0 1 0 0 0 1 3004.dat
1 72 940 -232 -790 1 0 0 0 1 0 0 0 1 3069b.dat
0 STEP
1 72 1130 -208 -790 1 0 0 0 1 0 0 0 1 3070b.dat
1 71 1100 -224 -790 1 0 0 0 1 0 0 0 1 98283.dat
1 72 1020 -232 -790 1 0 0 0 1 0 0 0 1 3069b.dat
1 72 1100 -232 -790 1 0 0 0 1 0 0 0 1 3069b.dat
0 STEP
1 72 730 -208 -770 1 0 0 0 1 0 0 0 1 3070b.dat
1 71 710 -232 -800 0 0 -1 0 1 0 1 0 0 3004.dat
1 72 860 -232 -790 1 0 0 0 1 0 0 0 1 3069b.dat
1 72 780 -232 -790 1 0 0 0 1 0 0 0 1 3069b.dat
0 STEP
1 72 710 -240 -800 0 0 -1 0 1 0 1 0 0 3069b.dat
0 STEP
1 72 610 -240 -800 0 0 -1 0 1 0 1 0 0 3069b.dat
0 STEP
1 72 260 -208 -790 1 0 0 0 1 0 0 0 1 3069b.dat
1 72 340 -208 -790 1 0 0 0 1 0 0 0 1 3069b.dat
1 72 300 -208 -770 1 0 0 0 1 0 0 0 1 2431.dat
1 72 380 -208 -770 1 0 0 0 1 0 0 0 1 2431.dat
1 71 300 -224 -790 1 0 0 0 1 0 0 0 1 3004.dat
1 71 380 -224 -790 1 0 0 0 1 0 0 0 1 3004.dat
1 71 220 -224 -790 1 0 0 0 1 0 0 0 1 3004.dat
1 72 380 -232 -790 1 0 0 0 1 0 0 0 1 3069b.dat
0 STEP
1 72 220 -232 -790 1 0 0 0 1 0 0 0 1 3069b.dat
1 72 300 -232 -790 1 0 0 0 1 0 0 0 1 3069b.dat
0
0 NOFILE
0 FILE back_left_tower.ldr
0 back-left tower
0 Name: back_left_tower.ldr
0 Author: Brickworks

1 72 160 -16 -840 1 0 0 0 1 0 0 0 1 87580.dat
1 2 220 -16 -850 1 0 0 0 1 0 0 0 1 3710.dat
1 2 240 -16 -820 1 0 0 0 1 0 0 0 1 3795.dat
1 2 80 -16 -880 1 0 0 0 1 0 0 0 1 3795.dat
1 2 200 -16 -880 1 0 0 0 1 0 0 0 1 3795.dat
1 72 100 -32 -780 0 0 1 0 1 0 -1 0 0 48092.dat
1 72 180 -32 -860 -1 0 0 0 1 0 0 0 -1 48092.dat
1 72 280 -32 -780 1 0 0 0 1 0 0 0 1 3006.dat
0 STEP
1 72 20 -32 -700 1 0 0 0 1 0 0 0 1 48092.dat
1 70 40 -32 -710 1 0 0 0 1 0 0 0 1 30136.dat
1 70 40 -32 -730 1 0 0 0 1 0 0 0 1 30136.dat
1 70 30 -56 -720 0 0 -1 0 1 0 1 0 0 30136.dat
1 71 20 -56 -700 1 0 0 0 1 0 0 0 1 48092.dat
1 71 20 -80 -700 1 0 0 0 1 0 0 0 1 48092.dat
1 71 20 -104 -700 1 0 0 0 1 0 0 0 1 48092.dat
1 71 20 -128 -700 1 0 0 0 1 0 0 0 1 48092.dat
0 STEP
1 72 100 -32 -780 0 0 -1 0 1 0 1 0 0 48092.dat
1 71 100 -56 -780 0 0 -1 0 1 0 1 0 0 48092.dat
1 71 100 -80 -780 0 0 -1 0 1 0 1 0 0 48092.dat
1 71 100 -104 -780 0 0 -1 0 1 0 1 0 0 48092.dat
1 71 100 -128 -780 0 0 -1 0 1 0 1 0 0 48092.dat
1 71 20 -152 -700 1 0 0 0 1 0 0 0 1 48092.dat
1 71 100 -152 -780 0 0 -1 0 1 0 1 0 0 48092.dat
1 71 20 -176 -700 1 0 0 0 1 0 0 0 1 48092.dat
0 STEP
1 28 220 -16 -750 1 0 0 0 1 0 0 0 1 3710.dat
1 28 240 -16 -720 1 0 0 0 1 0 0 0 1 3795.dat
1 71 280 -56 -780 1 0 0 0 1 0 0 0 1 3006.dat
1 71 280 -80 -780 1 0 0 0 1 0 0 0 1 3006.dat
1 71 280 -104 -780 1 0 0 0 1 0 0 0 1 3006.dat
1 71 280 -128 -780 1 0 0 0 1 0 0 0 1 3006.dat
1 71 280 -152 -780 1 0 0 0 1 0 0 0 1 3006.dat
1 71 280 -176 -780 1 0 0 0 1 0 0 0 1 3006.dat
0 STEP
1 297 160 -24 -840 1 0 0 0 1 0 0 0 1 4740.dat
1 71 180 -56 -860 -1 0 0 0 1 0 0 0 -1 48092.dat
1 71 100 -56 -780 0 0 1 0 1 0 -1 0 0 48092.dat
1 71 180 -80 -860 -1 0 0 0 1 0 0 0 -1 48092.dat
1 71 100 -80 -780 0 0 1 0 1 0 -1 0 0 48092.dat
1 71 180 -104 -860 -1 0 0 0 1 0 0 0 -1 48092.dat
1 71 100 -104 -780 0 0 1 0 1 0 -1 0 0 48092.dat
1 71 100 -128 -780 0 0 1 0 1 0 -1 0 0 48092.dat
0 STEP
1 71 180 -128 -860 -1 0 0 0 1 0 0 0 -1 48092.dat
1 71 180 -152 -860 -1 0 0 0 1 0 0 0 -1 48092.dat
1 71 100 -152 -780 0 0 1 0 1 0 -1 0 0 48092.dat
1 71 100 -176 -780 0 0 1 0 1 0 -1 0 0 48092.dat
1 71 180 -176 -860 -1 0 0 0 1 0 0 0 -1 48092.dat
1 71 180 -200 -860 -1 0 0 0 1 0 0 0 -1 48092.dat
1 71 100 -200 -780 0 0 1 0 1 0 -1 0 0 48092.dat
1 71 100 -224 -780 0 0 1 0 1 0 -1 0 0 48092.dat
0 STEP
1 71 100 -176 -780 0 0 -1 0 1 0 1 0 0 48092.dat
1 71 100 -200 -780 0 0 -1 0 1 0 1 0 0 48092.dat
1 71 20 -200 -700 1 0 0 0 1 0 0 0 1 48092.dat
1 71 100 -224 -780 0 0 -1 0 1 0 1 0 0 48092.dat
1 71 20 -224 -700 1 0 0 0 1 0 0 0 1 48092.dat
1 71 100 -248 -780 0 0 -1 0 1 0 1 0 0 48092.dat
1 71 20 -248 -700 1 0 0 0 1 0 0 0 1 48092.dat
1 71 20 -272 -700 1 0 0 0 1 0 0 0 1 48092.dat
0 STEP
1 71 280 -200 -780 1 0 0 0 1 0 0 0 1 3006.dat
1 72 190 -208 -790 1 0 0 0 1 0 0 0 1 3070b.dat
1 72 220 -208 -770 1 0 0 0 1 0 0 0 1 2431.dat
1 71 180 -224 -860 -1 0 0 0 1 0 0 0 -1 48092.dat
1 71 180 -248 -860 -1 0 0 0 1 0 0 0 -1 48092.dat
1 71 100 -248 -780 0 0 1 0 1 0 -1 0 0 48092.dat
1 71 180 -272 -860 -1 0 0 0 1 0 0 0 -1 48092.dat
1 71 100 -272 -780 0 0 1 0 1 0 -1 0 0 48092.dat
0 STEP
1 71 100 -272 -780 0 0 -1 0 1 0 1 0 0 48092.dat
1 71 20 -296 -700 1 0 0 0 1 0 0 0 1 48092.dat
1 71 100 -296 -780 0 0 -1 0 1 0 1 0 0 48092.dat
1 71 100 -320 -780 0 0 -1 0 1 0 1 0 0 48092.dat
1 71 20 -320 -700 1 0 0 0 1 0 0 0 1 48092.dat
1 72 100 -344 -780 0 0 -1 0 1 0 1 0 0 48092.dat
1 72 20 -344 -700 1 0 0 0 1 0 0 0 1 48092.dat
1 71 20 -368 -700 1 0 0 0 1 0 0 0 1 48092.dat
0 STEP
1 71 180 -296 -860 -1 0 0 0 1 0 0 0 -1 48092.dat
1 71 100 -296 -780 0 0 1 0 1 0 -1 0 0 48092.dat
1 71 100 -320 -780 0 0 1 0 1 0 -1 0 0 48092.dat
1 71 180 -320 -860 -1 0 0 0 1 0 0 0 -1 48092.dat
1 72 180 -344 -860 -1 0 0 0 1 0 0 0 -1 48092.dat
1 72 100 -344 -780 0 0 1 0 1 0 -1 0 0 48092.dat
1 71 100 -368 -780 0 0 1 0 1 0 -1 0 0 48092.dat
1 71 180 -368 -860 -1 0 0 0 1 0 0 0 -1 48092.dat
0 STEP
1 71 100 -368 -780 0 0 -1 0 1 0 1 0 0 48092.dat
1 71 30 -392 -780 0 0 -1 0 1 0 1 0 0 3004.dat
1 71 150 -392 -730 1 0 0 0 1 0 0 0 1 3005.dat
1 71 50 -392 -830 1 0 0 0 1 0 0 0 1 3005.dat
1 71 100 -392 -710 1 0 0 0 1 0 0 0 1 11211.dat
1 71 100 -392 -850 1 0 0 0 1 0 0 0 1 3004.dat
1 71 70 -392 -750 1 0 0 0 1 0 0 0 1 87087.dat
1 72 100 -400 -850 1 0 0 0 1 0 0 0 1 44728.dat
0 STEP
1 71 130 -392 -810 1 0 0 0 1 0 0 0 1 3005.dat
1 71 170 -392 -780 0 0 -1 0 1 0 1 0 0 3004.dat
1 72 170 -400 -780 0 0 -1 0 1 0 1 0 0 3069b.dat
1 72 130 -400 -810 1 0 0 0 1 0 0 0 1 3070b.dat
0 STEP
1 72 150 -400 -730 1 0 0 0 1 0 0 0 1 3070b.dat
1 72 70 -400 -750 1 0 0 0 1 0 0 0 1 3070b.dat
1 72 100 -400 -710 1 0 0 0 1 0 0 0 1 3069b.dat
1 72 50 -400 -830 1 0 0 0 1 0 0 0 1 3070b.dat
1 72 34 -432 -780 0 0 1 0 1 0 -1 0 0 44728.dat
0
0 NOFILE
