0 House
0 Name: house.ldr
0 Author: Brickworks

1 2 40 -8 -40 1 -0 -0 -0 1 0 -0 0 1 3031.dat
1 2 120 -8 -40 1 -0 -0 -0 1 0 -0 0 1 3031.dat
1 2 200 -8 -40 1 -0 -0 -0 1 0 -0 0 1 3031.dat
1 2 280 -8 -40 1 -0 -0 -0 1 0 -0 0 1 3031.dat
1 2 40 -8 -120 1 -0 -0 -0 1 0 -0 0 1 3031.dat
1 2 120 -8 -120 1 -0 -0 -0 1 0 -0 0 1 3031.dat
1 2 200 -8 -120 1 -0 -0 -0 1 0 -0 0 1 3031.dat
1 2 280 -8 -120 1 -0 -0 -0 1 0 -0 0 1 3031.dat
1 2 40 -8 -200 1 -0 -0 -0 1 0 -0 0 1 3031.dat
1 2 120 -8 -200 1 -0 -0 -0 1 0 -0 0 1 3031.dat
1 2 200 -8 -200 1 -0 -0 -0 1 0 -0 0 1 3031.dat
1 2 280 -8 -200 1 -0 -0 -0 1 0 -0 0 1 3031.dat
1 7 150 -16 -10 1 -0 -0 -0 1 0 -0 0 1 3623.dat
1 7 150 -16 -30 1 -0 -0 -0 1 0 -0 0 1 3623.dat
1 7 150 -16 -50 1 -0 -0 -0 1 0 -0 0 1 3623.dat
1 19 100 -16 -120 1 -0 -0 -0 1 0 -0 0 1 3031.dat
1 19 180 -16 -120 1 -0 -0 -0 1 0 -0 0 1 3031.dat
1 19 230 -32 -120 -0 -0 -1 -0 1 0 1 0 -0 3010.dat
1 19 250 -32 -120 -0 -0 -1 -0 1 0 1 0 -0 3010.dat
1 19 50 -32 -120 -0 -0 -1 -0 1 0 1 0 -0 3010.dat
1 19 80 -32 -70 1 -0 -0 -0 1 0 -0 0 1 3010.dat
1 70 150 -32 -70 1 -0 -0 -0 1 0 -0 0 1 3622.dat
1 19 220 -32 -70 1 -0 -0 -0 1 0 -0 0 1 3010.dat
1 19 230 -32 -170 1 -0 -0 -0 1 0 -0 0 1 3622.dat
1 19 120 -32 -170 1 -0 -0 -0 1 0 -0 0 1 3008.dat
1 19 50 -56 -100 -0 -0 -1 -0 1 0 1 0 -0 3010.dat
1 19 210 -56 -170 1 -0 -0 -0 1 0 -0 0 1 3622.dat
1 19 120 -56 -170 1 -0 -0 -0 1 0 -0 0 1 3009.dat
1 41 220 -56 -70 1 -0 -0 -0 1 0 -0 0 1 3004.dat
1 19 50 -56 -160 -0 -0 -1 -0 1 0 1 0 -0 3004.dat
1 19 250 -56 -100 -0 -0 -1 -0 1 0 1 0 -0 3010.dat
1 19 250 -56 -160 -0 -0 -1 -0 1 0 1 0 -0 3004.dat
1 19 190 -56 -70 1 -0 -0 -0 1 0 -0 0 1 3005.dat
1 70 150 -56 -70 1 -0 -0 -0 1 0 -0 0 1 3622.dat
1 19 110 -56 -70 1 -0 -0 -0 1 0 -0 0 1 3005.dat
1 41 80 -56 -70 1 -0 -0 -0 1 0 -0 0 1 3004.dat
1 19 50 -80 -70 1 -0 -0 -0 1 0 -0 0 1 3005.dat
1 41 80 -80 -70 1 -0 -0 -0 1 0 -0 0 1 3004.dat
1 19 250 -80 -120 -0 -0 -1 -0 1 0 1 0 -0 3010.dat
1 19 50 -80 -120 -0 -0 -1 -0 1 0 1 0 -0 3010.dat
1 19 250 -80 -170 1 -0 -0 -0 1 0 -0 0 1 3005.dat
1 19 110 -80 -70 1 -0 -0 -0 1 0 -0 0 1 3005.dat
1 70 150 -80 -70 1 -0 -0 -0 1 0 -0 0 1 3622.dat
1 19 190 -80 -70 1 -0 -0 -0 1 0 -0 0 1 3005.dat
1 19 180 -80 -170 1 -0 -0 -0 1 0 -0 0 1 3009.dat
1 19 80 -80 -170 1 -0 -0 -0 1 0 -0 0 1 3010.dat
1 19 250 -80 -70 1 -0 -0 -0 1 0 -0 0 1 3005.dat
1 41 220 -80 -70 1 -0 -0 -0 1 0 -0 0 1 3004.dat
1 19 100 -104 -70 1 -0 -0 -0 1 0 -0 0 1 3009.dat
1 19 200 -104 -70 1 -0 -0 -0 1 0 -0 0 1 3010.dat
1 19 250 -104 -120 -0 -0 -1 -0 1 0 1 0 -0 3010.dat
1 19 250 -104 -70 1 -0 -0 -0 1 0 -0 0 1 3005.dat
1 19 120 -104 -170 1 -0 -0 -0 1 0 -0 0 1 3008.dat
1 19 230 -104 -170 1 -0 -0 -0 1 0 -0 0 1 3622.dat
1 19 50 -104 -120 -0 -0 -1 -0 1 0 1 0 -0 3010.dat
1 19 80 -112 -100 1 -0 -0 -0 1 0 -0 0 1 3031.dat
1 19 160 -112 -100 1 -0 -0 -0 1 0 -0 0 1 3031.dat
1 19 250 -112 -160 -0 -0 -1 -0 1 0 1 0 -0 3023b.dat
1 19 100 -112 -160 1 -0 -0 -0 1 0 -0 0 1 3795.dat
1 19 200 -112 -160 1 -0 -0 -0 1 0 -0 0 1 3020.dat
1 19 230 -112 -120 1 -0 -0 -0 1 0 -0 0 1 3021.dat
1 19 230 -112 -80 1 -0 -0 -0 1 0 -0 0 1 3021.dat
1 4 140 -136 -80 1 -0 -0 -0 1 0 -0 0 1 3039.dat
1 4 60 -136 -180 -1 -0 0 -0 1 0 -0 0 -1 3039.dat
1 4 100 -136 -180 -1 -0 0 -0 1 0 -0 0 -1 3039.dat
1 4 140 -136 -180 -1 -0 0 -0 1 0 -0 0 -1 3039.dat
1 4 60 -136 -80 1 -0 -0 -0 1 0 -0 0 1 3039.dat
1 4 180 -136 -80 1 -0 -0 -0 1 0 -0 0 1 3039.dat
1 4 180 -136 -180 -1 -0 0 -0 1 0 -0 0 -1 3039.dat
1 4 220 -136 -180 -1 -0 0 -0 1 0 -0 0 -1 3039.dat
1 4 220 -136 -80 1 -0 -0 -0 1 0 -0 0 1 3039.dat
1 4 250 -136 -180 -1 -0 0 -0 1 0 -0 0 -1 3040b.dat
1 4 250 -136 -80 1 -0 -0 -0 1 0 -0 0 1 3040b.dat
1 4 100 -136 -80 1 -0 -0 -0 1 0 -0 0 1 3039.dat
1 4 140 -160 -100 1 -0 -0 -0 1 0 -0 0 1 3039.dat
1 4 180 -160 -100 1 -0 -0 -0 1 0 -0 0 1 3039.dat
1 4 220 -160 -100 1 -0 -0 -0 1 0 -0 0 1 3039.dat
1 4 250 -160 -100 1 -0 -0 -0 1 0 -0 0 1 3040b.dat
1 4 60 -160 -160 -1 -0 0 -0 1 0 -0 0 -1 3039.dat
1 4 100 -160 -160 -1 -0 0 -0 1 0 -0 0 -1 3039.dat
1 4 140 -160 -160 -1 -0 0 -0 1 0 -0 0 -1 3039.dat
1 4 180 -160 -160 -1 -0 0 -0 1 0 -0 0 -1 3039.dat
1 4 220 -160 -160 -1 -0 0 -0 1 0 -0 0 -1 3039.dat
1 4 250 -160 -160 -1 -0 0 -0 1 0 -0 0 -1 3040b.dat
1 4 60 -160 -100 1 -0 -0 -0 1 0 -0 0 1 3039.dat
1 4 100 -160 -100 1 -0 -0 -0 1 0 -0 0 1 3039.dat
1 4 80 -168 -120 1 -0 -0 -0 1 0 -0 0 1 3020.dat
1 4 160 -168 -120 1 -0 -0 -0 1 0 -0 0 1 3020.dat
1 4 220 -168 -120 1 -0 -0 -0 1 0 -0 0 1 3022.dat
1 4 250 -168 -120 -0 -0 -1 -0 1 0 1 0 -0 3023b.dat
1 70 80 -192 -120 1 -0 -0 -0 1 0 -0 0 1 3003.dat
1 70 80 -216 -120 1 -0 -0 -0 1 0 -0 0 1 3003.dat
0
