0 Technic Go-Kart
0 Name: kart.ldr
0 Author: Brickworks

1 1 50 -30 -230 0 0 -1 0 1 0 1 0 0 6558.dat
1 1 50 -30 -50 0 0 -1 0 1 0 1 0 0 6558.dat
1 1 250 -30 -50 0 0 -1 0 1 0 1 0 0 6558.dat
1 1 250 -30 -230 0 0 -1 0 1 0 1 0 0 6558.dat
1 1 90 -30 -90 0 0 -1 0 1 0 1 0 0 6558.dat
1 1 90 -30 -190 0 0 -1 0 1 0 1 0 0 6558.dat
1 0 270 -30 -210 0 0 -1 0 1 0 1 0 0 39793.dat
1 0 50 -30 -30 -1 0 0 0 1 0 0 0 -1 105162.dat
1 0 50 -30 -250 1 0 0 0 1 0 0 0 1 105162.dat
1 0 250 -30 -30 -1 0 0 0 1 0 0 0 -1 105162.dat
1 0 250 -30 -250 1 0 0 0 1 0 0 0 1 105162.dat
1 0 70 -30 -70 0 0 -1 0 1 0 1 0 0 39793.dat
1 0 70 -30 -210 0 0 -1 0 1 0 1 0 0 39793.dat
1 0 270 -30 -70 0 0 -1 0 1 0 1 0 0 39793.dat
1 71 270 -40 -210 0 -1 0 1 0 0 0 0 1 3673.dat
1 71 290 -40 -70 0 -1 0 1 0 0 0 0 1 3673.dat
1 71 290 -40 -210 0 -1 0 1 0 0 0 0 1 3673.dat
1 71 270 -40 -70 0 -1 0 1 0 0 0 0 1 3673.dat
1 0 70 -40 -210 0 -1 0 1 0 0 0 0 1 2780.dat
1 72 70 -40 -170 1 0 0 0 1 0 0 0 1 3701.dat
1 72 70 -40 -110 1 0 0 0 1 0 0 0 1 3701.dat
1 0 70 -40 -70 0 -1 0 1 0 0 0 0 1 2780.dat
1 0 90 -48 -140 1 0 0 0 1 0 0 0 1 3031.dat
1 71 290 -50 -130 1 0 0 0 1 0 0 0 1 40490.dat
1 4 150 -50 -210 0 0 -1 0 1 0 1 0 0 41239.dat
1 4 150 -50 -70 0 0 -1 0 1 0 1 0 0 41239.dat
1 0 130 -60 -210 0 -1 0 1 0 0 0 0 1 2780.dat
1 0 90 -60 -210 0 -1 0 1 0 0 0 0 1 2780.dat
1 0 230 -60 -210 0 -1 0 1 0 0 0 0 1 2780.dat
1 0 230 -60 -70 0 -1 0 1 0 0 0 0 1 2780.dat
1 0 170 -60 -210 0 -1 0 1 0 0 0 0 1 2780.dat
1 0 170 -60 -70 0 -1 0 1 0 0 0 0 1 2780.dat
1 0 30 -60 -210 0 -1 0 1 0 0 0 0 1 2780.dat
1 0 30 -60 -70 0 -1 0 1 0 0 0 0 1 2780.dat
1 4 230 -70 -130 1 0 0 0 1 0 0 0 1 40490.dat
1 0 110 -70 -210 0 0 -1 0 1 0 1 0 0 39793.dat
1 4 170 -70 -130 1 0 0 0 1 0 0 0 1 40490.dat
1 4 30 -70 -130 1 0 0 0 1 0 0 0 1 40490.dat
1 0 60 -72 -140 0 0 -1 0 1 0 1 0 0 3010.dat
1 0 60 -96 -140 0 0 -1 0 1 0 1 0 0 3010.dat
1 0 60 -104 -140 0 0 -1 0 1 0 1 0 0 2431.dat
1 72 212.2335 -104.8129 -140 0.76604444 0.64278758 0 -0.64278758 0.76604444 0 0 0 1 3062b.dat
1 72 196.8066 -123.198 -140 0.76604444 0.64278758 0 -0.64278758 0.76604444 0 0 0 1 3062b.dat
1 0 187.7786 -131.9441 -140 0.76604444 0.64278758 0 -0.64278758 0.76604444 0 0 0 1 16091.dat
0
