0 Rock Point Lighthouse
0 Name: rock_point_lighthouse.ldr
0 Author: Brickworks
0 // A stepped three-tier grey rock island, textured with small 1x1/1x2 rocks and 45° slope wedges, carries a white 4x4 tower with red plate bands and a black doorway, topped by an overhanging grey gallery with a dark-grey railing, a hollow yellow lantern room, a black roof plate and a red 4x4 cone with a yellow light finial.

1 72 100 -24 20 1 0 0 0 1 0 0 0 1 3006.dat
1 72 100 -24 60 1 0 0 0 1 0 0 0 1 3006.dat
1 72 100 -24 100 1 0 0 0 1 0 0 0 1 3006.dat
1 72 100 -24 140 1 0 0 0 1 0 0 0 1 3006.dat
1 72 100 -24 180 1 0 0 0 1 0 0 0 1 3006.dat
1 71 100 -48 40 1 0 0 0 1 0 0 0 1 3007.dat
1 71 100 -48 80 1 0 0 0 1 0 0 0 1 3007.dat
1 71 100 -48 120 1 0 0 0 1 0 0 0 1 3007.dat
1 71 100 -48 160 1 0 0 0 1 0 0 0 1 3007.dat
1 72 100 -72 60 1 0 0 0 1 0 0 0 1 2456.dat
1 72 100 -72 100 1 0 0 0 1 0 0 0 1 2456.dat
1 72 100 -72 140 1 0 0 0 1 0 0 0 1 2456.dat
1 71 20 -48 10 1 0 0 0 1 0 0 0 1 3004.dat
1 72 80 -48 10 1 0 0 0 1 0 0 0 1 3004.dat
1 71 130 -48 10 1 0 0 0 1 0 0 0 1 3005.dat
1 72 160 -48 10 1 0 0 0 1 0 0 0 1 3004.dat
1 71 10 -48 40 1 0 0 0 1 0 0 0 1 3040b.dat
1 72 10 -48 90 1 0 0 0 1 0 0 0 1 3005.dat
1 71 10 -48 140 1 0 0 0 1 0 0 0 1 3040b.dat
1 72 190 -48 20 1 0 0 0 1 0 0 0 1 3040b.dat
1 71 190 -48 70 1 0 0 0 1 0 0 0 1 3005.dat
1 72 190 -48 120 1 0 0 0 1 0 0 0 1 3040b.dat
1 71 190 -48 170 1 0 0 0 1 0 0 0 1 3005.dat
1 71 40 -48 190 1 0 0 0 1 0 0 0 1 3004.dat
1 72 90 -48 190 1 0 0 0 1 0 0 0 1 3005.dat
1 71 140 -48 190 1 0 0 0 1 0 0 0 1 3004.dat
1 71 40 -72 30 1 0 0 0 1 0 0 0 1 3004.dat
1 72 90 -72 30 1 0 0 0 1 0 0 0 1 3005.dat
1 71 140 -72 30 1 0 0 0 1 0 0 0 1 3004.dat
1 72 30 -72 60 1 0 0 0 1 0 0 0 1 3040b.dat
1 71 30 -72 110 1 0 0 0 1 0 0 0 1 3005.dat
1 71 30 -72 160 1 0 0 0 1 0 0 0 1 3040b.dat
1 72 170 -72 40 1 0 0 0 1 0 0 0 1 3040b.dat
1 71 170 -72 90 1 0 0 0 1 0 0 0 1 3005.dat
1 72 170 -72 140 1 0 0 0 1 0 0 0 1 3040b.dat
1 71 60 -72 170 1 0 0 0 1 0 0 0 1 3004.dat
1 72 110 -72 170 1 0 0 0 1 0 0 0 1 3005.dat
1 71 50 -96 50 1 0 0 0 1 0 0 0 1 3005.dat
1 72 150 -96 50 1 0 0 0 1 0 0 0 1 3005.dat
1 72 50 -96 150 1 0 0 0 1 0 0 0 1 3005.dat
1 71 150 -96 150 1 0 0 0 1 0 0 0 1 3005.dat
1 72 100 -80 50 1 0 0 0 1 0 0 0 1 3069b.dat
1 15 70 -96 70 1 0 0 0 1 0 0 0 1 3005.dat
1 0 100 -96 70 1 0 0 0 1 0 0 0 1 3004.dat
1 15 130 -96 70 1 0 0 0 1 0 0 0 1 3005.dat
1 15 100 -96 90 1 0 0 0 1 0 0 0 1 3010.dat
1 15 100 -96 120 1 0 0 0 1 0 0 0 1 3001.dat
1 15 70 -120 70 1 0 0 0 1 0 0 0 1 3005.dat
1 0 100 -120 70 1 0 0 0 1 0 0 0 1 3004.dat
1 15 130 -120 70 1 0 0 0 1 0 0 0 1 3005.dat
1 15 100 -120 90 1 0 0 0 1 0 0 0 1 3010.dat
1 15 100 -120 120 1 0 0 0 1 0 0 0 1 3001.dat
1 4 100 -128 100 1 0 0 0 1 0 0 0 1 3031.dat
1 15 100 -152 80 1 0 0 0 1 0 0 0 1 3001.dat
1 15 100 -152 120 1 0 0 0 1 0 0 0 1 3001.dat
1 4 100 -160 100 1 0 0 0 1 0 0 0 1 3031.dat
1 15 70 -184 70 1 0 0 0 1 0 0 0 1 3005.dat
1 0 90 -184 70 1 0 0 0 1 0 0 0 1 3005.dat
1 15 120 -184 70 1 0 0 0 1 0 0 0 1 3004.dat
1 15 100 -184 90 1 0 0 0 1 0 0 0 1 3010.dat
1 15 100 -184 120 1 0 0 0 1 0 0 0 1 3001.dat
1 4 100 -192 100 1 0 0 0 1 0 0 0 1 3031.dat
1 15 100 -216 80 1 0 0 0 1 0 0 0 1 3001.dat
1 15 100 -216 120 1 0 0 0 1 0 0 0 1 3001.dat
1 71 100 -224 100 1 0 0 0 1 0 0 0 1 3958.dat
1 72 100 -248 50 1 0 0 0 1 0 0 0 1 3009.dat
1 72 100 -248 150 1 0 0 0 1 0 0 0 1 3009.dat
1 72 50 -248 70 1 0 0 0 1 0 0 0 1 3005.dat
1 72 50 -248 90 1 0 0 0 1 0 0 0 1 3005.dat
1 72 50 -248 110 1 0 0 0 1 0 0 0 1 3005.dat
1 72 50 -248 130 1 0 0 0 1 0 0 0 1 3005.dat
1 72 150 -248 70 1 0 0 0 1 0 0 0 1 3005.dat
1 72 150 -248 90 1 0 0 0 1 0 0 0 1 3005.dat
1 72 150 -248 110 1 0 0 0 1 0 0 0 1 3005.dat
1 72 150 -248 130 1 0 0 0 1 0 0 0 1 3005.dat
1 14 100 -248 70 1 0 0 0 1 0 0 0 1 3010.dat
1 14 100 -248 130 1 0 0 0 1 0 0 0 1 3010.dat
1 14 70 -248 90 1 0 0 0 1 0 0 0 1 3005.dat
1 14 70 -248 110 1 0 0 0 1 0 0 0 1 3005.dat
1 14 130 -248 90 1 0 0 0 1 0 0 0 1 3005.dat
1 14 130 -248 110 1 0 0 0 1 0 0 0 1 3005.dat
1 0 100 -256 100 1 0 0 0 1 0 0 0 1 3958.dat
1 4 100 -328 100 1 0 0 0 1 0 0 0 1 272.dat
1 14 90 -336 90 1 0 0 0 1 0 0 0 1 6141.dat
0
