0 Rocket
0 Name: rocket.ldr
0 Author: Brickworks

1 72 80 -8 -80 1 0 0 0 1 0 0 0 1 41539.dat
1 72 240 -8 -80 1 0 0 0 1 0 0 0 1 41539.dat
1 72 80 -8 -240 1 0 0 0 1 0 0 0 1 41539.dat
1 72 240 -8 -240 1 0 0 0 1 0 0 0 1 41539.dat
1 0 70 -16 -120 0 0 -1 0 1 0 1 0 0 3069b.dat
1 14 240 -16 -250 1 0 0 0 1 0 0 0 1 3069b.dat
1 14 70 -16 -160 0 0 -1 0 1 0 1 0 0 3069b.dat
1 0 70 -16 -200 0 0 -1 0 1 0 1 0 0 3069b.dat
1 0 250 -16 -120 0 0 -1 0 1 0 1 0 0 3069b.dat
1 14 250 -16 -200 0 0 -1 0 1 0 1 0 0 3069b.dat
1 71 160 -16 -160 1 0 0 0 1 0 0 0 1 3958.dat
1 0 200 -16 -250 1 0 0 0 1 0 0 0 1 3069b.dat
1 14 160 -16 -250 1 0 0 0 1 0 0 0 1 3069b.dat
1 0 120 -16 -250 1 0 0 0 1 0 0 0 1 3069b.dat
1 14 80 -16 -250 1 0 0 0 1 0 0 0 1 3069b.dat
1 14 240 -16 -70 1 0 0 0 1 0 0 0 1 3069b.dat
1 0 200 -16 -70 1 0 0 0 1 0 0 0 1 3069b.dat
1 14 160 -16 -70 1 0 0 0 1 0 0 0 1 3069b.dat
1 14 80 -16 -70 1 0 0 0 1 0 0 0 1 3069b.dat
1 0 120 -16 -70 1 0 0 0 1 0 0 0 1 3069b.dat
1 71 260 -32 -150 1 0 0 0 1 0 0 0 1 3004.dat
1 71 260 -32 -170 1 0 0 0 1 0 0 0 1 3004.dat
1 71 30 -32 -30 1 0 0 0 1 0 0 0 1 3005.dat
1 71 290 -32 -30 1 0 0 0 1 0 0 0 1 3005.dat
1 71 30 -32 -290 1 0 0 0 1 0 0 0 1 3005.dat
1 71 290 -32 -290 1 0 0 0 1 0 0 0 1 3005.dat
1 72 160 -40 -160 1 0 0 0 1 0 0 0 1 3941.dat
1 4 200 -40 -150 1 0 0 0 1 0 0 0 1 3004.dat
1 4 120 -40 -150 1 0 0 0 1 0 0 0 1 3004.dat
1 4 150 -40 -200 0 0 -1 0 1 0 1 0 0 3004.dat
1 4 150 -40 -120 0 0 -1 0 1 0 1 0 0 3004.dat
1 71 270 -56 -160 0 0 -1 0 1 0 1 0 0 3004.dat
1 71 250 -56 -160 0 0 -1 0 1 0 1 0 0 3004.dat
1 71 30 -56 -30 1 0 0 0 1 0 0 0 1 3005.dat
1 71 290 -56 -30 1 0 0 0 1 0 0 0 1 3005.dat
1 71 30 -56 -290 1 0 0 0 1 0 0 0 1 3005.dat
1 71 290 -56 -290 1 0 0 0 1 0 0 0 1 3005.dat
1 4 120 -64 -150 1 0 0 0 1 0 0 0 1 3004.dat
1 14 290 -64 -290 1 0 0 0 1 0 0 0 1 6141.dat
1 14 30 -64 -290 1 0 0 0 1 0 0 0 1 6141.dat
1 14 290 -64 -30 1 0 0 0 1 0 0 0 1 6141.dat
1 4 150 -64 -200 0 0 -1 0 1 0 1 0 0 3004.dat
1 14 30 -64 -30 1 0 0 0 1 0 0 0 1 6141.dat
1 15 160 -64 -160 1 0 0 0 1 0 0 0 1 3941.dat
1 4 200 -64 -150 1 0 0 0 1 0 0 0 1 3004.dat
1 4 150 -64 -120 0 0 -1 0 1 0 1 0 0 3004.dat
1 71 260 -80 -170 1 0 0 0 1 0 0 0 1 3004.dat
1 71 260 -80 -150 1 0 0 0 1 0 0 0 1 3004.dat
1 4 150 -88 -130 -1 0 0 0 1 0 0 0 -1 3040b.dat
1 15 160 -88 -160 1 0 0 0 1 0 0 0 1 3941.dat
1 4 130 -88 -150 0 0 1 0 1 0 -1 0 0 3040b.dat
1 4 150 -88 -190 1 0 0 0 1 0 0 0 1 3040b.dat
1 4 190 -88 -150 0 0 -1 0 1 0 1 0 0 3040b.dat
1 71 270 -104 -160 0 0 -1 0 1 0 1 0 0 3004.dat
1 71 250 -104 -160 0 0 -1 0 1 0 1 0 0 3004.dat
1 15 160 -112 -160 1 0 0 0 1 0 0 0 1 3941.dat
1 71 240 -112 -170 1 0 0 0 1 0 0 0 1 3710.dat
1 14 210 -120 -170 1 0 0 0 1 0 0 0 1 6141.dat
1 71 260 -128 -150 1 0 0 0 1 0 0 0 1 3004.dat
1 4 160 -136 -160 1 0 0 0 1 0 0 0 1 3941.dat
1 71 250 -152 -160 0 0 -1 0 1 0 1 0 0 3004.dat
1 71 220 -160 -160 1 0 0 0 1 0 0 0 1 3020.dat
1 15 160 -160 -160 1 0 0 0 1 0 0 0 1 3941.dat
1 14 190 -168 -150 1 0 0 0 1 0 0 0 1 6141.dat
1 15 160 -184 -160 1 0 0 0 1 0 0 0 1 3941.dat
1 15 160 -208 -160 1 0 0 0 1 0 0 0 1 3941.dat
1 4 160 -256 -160 1 0 0 0 1 0 0 0 1 3942c.dat
1 0 160 -264 -160 1 0 0 0 1 0 0 0 1 6141.dat
0
