0 Fire Station
0 Name: model.ldr
0 Author: Brickworks

1 72 160 -8 -160 1 0 0 0 1 0 0 0 1 91405.dat
0 STEP
1 72 160 -8 -480 1 0 0 0 1 0 0 0 1 91405.dat
1 72 160 -16 -500 1 0 0 0 1 0 0 0 1 87079.dat
1 72 20 -16 -500 1 0 0 0 1 0 0 0 1 3068b.dat
1 72 120 -16 -540 1 0 0 0 1 0 0 0 1 87079.dat
1 72 40 -16 -540 1 0 0 0 1 0 0 0 1 87079.dat
1 71 80 -16 -580 1 0 0 0 1 0 0 0 1 87079.dat
1 71 20 -16 -580 1 0 0 0 1 0 0 0 1 3068b.dat
1 71 40 -16 -620 1 0 0 0 1 0 0 0 1 87079.dat
0 STEP
1 72 480 -8 -480 1 0 0 0 1 0 0 0 1 91405.dat
1 72 620 -16 -500 1 0 0 0 1 0 0 0 1 3068b.dat
1 72 480 -16 -500 1 0 0 0 1 0 0 0 1 87079.dat
1 72 520 -16 -540 1 0 0 0 1 0 0 0 1 87079.dat
1 72 600 -16 -540 1 0 0 0 1 0 0 0 1 87079.dat
1 71 560 -16 -580 1 0 0 0 1 0 0 0 1 87079.dat
1 71 620 -16 -580 1 0 0 0 1 0 0 0 1 3068b.dat
1 71 600 -16 -620 1 0 0 0 1 0 0 0 1 87079.dat
0 STEP
1 72 480 -8 -160 1 0 0 0 1 0 0 0 1 91405.dat
0 STEP
1 19 630 -32 -140 0 0 -1 0 1 0 1 0 0 3008.dat
0 STEP
1 19 630 -32 -40 0 0 -1 0 1 0 1 0 0 3004.dat
1 19 600 -32 -10 1 0 0 0 1 0 0 0 1 3010.dat
1 19 630 -56 -60 0 0 -1 0 1 0 1 0 0 3009.dat
1 19 630 -80 -40 0 0 -1 0 1 0 1 0 0 3004.dat
1 19 630 -80 -90 0 0 -1 0 1 0 1 0 0 3622.dat
0 STEP
1 19 500 -32 -10 1 0 0 0 1 0 0 0 1 3009.dat
1 19 560 -56 -10 1 0 0 0 1 0 0 0 1 3009.dat
1 19 600 -80 -10 1 0 0 0 1 0 0 0 1 3010.dat
1 19 590 -104 -10 1 0 0 0 1 0 0 0 1 3622.dat
1 19 630 -104 -60 0 0 -1 0 1 0 1 0 0 3009.dat
1 19 630 -128 -40 0 0 -1 0 1 0 1 0 0 3004.dat
1 19 600 -128 -10 1 0 0 0 1 0 0 0 1 3010.dat
0 STEP
1 19 400 -32 -10 1 0 0 0 1 0 0 0 1 3010.dat
1 19 370 -56 -10 1 0 0 0 1 0 0 0 1 3005.dat
1 15 320 -152 -10 1 0 0 0 1 0 0 0 1 60596.dat
0 STEP
1 19 240 -32 -10 1 0 0 0 1 0 0 0 1 3010.dat
1 19 270 -56 -10 1 0 0 0 1 0 0 0 1 3005.dat
0 STEP
1 19 140 -32 -10 1 0 0 0 1 0 0 0 1 3009.dat
1 19 200 -56 -10 1 0 0 0 1 0 0 0 1 3009.dat
1 19 220 -80 -10 1 0 0 0 1 0 0 0 1 3009.dat
1 19 200 -104 -10 1 0 0 0 1 0 0 0 1 3010.dat
1 19 260 -104 -10 1 0 0 0 1 0 0 0 1 3004.dat
1 19 220 -128 -10 1 0 0 0 1 0 0 0 1 3009.dat
1 19 220 -152 -10 1 0 0 0 1 0 0 0 1 3010.dat
1 19 270 -152 -10 1 0 0 0 1 0 0 0 1 3005.dat
0 STEP
1 19 10 -32 -40 0 0 -1 0 1 0 1 0 0 3004.dat
1 19 40 -32 -10 1 0 0 0 1 0 0 0 1 3010.dat
1 19 80 -56 -10 1 0 0 0 1 0 0 0 1 3009.dat
1 15 120 -128 -10 1 0 0 0 1 0 0 0 1 60594.dat
0 STEP
1 19 10 -32 -140 0 0 -1 0 1 0 1 0 0 3008.dat
0 STEP
1 19 10 -32 -300 0 0 -1 0 1 0 1 0 0 3008.dat
0 STEP
1 72 120 -16 -410 1 0 0 0 1 0 0 0 1 4162.dat
1 14 140 -16 -430 1 0 0 0 1 0 0 0 1 6636.dat
1 72 80 -16 -500 1 0 0 0 1 0 0 0 1 87079.dat
1 72 40 -16 -430 1 0 0 0 1 0 0 0 1 2431.dat
1 72 40 -16 -460 1 0 0 0 1 0 0 0 1 87079.dat
1 72 120 -16 -460 1 0 0 0 1 0 0 0 1 87079.dat
1 72 20 -32 -410 1 0 0 0 1 0 0 0 1 3004.dat
1 19 40 -32 -390 1 0 0 0 1 0 0 0 1 3010.dat
0 STEP
1 72 350 -16 -410 1 0 0 0 1 0 0 0 1 63864.dat
1 72 290 -16 -410 1 0 0 0 1 0 0 0 1 63864.dat
1 72 210 -16 -410 1 0 0 0 1 0 0 0 1 3070b.dat
1 72 260 -16 -430 1 0 0 0 1 0 0 0 1 6636.dat
1 72 280 -16 -460 1 0 0 0 1 0 0 0 1 87079.dat
1 72 240 -32 -410 1 0 0 0 1 0 0 0 1 3004.dat
1 4 140 -32 -390 1 0 0 0 1 0 0 0 1 3009.dat
1 19 240 -32 -390 1 0 0 0 1 0 0 0 1 3010.dat
0 STEP
1 72 430 -16 -410 1 0 0 0 1 0 0 0 1 3070b.dat
1 72 380 -16 -430 1 0 0 0 1 0 0 0 1 6636.dat
1 72 440 -16 -460 1 0 0 0 1 0 0 0 1 87079.dat
1 72 400 -16 -500 1 0 0 0 1 0 0 0 1 87079.dat
1 72 440 -16 -540 1 0 0 0 1 0 0 0 1 87079.dat
1 71 480 -16 -580 1 0 0 0 1 0 0 0 1 87079.dat
1 19 400 -32 -390 1 0 0 0 1 0 0 0 1 3010.dat
1 72 400 -32 -410 1 0 0 0 1 0 0 0 1 3004.dat
0 STEP
1 71 440 -16 -620 1 0 0 0 1 0 0 0 1 87079.dat
1 71 520 -16 -620 1 0 0 0 1 0 0 0 1 87079.dat
1 71 280 -16 -620 1 0 0 0 1 0 0 0 1 87079.dat
1 71 200 -16 -620 1 0 0 0 1 0 0 0 1 87079.dat
1 71 320 -16 -580 1 0 0 0 1 0 0 0 1 87079.dat
1 71 360 -16 -620 1 0 0 0 1 0 0 0 1 87079.dat
1 71 240 -16 -580 1 0 0 0 1 0 0 0 1 87079.dat
1 71 400 -16 -580 1 0 0 0 1 0 0 0 1 87079.dat
0 STEP
1 71 120 -16 -620 1 0 0 0 1 0 0 0 1 87079.dat
1 71 160 -16 -580 1 0 0 0 1 0 0 0 1 87079.dat
0 STEP
1 72 240 -16 -500 1 0 0 0 1 0 0 0 1 87079.dat
1 72 280 -16 -540 1 0 0 0 1 0 0 0 1 87079.dat
1 72 200 -16 -540 1 0 0 0 1 0 0 0 1 87079.dat
1 72 360 -16 -540 1 0 0 0 1 0 0 0 1 87079.dat
1 72 320 -16 -500 1 0 0 0 1 0 0 0 1 87079.dat
1 72 360 -16 -460 1 0 0 0 1 0 0 0 1 87079.dat
1 19 400 -56 -390 1 0 0 0 1 0 0 0 1 3010.dat
1 15 400 -56 -410 1 0 0 0 1 0 0 0 1 3004.dat
0 STEP
1 15 320 -152 -390 1 0 0 0 1 0 0 0 1 60596.dat
0 STEP
1 72 200 -16 -460 1 0 0 0 1 0 0 0 1 87079.dat
1 15 240 -56 -410 1 0 0 0 1 0 0 0 1 3004.dat
1 19 240 -56 -390 1 0 0 0 1 0 0 0 1 3010.dat
1 15 240 -80 -410 1 0 0 0 1 0 0 0 1 3004.dat
1 19 240 -80 -390 1 0 0 0 1 0 0 0 1 3010.dat
1 19 240 -104 -390 1 0 0 0 1 0 0 0 1 3010.dat
1 15 240 -104 -410 1 0 0 0 1 0 0 0 1 3004.dat
1 19 240 -128 -390 1 0 0 0 1 0 0 0 1 3010.dat
0 STEP
1 72 560 -16 -500 1 0 0 0 1 0 0 0 1 87079.dat
1 14 500 -16 -430 1 0 0 0 1 0 0 0 1 6636.dat
1 72 520 -16 -410 1 0 0 0 1 0 0 0 1 4162.dat
1 72 600 -16 -430 1 0 0 0 1 0 0 0 1 2431.dat
1 72 600 -16 -460 1 0 0 0 1 0 0 0 1 87079.dat
1 72 520 -16 -460 1 0 0 0 1 0 0 0 1 87079.dat
1 72 620 -32 -410 1 0 0 0 1 0 0 0 1 3004.dat
1 4 500 -32 -390 1 0 0 0 1 0 0 0 1 3009.dat
0 STEP
1 19 600 -32 -390 1 0 0 0 1 0 0 0 1 3010.dat
1 19 590 -56 -390 1 0 0 0 1 0 0 0 1 3622.dat
1 15 620 -56 -410 1 0 0 0 1 0 0 0 1 3004.dat
1 15 620 -80 -410 1 0 0 0 1 0 0 0 1 3004.dat
1 15 620 -104 -410 1 0 0 0 1 0 0 0 1 3004.dat
1 15 620 -128 -410 1 0 0 0 1 0 0 0 1 3004.dat
1 15 620 -152 -410 1 0 0 0 1 0 0 0 1 3004.dat
1 15 620 -176 -410 1 0 0 0 1 0 0 0 1 3004.dat
0 STEP
1 19 630 -32 -300 0 0 -1 0 1 0 1 0 0 3008.dat
1 19 630 -56 -340 0 0 -1 0 1 0 1 0 0 3009.dat
1 19 630 -80 -350 0 0 -1 0 1 0 1 0 0 3622.dat
1 19 600 -80 -390 1 0 0 0 1 0 0 0 1 3010.dat
1 19 590 -104 -390 1 0 0 0 1 0 0 0 1 3622.dat
1 19 630 -104 -360 0 0 -1 0 1 0 1 0 0 3010.dat
1 19 630 -128 -350 0 0 -1 0 1 0 1 0 0 3622.dat
1 15 630 -128 -300 0 0 -1 0 1 0 1 0 0 60593.dat
0 STEP
1 4 500 -56 -390 1 0 0 0 1 0 0 0 1 3009.dat
1 19 400 -80 -390 1 0 0 0 1 0 0 0 1 3010.dat
1 15 400 -80 -410 1 0 0 0 1 0 0 0 1 3004.dat
1 19 400 -104 -390 1 0 0 0 1 0 0 0 1 3010.dat
1 15 400 -104 -410 1 0 0 0 1 0 0 0 1 3004.dat
1 4 540 -128 -390 1 0 0 0 1 0 0 0 1 60593.dat
1 4 500 -128 -390 1 0 0 0 1 0 0 0 1 60593.dat
1 4 460 -128 -390 1 0 0 0 1 0 0 0 1 60593.dat
0 STEP
1 19 50 -56 -390 1 0 0 0 1 0 0 0 1 3622.dat
1 19 10 -56 -340 0 0 -1 0 1 0 1 0 0 3009.dat
1 15 20 -56 -410 1 0 0 0 1 0 0 0 1 3004.dat
1 4 140 -56 -390 1 0 0 0 1 0 0 0 1 3009.dat
1 19 10 -80 -350 0 0 -1 0 1 0 1 0 0 3622.dat
1 19 40 -80 -390 1 0 0 0 1 0 0 0 1 3010.dat
1 4 100 -128 -390 1 0 0 0 1 0 0 0 1 60593.dat
1 4 140 -128 -390 1 0 0 0 1 0 0 0 1 60593.dat
0 STEP
1 19 10 -56 -200 0 0 -1 0 1 0 1 0 0 3008.dat
1 19 10 -80 -220 0 0 -1 0 1 0 1 0 0 3009.dat
1 19 10 -104 -200 0 0 -1 0 1 0 1 0 0 3010.dat
1 15 10 -128 -140 0 0 -1 0 1 0 1 0 0 60593.dat
0 STEP
1 19 10 -56 -60 0 0 -1 0 1 0 1 0 0 3009.dat
1 19 40 -80 -10 1 0 0 0 1 0 0 0 1 3010.dat
1 19 10 -80 -40 0 0 -1 0 1 0 1 0 0 3004.dat
1 19 50 -104 -10 1 0 0 0 1 0 0 0 1 3622.dat
0 STEP
1 19 440 -56 -10 1 0 0 0 1 0 0 0 1 3009.dat
1 19 420 -80 -10 1 0 0 0 1 0 0 0 1 3009.dat
1 19 440 -104 -10 1 0 0 0 1 0 0 0 1 3010.dat
1 15 520 -128 -10 1 0 0 0 1 0 0 0 1 60594.dat
0 STEP
1 19 630 -56 -200 0 0 -1 0 1 0 1 0 0 3008.dat
1 19 630 -80 -220 0 0 -1 0 1 0 1 0 0 3009.dat
1 19 630 -104 -200 0 0 -1 0 1 0 1 0 0 3010.dat
1 15 630 -128 -140 0 0 -1 0 1 0 1 0 0 60593.dat
1 19 630 -128 -90 0 0 -1 0 1 0 1 0 0 3622.dat
1 19 630 -152 -40 0 0 -1 0 1 0 1 0 0 3010.dat
0 STEP
1 15 240 -128 -410 1 0 0 0 1 0 0 0 1 3004.dat
1 4 180 -128 -390 1 0 0 0 1 0 0 0 1 60593.dat
1 15 240 -152 -410 1 0 0 0 1 0 0 0 1 3004.dat
1 19 250 -152 -390 1 0 0 0 1 0 0 0 1 3622.dat
1 15 240 -176 -410 1 0 0 0 1 0 0 0 1 3004.dat
1 19 250 -176 -390 1 0 0 0 1 0 0 0 1 3622.dat
0 STEP
1 15 20 -80 -410 1 0 0 0 1 0 0 0 1 3004.dat
1 19 10 -104 -260 0 0 -1 0 1 0 1 0 0 3004.dat
1 19 10 -104 -360 0 0 -1 0 1 0 1 0 0 3010.dat
1 15 20 -104 -410 1 0 0 0 1 0 0 0 1 3004.dat
1 19 50 -104 -390 1 0 0 0 1 0 0 0 1 3622.dat
1 19 10 -128 -220 0 0 -1 0 1 0 1 0 0 3009.dat
1 15 10 -128 -300 0 0 -1 0 1 0 1 0 0 60593.dat
0 STEP
1 19 10 -80 -90 0 0 -1 0 1 0 1 0 0 3622.dat
1 19 10 -104 -60 0 0 -1 0 1 0 1 0 0 3009.dat
1 19 10 -128 -40 0 0 -1 0 1 0 1 0 0 3004.dat
1 19 40 -128 -10 1 0 0 0 1 0 0 0 1 3010.dat
1 19 100 -152 -10 1 0 0 0 1 0 0 0 1 3008.dat
0 STEP
1 19 380 -104 -10 1 0 0 0 1 0 0 0 1 3004.dat
1 19 420 -128 -10 1 0 0 0 1 0 0 0 1 3009.dat
1 19 370 -152 -10 1 0 0 0 1 0 0 0 1 3005.dat
1 19 420 -152 -10 1 0 0 0 1 0 0 0 1 3010.dat
0 STEP
1 19 630 -104 -260 0 0 -1 0 1 0 1 0 0 3004.dat
1 19 630 -128 -220 0 0 -1 0 1 0 1 0 0 3009.dat
1 19 630 -152 -160 0 0 -1 0 1 0 1 0 0 3008.dat
0 STEP
1 19 600 -128 -390 1 0 0 0 1 0 0 0 1 3010.dat
1 19 600 -152 -390 1 0 0 0 1 0 0 0 1 3004.dat
1 19 630 -152 -320 0 0 -1 0 1 0 1 0 0 3008.dat
1 19 610 -176 -390 1 0 0 0 1 0 0 0 1 3622.dat
1 19 630 -176 -320 0 0 -1 0 1 0 1 0 0 3009.dat
1 19 630 -200 -350 0 0 -1 0 1 0 1 0 0 3622.dat
1 19 630 -200 -300 0 0 -1 0 1 0 1 0 0 3004.dat
0 STEP
1 15 400 -128 -410 1 0 0 0 1 0 0 0 1 3004.dat
1 19 400 -128 -390 1 0 0 0 1 0 0 0 1 3010.dat
1 15 400 -152 -410 1 0 0 0 1 0 0 0 1 3004.dat
1 19 390 -152 -390 1 0 0 0 1 0 0 0 1 3622.dat
1 15 400 -176 -410 1 0 0 0 1 0 0 0 1 3004.dat
1 19 390 -176 -390 1 0 0 0 1 0 0 0 1 3622.dat
0 STEP
1 19 10 -128 -350 0 0 -1 0 1 0 1 0 0 3622.dat
1 15 20 -128 -410 1 0 0 0 1 0 0 0 1 3004.dat
1 19 40 -128 -390 1 0 0 0 1 0 0 0 1 3010.dat
1 19 10 -152 -320 0 0 -1 0 1 0 1 0 0 3008.dat
1 15 20 -152 -410 1 0 0 0 1 0 0 0 1 3004.dat
1 19 40 -152 -390 1 0 0 0 1 0 0 0 1 3004.dat
1 19 30 -176 -390 1 0 0 0 1 0 0 0 1 3622.dat
1 15 20 -176 -410 1 0 0 0 1 0 0 0 1 3004.dat
0 STEP
1 19 10 -128 -90 0 0 -1 0 1 0 1 0 0 3622.dat
1 19 10 -152 -40 0 0 -1 0 1 0 1 0 0 3010.dat
1 19 80 -176 -10 1 0 0 0 1 0 0 0 1 3008.dat
0 STEP
1 19 10 -152 -160 0 0 -1 0 1 0 1 0 0 3008.dat
1 19 10 -176 -180 0 0 -1 0 1 0 1 0 0 3008.dat
0 STEP
1 15 140 -176 -390 1 0 0 0 1 0 0 0 1 16577.dat
1 15 80 -200 -400 1 0 0 0 1 0 0 0 1 3007.dat
1 15 80 -208 -410 1 0 0 0 1 0 0 0 1 4162.dat
1 19 40 -224 -390 1 0 0 0 1 0 0 0 1 3010.dat
1 19 110 -224 -390 1 0 0 0 1 0 0 0 1 3622.dat
1 19 80 -248 -390 1 0 0 0 1 0 0 0 1 3009.dat
0 STEP
1 15 500 -176 -390 1 0 0 0 1 0 0 0 1 16577.dat
1 15 560 -200 -400 1 0 0 0 1 0 0 0 1 3007.dat
1 15 560 -208 -410 1 0 0 0 1 0 0 0 1 4162.dat
1 19 530 -224 -390 1 0 0 0 1 0 0 0 1 3622.dat
1 19 600 -224 -390 1 0 0 0 1 0 0 0 1 3010.dat
1 19 560 -248 -390 1 0 0 0 1 0 0 0 1 3009.dat
0 STEP
1 19 540 -152 -10 1 0 0 0 1 0 0 0 1 3008.dat
1 19 560 -176 -10 1 0 0 0 1 0 0 0 1 3008.dat
0 STEP
1 19 630 -176 -60 0 0 -1 0 1 0 1 0 0 3010.dat
0 STEP
1 19 630 -176 -180 0 0 -1 0 1 0 1 0 0 3008.dat
1 19 630 -200 -200 0 0 -1 0 1 0 1 0 0 3008.dat
0 STEP
1 19 420 -176 -10 1 0 0 0 1 0 0 0 1 3009.dat
1 19 430 -200 -10 1 0 0 0 1 0 0 0 1 3622.dat
0 STEP
1 19 220 -176 -10 1 0 0 0 1 0 0 0 1 3009.dat
1 19 210 -200 -10 1 0 0 0 1 0 0 0 1 3622.dat
0 STEP
1 19 10 -176 -60 0 0 -1 0 1 0 1 0 0 3010.dat
1 19 10 -200 -60 0 0 -1 0 1 0 1 0 0 3009.dat
1 19 10 -224 -40 0 0 -1 0 1 0 1 0 0 3004.dat
0 STEP
1 19 10 -176 -320 0 0 -1 0 1 0 1 0 0 3009.dat
1 19 10 -200 -350 0 0 -1 0 1 0 1 0 0 3622.dat
1 19 10 -200 -300 0 0 -1 0 1 0 1 0 0 3004.dat
0 STEP
1 19 10 -200 -200 0 0 -1 0 1 0 1 0 0 3008.dat
1 19 10 -224 -140 0 0 -1 0 1 0 1 0 0 3008.dat
0 STEP
1 19 100 -200 -10 1 0 0 0 1 0 0 0 1 3008.dat
1 19 80 -224 -10 1 0 0 0 1 0 0 0 1 3008.dat
1 19 10 -248 -40 0 0 -1 0 1 0 1 0 0 3010.dat
0 STEP
1 19 320 -200 -10 1 0 0 0 1 0 0 0 1 3008.dat
0 STEP
1 19 540 -200 -10 1 0 0 0 1 0 0 0 1 3008.dat
0 STEP
1 19 630 -200 -60 0 0 -1 0 1 0 1 0 0 3009.dat
1 19 560 -224 -10 1 0 0 0 1 0 0 0 1 3008.dat
1 19 630 -224 -40 0 0 -1 0 1 0 1 0 0 3004.dat
0 STEP
1 15 400 -200 -400 1 0 0 0 1 0 0 0 1 3007.dat
1 15 400 -208 -410 1 0 0 0 1 0 0 0 1 4162.dat
0 STEP
1 15 240 -200 -400 1 0 0 0 1 0 0 0 1 3007.dat
1 4 220 -208 -390 1 0 0 0 1 0 0 0 1 3460.dat
1 15 240 -208 -410 1 0 0 0 1 0 0 0 1 4162.dat
1 4 210 -216 -390 1 0 0 0 1 0 0 0 1 3623.dat
1 15 170 -216 -390 1 0 0 0 1 0 0 0 1 3024.dat
1 4 150 -216 -390 1 0 0 0 1 0 0 0 1 3024.dat
1 15 170 -224 -390 1 0 0 0 1 0 0 0 1 3024.dat
1 4 150 -224 -390 1 0 0 0 1 0 0 0 1 3024.dat
0 STEP
1 19 10 -224 -300 0 0 -1 0 1 0 1 0 0 3008.dat
1 19 10 -248 -320 0 0 -1 0 1 0 1 0 0 3008.dat
0 STEP
1 4 480 -208 -390 1 0 0 0 1 0 0 0 1 3023b.dat
1 4 380 -208 -390 1 0 0 0 1 0 0 0 1 3460.dat
1 4 490 -216 -390 1 0 0 0 1 0 0 0 1 3024.dat
1 15 450 -216 -390 1 0 0 0 1 0 0 0 1 3623.dat
1 4 410 -216 -390 1 0 0 0 1 0 0 0 1 3024.dat
1 15 390 -216 -390 1 0 0 0 1 0 0 0 1 3024.dat
1 4 360 -216 -390 1 0 0 0 1 0 0 0 1 3023b.dat
1 15 430 -224 -390 1 0 0 0 1 0 0 0 1 3024.dat
0 STEP
1 19 630 -224 -300 0 0 -1 0 1 0 1 0 0 3008.dat
1 19 630 -248 -320 0 0 -1 0 1 0 1 0 0 3008.dat
0 STEP
1 19 630 -224 -140 0 0 -1 0 1 0 1 0 0 3008.dat
1 19 630 -248 -160 0 0 -1 0 1 0 1 0 0 3008.dat
0 STEP
1 19 400 -224 -10 1 0 0 0 1 0 0 0 1 3008.dat
1 19 430 -248 -10 1 0 0 0 1 0 0 0 1 3622.dat
0 STEP
1 19 240 -224 -10 1 0 0 0 1 0 0 0 1 3008.dat
1 19 100 -248 -10 1 0 0 0 1 0 0 0 1 3008.dat
1 19 210 -248 -10 1 0 0 0 1 0 0 0 1 3622.dat
1 15 80 -256 -10 1 0 0 0 1 0 0 0 1 3460.dat
1 15 160 -256 -40 1 0 0 0 1 0 0 0 1 4282.dat
1 19 10 -280 -40 0 0 -1 0 1 0 1 0 0 3004.dat
1 19 80 -280 -10 1 0 0 0 1 0 0 0 1 3008.dat
1 19 60 -304 -10 1 0 0 0 1 0 0 0 1 3010.dat
0 STEP
1 15 330 -216 -390 1 0 0 0 1 0 0 0 1 3024.dat
1 4 310 -216 -390 1 0 0 0 1 0 0 0 1 3024.dat
1 15 270 -216 -390 1 0 0 0 1 0 0 0 1 3623.dat
1 4 470 -224 -390 1 0 0 0 1 0 0 0 1 3623.dat
1 4 400 -224 -390 1 0 0 0 1 0 0 0 1 3023b.dat
1 15 370 -224 -390 1 0 0 0 1 0 0 0 1 3024.dat
1 4 350 -224 -390 1 0 0 0 1 0 0 0 1 3024.dat
1 15 330 -224 -390 1 0 0 0 1 0 0 0 1 3024.dat
0 STEP
1 4 220 -224 -390 1 0 0 0 1 0 0 0 1 3710.dat
1 15 270 -224 -390 1 0 0 0 1 0 0 0 1 3024.dat
1 4 300 -224 -390 1 0 0 0 1 0 0 0 1 3023b.dat
1 4 400 -232 -390 1 0 0 0 1 0 0 0 1 3023b.dat
1 15 350 -232 -390 1 0 0 0 1 0 0 0 1 3623.dat
1 4 230 -232 -390 1 0 0 0 1 0 0 0 1 3623.dat
1 15 270 -232 -390 1 0 0 0 1 0 0 0 1 3024.dat
1 4 300 -232 -390 1 0 0 0 1 0 0 0 1 3023b.dat
0 STEP
1 15 440 -232 -390 1 0 0 0 1 0 0 0 1 3023b.dat
1 4 480 -232 -390 1 0 0 0 1 0 0 0 1 3023b.dat
1 4 470 -240 -390 1 0 0 0 1 0 0 0 1 3623.dat
1 15 430 -240 -390 1 0 0 0 1 0 0 0 1 3024.dat
1 4 410 -240 -390 1 0 0 0 1 0 0 0 1 3024.dat
1 15 390 -240 -390 1 0 0 0 1 0 0 0 1 3024.dat
1 4 360 -240 -390 1 0 0 0 1 0 0 0 1 3023b.dat
1 15 330 -240 -390 1 0 0 0 1 0 0 0 1 3024.dat
0 STEP
1 15 180 -232 -390 1 0 0 0 1 0 0 0 1 3023b.dat
1 4 150 -232 -390 1 0 0 0 1 0 0 0 1 3024.dat
1 4 150 -240 -390 1 0 0 0 1 0 0 0 1 3024.dat
1 15 170 -240 -390 1 0 0 0 1 0 0 0 1 3024.dat
1 4 220 -240 -390 1 0 0 0 1 0 0 0 1 3710.dat
1 15 270 -240 -390 1 0 0 0 1 0 0 0 1 3024.dat
1 4 300 -240 -390 1 0 0 0 1 0 0 0 1 3023b.dat
1 4 310 -248 -390 1 0 0 0 1 0 0 0 1 3024.dat
0 STEP
1 19 10 -248 -160 0 0 -1 0 1 0 1 0 0 3008.dat
0 STEP
1 19 320 -248 -10 1 0 0 0 1 0 0 0 1 3008.dat
0 STEP
1 19 540 -248 -10 1 0 0 0 1 0 0 0 1 3008.dat
0 STEP
1 19 630 -248 -40 0 0 -1 0 1 0 1 0 0 3010.dat
1 15 560 -256 -10 1 0 0 0 1 0 0 0 1 3460.dat
1 19 560 -280 -10 1 0 0 0 1 0 0 0 1 3008.dat
1 19 580 -304 -10 1 0 0 0 1 0 0 0 1 3010.dat
1 19 550 -328 -10 1 0 0 0 1 0 0 0 1 3005.dat
0 STEP
1 4 490 -248 -390 1 0 0 0 1 0 0 0 1 3024.dat
1 15 450 -248 -390 1 0 0 0 1 0 0 0 1 3623.dat
1 4 400 -248 -390 1 0 0 0 1 0 0 0 1 3023b.dat
1 15 350 -248 -390 1 0 0 0 1 0 0 0 1 3623.dat
1 15 270 -248 -390 1 0 0 0 1 0 0 0 1 3623.dat
1 4 230 -248 -390 1 0 0 0 1 0 0 0 1 3024.dat
1 15 190 -248 -390 1 0 0 0 1 0 0 0 1 3623.dat
1 4 150 -248 -390 1 0 0 0 1 0 0 0 1 3024.dat
0 STEP
1 15 160 -256 -120 1 0 0 0 1 0 0 0 1 4282.dat
1 15 160 -256 -160 1 0 0 0 1 0 0 0 1 4282.dat
1 15 160 -256 -200 1 0 0 0 1 0 0 0 1 4282.dat
1 15 160 -256 -240 1 0 0 0 1 0 0 0 1 4282.dat
1 15 160 -256 -280 1 0 0 0 1 0 0 0 1 4282.dat
1 15 160 -256 -320 1 0 0 0 1 0 0 0 1 4282.dat
1 15 100 -256 -360 1 0 0 0 1 0 0 0 1 3832.dat
1 15 100 -256 -400 1 0 0 0 1 0 0 0 1 3832.dat
0 STEP
1 15 160 -256 -80 1 0 0 0 1 0 0 0 1 4282.dat
0 STEP
1 15 240 -256 -10 1 0 0 0 1 0 0 0 1 3460.dat
1 19 240 -280 -10 1 0 0 0 1 0 0 0 1 3008.dat
1 19 270 -304 -10 1 0 0 0 1 0 0 0 1 3005.dat
1 19 220 -304 -10 1 0 0 0 1 0 0 0 1 3010.dat
1 19 240 -328 -10 1 0 0 0 1 0 0 0 1 3010.dat
1 19 190 -328 -10 1 0 0 0 1 0 0 0 1 3005.dat
1 19 90 -328 -10 1 0 0 0 1 0 0 0 1 3005.dat
1 15 140 -352 -10 1 0 0 0 1 0 0 0 1 60594.dat
0 STEP
1 15 400 -256 -10 1 0 0 0 1 0 0 0 1 3460.dat
1 15 480 -256 -80 1 0 0 0 1 0 0 0 1 4282.dat
1 15 480 -256 -120 1 0 0 0 1 0 0 0 1 4282.dat
1 15 480 -256 -40 1 0 0 0 1 0 0 0 1 4282.dat
1 15 480 -256 -160 1 0 0 0 1 0 0 0 1 4282.dat
1 15 480 -256 -200 1 0 0 0 1 0 0 0 1 4282.dat
1 19 400 -280 -10 1 0 0 0 1 0 0 0 1 3008.dat
1 19 420 -304 -10 1 0 0 0 1 0 0 0 1 3010.dat
0 STEP
1 15 480 -256 -320 1 0 0 0 1 0 0 0 1 4282.dat
1 15 480 -256 -280 1 0 0 0 1 0 0 0 1 4282.dat
1 15 480 -256 -240 1 0 0 0 1 0 0 0 1 4282.dat
1 15 540 -256 -360 1 0 0 0 1 0 0 0 1 3832.dat
1 15 540 -256 -400 1 0 0 0 1 0 0 0 1 3832.dat
1 15 500 -280 -390 1 0 0 0 1 0 0 0 1 3009.dat
1 15 500 -352 -390 1 0 0 0 1 0 0 0 1 60594.dat
0 STEP
1 15 380 -256 -400 1 0 0 0 1 0 0 0 1 3958.dat
1 19 400 -280 -390 1 0 0 0 1 0 0 0 1 3010.dat
1 19 420 -304 -390 1 0 0 0 1 0 0 0 1 3010.dat
1 19 370 -304 -390 1 0 0 0 1 0 0 0 1 3005.dat
1 19 450 -328 -390 1 0 0 0 1 0 0 0 1 3005.dat
1 19 400 -328 -390 1 0 0 0 1 0 0 0 1 3010.dat
1 19 370 -352 -390 1 0 0 0 1 0 0 0 1 3005.dat
1 19 420 -352 -390 1 0 0 0 1 0 0 0 1 3010.dat
0 STEP
1 15 260 -256 -400 1 0 0 0 1 0 0 0 1 3958.dat
1 19 240 -280 -390 1 0 0 0 1 0 0 0 1 3010.dat
1 19 270 -304 -390 1 0 0 0 1 0 0 0 1 3005.dat
1 15 320 -328 -390 1 0 0 0 1 0 0 0 1 60594.dat
1 19 400 -376 -390 1 0 0 0 1 0 0 0 1 3010.dat
1 19 370 -400 -390 1 0 0 0 1 0 0 0 1 3005.dat
1 15 320 -400 -390 1 0 0 0 1 0 0 0 1 60594.dat
0 STEP
1 15 140 -280 -390 1 0 0 0 1 0 0 0 1 3009.dat
1 15 140 -352 -390 1 0 0 0 1 0 0 0 1 60594.dat
0 STEP
1 19 40 -280 -390 1 0 0 0 1 0 0 0 1 3010.dat
1 19 60 -304 -390 1 0 0 0 1 0 0 0 1 3010.dat
1 19 90 -328 -390 1 0 0 0 1 0 0 0 1 3005.dat
0 STEP
1 19 10 -280 -300 0 0 -1 0 1 0 1 0 0 3008.dat
1 19 10 -304 -360 0 0 -1 0 1 0 1 0 0 3010.dat
1 19 40 -328 -390 1 0 0 0 1 0 0 0 1 3010.dat
1 19 10 -328 -350 0 0 -1 0 1 0 1 0 0 3622.dat
1 15 10 -352 -300 0 0 -1 0 1 0 1 0 0 60593.dat
1 19 60 -352 -390 1 0 0 0 1 0 0 0 1 3010.dat
1 19 10 -352 -360 0 0 -1 0 1 0 1 0 0 3010.dat
1 19 40 -376 -390 1 0 0 0 1 0 0 0 1 3010.dat
0 STEP
1 19 10 -280 -140 0 0 -1 0 1 0 1 0 0 3008.dat
1 15 10 -352 -140 0 0 -1 0 1 0 1 0 0 60593.dat
0 STEP
1 19 630 -280 -140 0 0 -1 0 1 0 1 0 0 3008.dat
1 15 630 -352 -140 0 0 -1 0 1 0 1 0 0 60593.dat
0 STEP
1 19 630 -280 -40 0 0 -1 0 1 0 1 0 0 3004.dat
1 19 630 -304 -60 0 0 -1 0 1 0 1 0 0 3009.dat
1 19 600 -328 -10 1 0 0 0 1 0 0 0 1 3010.dat
1 19 630 -328 -40 0 0 -1 0 1 0 1 0 0 3004.dat
1 19 580 -352 -10 1 0 0 0 1 0 0 0 1 3010.dat
0 STEP
1 19 630 -280 -300 0 0 -1 0 1 0 1 0 0 3008.dat
1 15 630 -352 -300 0 0 -1 0 1 0 1 0 0 60593.dat
0 STEP
1 19 600 -280 -390 1 0 0 0 1 0 0 0 1 3010.dat
1 19 580 -304 -390 1 0 0 0 1 0 0 0 1 3010.dat
1 19 630 -304 -360 0 0 -1 0 1 0 1 0 0 3010.dat
1 19 600 -328 -390 1 0 0 0 1 0 0 0 1 3010.dat
1 19 550 -328 -390 1 0 0 0 1 0 0 0 1 3005.dat
1 19 630 -328 -350 0 0 -1 0 1 0 1 0 0 3622.dat
1 19 580 -352 -390 1 0 0 0 1 0 0 0 1 3010.dat
1 19 630 -352 -360 0 0 -1 0 1 0 1 0 0 3010.dat
0 STEP
1 19 630 -304 -220 0 0 -1 0 1 0 1 0 0 3009.dat
1 19 630 -328 -260 0 0 -1 0 1 0 1 0 0 3004.dat
1 19 630 -328 -200 0 0 -1 0 1 0 1 0 0 3010.dat
1 19 630 -352 -220 0 0 -1 0 1 0 1 0 0 3009.dat
0 STEP
1 19 450 -328 -10 1 0 0 0 1 0 0 0 1 3005.dat
1 15 500 -352 -10 1 0 0 0 1 0 0 0 1 60594.dat
0 STEP
1 19 370 -304 -10 1 0 0 0 1 0 0 0 1 3005.dat
1 19 400 -328 -10 1 0 0 0 1 0 0 0 1 3010.dat
1 15 320 -352 -10 1 0 0 0 1 0 0 0 1 60594.dat
1 19 420 -352 -10 1 0 0 0 1 0 0 0 1 3010.dat
1 19 370 -352 -10 1 0 0 0 1 0 0 0 1 3005.dat
1 19 400 -376 -10 1 0 0 0 1 0 0 0 1 3008.dat
1 19 430 -400 -10 1 0 0 0 1 0 0 0 1 3622.dat
0 STEP
1 19 10 -304 -60 0 0 -1 0 1 0 1 0 0 3009.dat
1 19 10 -328 -40 0 0 -1 0 1 0 1 0 0 3004.dat
1 19 40 -328 -10 1 0 0 0 1 0 0 0 1 3010.dat
1 19 60 -352 -10 1 0 0 0 1 0 0 0 1 3010.dat
0 STEP
1 19 10 -304 -220 0 0 -1 0 1 0 1 0 0 3009.dat
1 19 10 -328 -260 0 0 -1 0 1 0 1 0 0 3004.dat
1 19 10 -328 -200 0 0 -1 0 1 0 1 0 0 3010.dat
1 19 10 -352 -220 0 0 -1 0 1 0 1 0 0 3009.dat
0 STEP
1 19 220 -304 -390 1 0 0 0 1 0 0 0 1 3010.dat
1 19 240 -328 -390 1 0 0 0 1 0 0 0 1 3010.dat
1 19 190 -328 -390 1 0 0 0 1 0 0 0 1 3005.dat
1 19 270 -352 -390 1 0 0 0 1 0 0 0 1 3005.dat
1 19 220 -352 -390 1 0 0 0 1 0 0 0 1 3010.dat
1 19 240 -376 -390 1 0 0 0 1 0 0 0 1 3010.dat
1 19 270 -400 -390 1 0 0 0 1 0 0 0 1 3005.dat
0 STEP
1 19 10 -328 -90 0 0 -1 0 1 0 1 0 0 3622.dat
1 19 10 -352 -60 0 0 -1 0 1 0 1 0 0 3009.dat
1 19 10 -376 -60 0 0 -1 0 1 0 1 0 0 3010.dat
0 STEP
1 19 630 -328 -90 0 0 -1 0 1 0 1 0 0 3622.dat
1 19 630 -352 -60 0 0 -1 0 1 0 1 0 0 3009.dat
1 19 630 -376 -60 0 0 -1 0 1 0 1 0 0 3010.dat
0 STEP
1 19 270 -352 -10 1 0 0 0 1 0 0 0 1 3005.dat
1 19 220 -352 -10 1 0 0 0 1 0 0 0 1 3010.dat
1 19 240 -376 -10 1 0 0 0 1 0 0 0 1 3008.dat
1 19 210 -400 -10 1 0 0 0 1 0 0 0 1 3622.dat
0 STEP
1 19 80 -376 -10 1 0 0 0 1 0 0 0 1 3008.dat
1 19 100 -400 -10 1 0 0 0 1 0 0 0 1 3008.dat
0 STEP
1 19 10 -376 -180 0 0 -1 0 1 0 1 0 0 3008.dat
1 19 10 -400 -160 0 0 -1 0 1 0 1 0 0 3008.dat
0 STEP
1 19 10 -376 -320 0 0 -1 0 1 0 1 0 0 3009.dat
1 19 10 -400 -320 0 0 -1 0 1 0 1 0 0 3008.dat
0 STEP
1 15 140 -376 -390 1 0 0 0 1 0 0 0 1 3009.dat
1 19 100 -400 -390 1 0 0 0 1 0 0 0 1 3008.dat
1 19 220 -400 -390 1 0 0 0 1 0 0 0 1 3010.dat
1 15 160 -408 -400 1 0 0 0 1 0 0 0 1 4282.dat
1 15 160 -408 -360 1 0 0 0 1 0 0 0 1 4282.dat
1 15 160 -408 -320 1 0 0 0 1 0 0 0 1 4282.dat
1 15 160 -408 -280 1 0 0 0 1 0 0 0 1 4282.dat
1 15 160 -408 -240 1 0 0 0 1 0 0 0 1 4282.dat
0 STEP
1 15 500 -376 -390 1 0 0 0 1 0 0 0 1 3009.dat
0 STEP
1 19 630 -376 -320 0 0 -1 0 1 0 1 0 0 3009.dat
1 19 600 -376 -390 1 0 0 0 1 0 0 0 1 3010.dat
0 STEP
1 19 630 -376 -180 0 0 -1 0 1 0 1 0 0 3008.dat
1 19 630 -400 -160 0 0 -1 0 1 0 1 0 0 3008.dat
0 STEP
1 19 560 -376 -10 1 0 0 0 1 0 0 0 1 3008.dat
1 19 540 -400 -10 1 0 0 0 1 0 0 0 1 3008.dat
0 STEP
1 19 630 -400 -40 0 0 -1 0 1 0 1 0 0 3010.dat
1 15 480 -408 -160 1 0 0 0 1 0 0 0 1 4282.dat
1 15 480 -408 -120 1 0 0 0 1 0 0 0 1 4282.dat
1 15 480 -408 -80 1 0 0 0 1 0 0 0 1 4282.dat
1 15 480 -408 -40 1 0 0 0 1 0 0 0 1 4282.dat
1 15 560 -408 -10 1 0 0 0 1 0 0 0 1 3460.dat
1 0 600 -432 -10 1 0 0 0 1 0 0 0 1 3633.dat
1 0 520 -432 -10 1 0 0 0 1 0 0 0 1 3633.dat
0 STEP
1 19 630 -400 -320 0 0 -1 0 1 0 1 0 0 3008.dat
0 STEP
1 19 540 -400 -390 1 0 0 0 1 0 0 0 1 3008.dat
1 19 420 -400 -390 1 0 0 0 1 0 0 0 1 3010.dat
1 15 480 -408 -200 1 0 0 0 1 0 0 0 1 4282.dat
1 15 480 -408 -240 1 0 0 0 1 0 0 0 1 4282.dat
1 15 480 -408 -280 1 0 0 0 1 0 0 0 1 4282.dat
1 15 480 -408 -320 1 0 0 0 1 0 0 0 1 4282.dat
1 15 480 -408 -360 1 0 0 0 1 0 0 0 1 4282.dat
1 15 480 -408 -400 1 0 0 0 1 0 0 0 1 4282.dat
0 STEP
1 19 320 -400 -10 1 0 0 0 1 0 0 0 1 3008.dat
0 STEP
1 19 10 -400 -40 0 0 -1 0 1 0 1 0 0 3010.dat
1 15 160 -408 -160 1 0 0 0 1 0 0 0 1 4282.dat
1 15 160 -408 -120 1 0 0 0 1 0 0 0 1 4282.dat
1 15 160 -408 -80 1 0 0 0 1 0 0 0 1 4282.dat
1 15 160 -408 -40 1 0 0 0 1 0 0 0 1 4282.dat
1 15 80 -408 -10 1 0 0 0 1 0 0 0 1 3460.dat
1 0 120 -432 -10 1 0 0 0 1 0 0 0 1 3633.dat
1 0 40 -432 -10 1 0 0 0 1 0 0 0 1 3633.dat
0 STEP
1 15 160 -408 -200 1 0 0 0 1 0 0 0 1 4282.dat
0 STEP
1 15 240 -408 -10 1 0 0 0 1 0 0 0 1 3460.dat
1 0 200 -432 -10 1 0 0 0 1 0 0 0 1 3633.dat
1 0 280 -432 -10 1 0 0 0 1 0 0 0 1 3633.dat
0 STEP
1 15 400 -408 -10 1 0 0 0 1 0 0 0 1 3460.dat
1 0 440 -432 -10 1 0 0 0 1 0 0 0 1 3633.dat
1 0 360 -432 -10 1 0 0 0 1 0 0 0 1 3633.dat
0 STEP
1 15 560 -416 -410 1 0 0 0 1 0 0 0 1 4162.dat
1 0 630 -432 -30 1 0 0 0 1 0 0 0 1 3062b.dat
1 0 630 -432 -370 1 0 0 0 1 0 0 0 1 3062b.dat
1 0 630 -432 -80 0 0 -1 0 1 0 1 0 0 3633.dat
1 0 630 -432 -160 0 0 -1 0 1 0 1 0 0 3633.dat
1 19 560 -432 -390 1 0 0 0 1 0 0 0 1 3008.dat
1 0 630 -432 -240 0 0 -1 0 1 0 1 0 0 3633.dat
1 0 630 -432 -320 0 0 -1 0 1 0 1 0 0 3633.dat
0 STEP
1 15 400 -416 -410 1 0 0 0 1 0 0 0 1 4162.dat
1 19 400 -432 -390 1 0 0 0 1 0 0 0 1 3008.dat
0 STEP
1 15 240 -416 -410 1 0 0 0 1 0 0 0 1 4162.dat
1 19 240 -432 -390 1 0 0 0 1 0 0 0 1 3008.dat
0 STEP
1 15 80 -416 -410 1 0 0 0 1 0 0 0 1 4162.dat
1 19 80 -432 -390 1 0 0 0 1 0 0 0 1 3008.dat
1 0 10 -432 -320 0 0 -1 0 1 0 1 0 0 3633.dat
1 0 10 -432 -240 0 0 -1 0 1 0 1 0 0 3633.dat
1 0 10 -432 -160 0 0 -1 0 1 0 1 0 0 3633.dat
1 0 10 -432 -80 0 0 -1 0 1 0 1 0 0 3633.dat
1 0 10 -432 -370 1 0 0 0 1 0 0 0 1 3062b.dat
1 0 10 -432 -30 1 0 0 0 1 0 0 0 1 3062b.dat
0 STEP
1 19 40 -456 -390 1 0 0 0 1 0 0 0 1 3010.dat
0 STEP
1 19 160 -456 -390 1 0 0 0 1 0 0 0 1 3008.dat
1 15 200 -464 -390 1 0 0 0 1 0 0 0 1 2431.dat
0 STEP
1 19 320 -456 -390 1 0 0 0 1 0 0 0 1 3008.dat
1 19 320 -480 -390 1 0 0 0 1 0 0 0 1 3008.dat
1 15 250 -488 -390 1 0 0 0 1 0 0 0 1 3070b.dat
1 15 390 -488 -390 1 0 0 0 1 0 0 0 1 3070b.dat
1 19 320 -504 -390 1 0 0 0 1 0 0 0 1 3009.dat
1 15 280 -512 -390 1 0 0 0 1 0 0 0 1 3069b.dat
1 15 360 -512 -390 1 0 0 0 1 0 0 0 1 3069b.dat
0 STEP
1 19 480 -456 -390 1 0 0 0 1 0 0 0 1 3008.dat
1 15 440 -464 -390 1 0 0 0 1 0 0 0 1 2431.dat
0 STEP
1 19 600 -456 -390 1 0 0 0 1 0 0 0 1 3010.dat
1 15 560 -464 -390 1 0 0 0 1 0 0 0 1 4162.dat
0 STEP
1 15 80 -464 -390 1 0 0 0 1 0 0 0 1 4162.dat
0
