0 Tower
0 Name: tower.ldr
0 Author: Brickworks

1 72 40 -24 -30 1 0 0 0 1 0 0 0 1 3004.dat
1 72 120 -24 -30 1 0 0 0 1 0 0 0 1 3004.dat
1 72 10 -24 -60 0 0 -1 0 1 0 1 0 0 3004.dat
1 72 150 -24 -60 0 0 -1 0 1 0 1 0 0 3004.dat
1 72 80 -24 -80 0 0 1 0 1 0 -1 0 0 48092.dat
1 72 80 -24 -80 1 0 0 0 1 0 0 0 1 48092.dat
1 72 80 -48 -80 1 0 0 0 1 0 0 0 1 48092.dat
1 72 80 -48 -80 0 0 1 0 1 0 -1 0 0 48092.dat
1 72 150 -48 -60 0 0 -1 0 1 0 1 0 0 3004.dat
1 72 10 -48 -60 0 0 -1 0 1 0 1 0 0 3004.dat
1 72 120 -48 -30 1 0 0 0 1 0 0 0 1 3004.dat
1 72 40 -48 -30 1 0 0 0 1 0 0 0 1 3004.dat
1 72 80 -48 -10 1 0 0 0 1 0 0 0 1 6182.dat
1 71 80 -72 -80 -1 0 0 0 1 0 0 0 -1 48092.dat
1 71 80 -72 -80 0 0 -1 0 1 0 1 0 0 48092.dat
1 71 80 -72 -80 0 0 1 0 1 0 -1 0 0 48092.dat
1 71 80 -72 -80 1 0 0 0 1 0 0 0 1 48092.dat
1 71 80 -96 -80 -1 0 0 0 1 0 0 0 -1 48092.dat
1 71 80 -96 -80 0 0 -1 0 1 0 1 0 0 48092.dat
1 71 80 -96 -80 0 0 1 0 1 0 -1 0 0 48092.dat
1 71 80 -96 -80 1 0 0 0 1 0 0 0 1 48092.dat
1 72 120 -104 -130 1 0 0 0 1 0 0 0 1 3023b.dat
1 72 40 -104 -130 1 0 0 0 1 0 0 0 1 3023b.dat
1 72 120 -104 -30 1 0 0 0 1 0 0 0 1 3023b.dat
1 72 40 -104 -30 1 0 0 0 1 0 0 0 1 3023b.dat
1 72 150 -104 -80 0 0 -1 0 1 0 1 0 0 3710.dat
1 72 10 -104 -80 0 0 -1 0 1 0 1 0 0 3710.dat
1 72 80 -104 -150 1 0 0 0 1 0 0 0 1 3710.dat
1 72 80 -104 -10 1 0 0 0 1 0 0 0 1 3710.dat
1 71 80 -128 -80 -1 0 0 0 1 0 0 0 -1 48092.dat
1 71 80 -128 -80 0 0 -1 0 1 0 1 0 0 48092.dat
1 71 80 -128 -80 0 0 1 0 1 0 -1 0 0 48092.dat
1 71 80 -128 -80 1 0 0 0 1 0 0 0 1 48092.dat
1 71 80 -152 -80 1 0 0 0 1 0 0 0 1 48092.dat
1 71 80 -152 -80 0 0 1 0 1 0 -1 0 0 48092.dat
1 71 80 -152 -80 0 0 -1 0 1 0 1 0 0 48092.dat
1 71 80 -152 -80 -1 0 0 0 1 0 0 0 -1 48092.dat
1 0 110 -176 -10 1 0 0 0 1 0 0 0 1 3005.dat
1 0 50 -176 -10 1 0 0 0 1 0 0 0 1 3005.dat
1 71 80 -176 -80 1 0 0 0 1 0 0 0 1 48092.dat
1 71 80 -176 -80 0 0 1 0 1 0 -1 0 0 48092.dat
1 71 150 -176 -60 0 0 -1 0 1 0 1 0 0 3004.dat
1 71 70 -176 -10 1 0 0 0 1 0 0 0 1 3005.dat
1 71 90 -176 -10 1 0 0 0 1 0 0 0 1 3005.dat
1 71 10 -176 -60 0 0 -1 0 1 0 1 0 0 3004.dat
1 71 120 -176 -30 1 0 0 0 1 0 0 0 1 3004.dat
1 71 40 -176 -30 1 0 0 0 1 0 0 0 1 3004.dat
1 72 80 -184 -10 1 0 0 0 1 0 0 0 1 3710.dat
1 72 120 -184 -130 1 0 0 0 1 0 0 0 1 3023b.dat
1 72 40 -184 -130 1 0 0 0 1 0 0 0 1 3023b.dat
1 72 80 -184 -150 1 0 0 0 1 0 0 0 1 3710.dat
1 72 10 -184 -80 0 0 -1 0 1 0 1 0 0 3710.dat
1 72 120 -184 -30 1 0 0 0 1 0 0 0 1 3023b.dat
1 72 40 -184 -30 1 0 0 0 1 0 0 0 1 3023b.dat
1 72 150 -184 -80 0 0 -1 0 1 0 1 0 0 3710.dat
1 71 80 -208 -80 -1 0 0 0 1 0 0 0 -1 48092.dat
1 71 80 -208 -80 0 0 -1 0 1 0 1 0 0 48092.dat
1 71 80 -208 -80 0 0 1 0 1 0 -1 0 0 48092.dat
1 71 80 -208 -80 1 0 0 0 1 0 0 0 1 48092.dat
1 71 80 -232 -80 -1 0 0 0 1 0 0 0 -1 48092.dat
1 71 80 -232 -80 0 0 -1 0 1 0 1 0 0 48092.dat
1 71 80 -232 -80 0 0 1 0 1 0 -1 0 0 48092.dat
1 71 80 -232 -80 1 0 0 0 1 0 0 0 1 48092.dat
1 71 80 -256 -80 -1 0 0 0 1 0 0 0 -1 48092.dat
1 71 80 -256 -80 0 0 -1 0 1 0 1 0 0 48092.dat
1 71 80 -256 -80 0 0 1 0 1 0 -1 0 0 48092.dat
1 71 80 -256 -80 1 0 0 0 1 0 0 0 1 48092.dat
1 71 80 -280 -80 0 0 -1 0 1 0 1 0 0 48092.dat
1 71 80 -280 -80 0 0 1 0 1 0 -1 0 0 48092.dat
1 71 80 -280 -80 -1 0 0 0 1 0 0 0 -1 48092.dat
1 71 80 -280 -80 1 0 0 0 1 0 0 0 1 48092.dat
1 71 80 -304 -80 -1 0 0 0 1 0 0 0 -1 48092.dat
1 71 80 -304 -80 0 0 -1 0 1 0 1 0 0 48092.dat
1 71 80 -304 -80 0 0 1 0 1 0 -1 0 0 48092.dat
1 71 80 -304 -80 1 0 0 0 1 0 0 0 1 48092.dat
1 72 80 -312 -10 1 0 0 0 1 0 0 0 1 3710.dat
1 72 80 -312 -150 1 0 0 0 1 0 0 0 1 3710.dat
1 72 10 -312 -80 0 0 -1 0 1 0 1 0 0 3710.dat
1 72 150 -312 -80 0 0 -1 0 1 0 1 0 0 3710.dat
1 72 40 -312 -30 1 0 0 0 1 0 0 0 1 3023b.dat
1 72 120 -312 -30 1 0 0 0 1 0 0 0 1 3023b.dat
1 72 40 -312 -130 1 0 0 0 1 0 0 0 1 3023b.dat
1 72 120 -312 -130 1 0 0 0 1 0 0 0 1 3023b.dat
1 71 10 -336 -110 1 0 0 0 1 0 0 0 1 3005.dat
1 71 10 -336 -70 1 0 0 0 1 0 0 0 1 3005.dat
1 71 30 -336 -30 1 0 0 0 1 0 0 0 1 3005.dat
1 71 50 -336 -10 1 0 0 0 1 0 0 0 1 3005.dat
1 71 90 -336 -10 1 0 0 0 1 0 0 0 1 3005.dat
1 71 110 -336 -30 1 0 0 0 1 0 0 0 1 3005.dat
1 71 150 -336 -50 1 0 0 0 1 0 0 0 1 3005.dat
1 71 150 -336 -90 1 0 0 0 1 0 0 0 1 3005.dat
1 71 130 -336 -130 1 0 0 0 1 0 0 0 1 3005.dat
1 71 110 -336 -150 1 0 0 0 1 0 0 0 1 3005.dat
1 71 70 -336 -150 1 0 0 0 1 0 0 0 1 3005.dat
1 71 50 -336 -130 1 0 0 0 1 0 0 0 1 3005.dat
0
