0 Tree
0 Name: tree.ldr
0 Author: Brickworks

1 70 130 -24 -110 0 0 1 0 1 0 -1 0 0 54200.dat
1 70 130 -24 -90 0 0 1 0 1 0 -1 0 0 54200.dat
1 70 70 -24 -110 0 0 -1 0 1 0 1 0 0 54200.dat
1 70 70 -24 -90 0 0 -1 0 1 0 1 0 0 54200.dat
1 70 110 -24 -130 -1 0 0 0 1 0 0 0 -1 54200.dat
1 70 90 -24 -130 -1 0 0 0 1 0 0 0 -1 54200.dat
1 70 110 -24 -70 1 0 0 0 1 0 0 0 1 54200.dat
1 70 90 -24 -70 1 0 0 0 1 0 0 0 1 54200.dat
1 70 100 -24 -80 1 0 0 0 1 0 0 0 1 3001.dat
1 70 100 -24 -120 1 0 0 0 1 0 0 0 1 3001.dat
1 70 100 -48 -100 1 0 0 0 1 0 0 0 1 3003.dat
1 70 100 -72 -100 1 0 0 0 1 0 0 0 1 3003.dat
1 70 100 -96 -100 1 0 0 0 1 0 0 0 1 3003.dat
1 288 100 -120 -80 1 0 0 0 1 0 0 0 1 3001.dat
1 288 100 -120 -120 1 0 0 0 1 0 0 0 1 3001.dat
1 288 80 -144 -60 1 0 0 0 1 0 0 0 1 3001.dat
1 288 140 -144 -80 0 0 -1 0 1 0 1 0 0 3001.dat
1 288 120 -144 -140 1 0 0 0 1 0 0 0 1 3001.dat
1 288 60 -144 -120 0 0 -1 0 1 0 1 0 0 3001.dat
1 288 100 -144 -100 1 0 0 0 1 0 0 0 1 3003.dat
1 2 70 -168 -30 1 0 0 0 1 0 0 0 1 54200.dat
1 2 90 -168 -30 1 0 0 0 1 0 0 0 1 54200.dat
1 2 110 -168 -30 1 0 0 0 1 0 0 0 1 54200.dat
1 2 130 -168 -30 1 0 0 0 1 0 0 0 1 54200.dat
1 2 70 -168 -170 -1 0 0 0 1 0 0 0 -1 54200.dat
1 2 90 -168 -170 -1 0 0 0 1 0 0 0 -1 54200.dat
1 2 110 -168 -170 -1 0 0 0 1 0 0 0 -1 54200.dat
1 2 130 -168 -170 -1 0 0 0 1 0 0 0 -1 54200.dat
1 2 30 -168 -70 0 0 -1 0 1 0 1 0 0 54200.dat
1 2 30 -168 -90 0 0 -1 0 1 0 1 0 0 54200.dat
1 2 30 -168 -110 0 0 -1 0 1 0 1 0 0 54200.dat
1 2 30 -168 -130 0 0 -1 0 1 0 1 0 0 54200.dat
1 2 170 -168 -70 0 0 1 0 1 0 -1 0 0 54200.dat
1 2 170 -168 -90 0 0 1 0 1 0 -1 0 0 54200.dat
1 2 170 -168 -110 0 0 1 0 1 0 -1 0 0 54200.dat
1 2 170 -168 -130 0 0 1 0 1 0 -1 0 0 54200.dat
1 288 40 -168 -120 1 0 0 0 1 0 0 0 1 3003.dat
1 288 40 -168 -80 1 0 0 0 1 0 0 0 1 3003.dat
1 288 100 -168 -160 1 0 0 0 1 0 0 0 1 3001.dat
1 288 100 -168 -40 1 0 0 0 1 0 0 0 1 3001.dat
1 288 160 -168 -80 1 0 0 0 1 0 0 0 1 3003.dat
1 288 160 -168 -120 1 0 0 0 1 0 0 0 1 3003.dat
1 288 50 -168 -50 1 0 0 0 1 0 0 0 1 3005.dat
1 288 150 -168 -50 1 0 0 0 1 0 0 0 1 3005.dat
1 288 50 -168 -150 1 0 0 0 1 0 0 0 1 3005.dat
1 288 150 -168 -150 1 0 0 0 1 0 0 0 1 3005.dat
1 2 100 -168 -120 1 0 0 0 1 0 0 0 1 3001.dat
1 2 100 -168 -80 1 0 0 0 1 0 0 0 1 3001.dat
1 2 50 -176 -50 1 0 0 0 1 0 0 0 1 6141.dat
1 2 150 -176 -50 1 0 0 0 1 0 0 0 1 6141.dat
1 2 50 -176 -150 1 0 0 0 1 0 0 0 1 6141.dat
1 2 150 -176 -150 1 0 0 0 1 0 0 0 1 6141.dat
1 2 100 -192 -60 1 0 0 0 1 0 0 0 1 3001.dat
1 2 100 -192 -140 1 0 0 0 1 0 0 0 1 3001.dat
1 2 60 -192 -100 1 0 0 0 1 0 0 0 1 3003.dat
1 2 140 -192 -100 1 0 0 0 1 0 0 0 1 3003.dat
1 2 100 -192 -100 1 0 0 0 1 0 0 0 1 3003.dat
1 288 90 -200 -50 1 0 0 0 1 0 0 0 1 6141.dat
1 288 150 -200 -110 1 0 0 0 1 0 0 0 1 6141.dat
1 288 50 -200 -90 1 0 0 0 1 0 0 0 1 6141.dat
1 288 110 -200 -150 1 0 0 0 1 0 0 0 1 6141.dat
1 288 90 -200 -150 1 0 0 0 1 0 0 0 1 6141.dat
1 288 110 -200 -50 1 0 0 0 1 0 0 0 1 6141.dat
1 2 100 -216 -80 1 0 0 0 1 0 0 0 1 3001.dat
1 2 100 -216 -120 1 0 0 0 1 0 0 0 1 3001.dat
1 2 80 -240 -70 1 0 0 0 1 0 0 0 1 3039.dat
1 2 110 -240 -80 0 0 -1 0 1 0 1 0 0 3039.dat
1 2 120 -240 -130 -1 0 0 0 1 0 0 0 -1 3039.dat
1 2 90 -240 -120 0 0 1 0 1 0 -1 0 0 3039.dat
0
